{
.appVersion = "3500";
.formatVersion = 3;
DisplayStrings = (
"ABCDEFGHIJKLMNOPQRSTUVWXYZaäbcdefghijklmnoöpqrsßtuüvwxyz/e.alt/s.alt 0123456789 .,-–—()„“”‘’&/dieresis.comb"
);
axes = (
{
name = Weight;
tag = wght;
}
);
date = "2025-11-01 16:10:50 +0000";
familyName = Dangast;
fontMaster = (
{
axesValues = (
300
);
id = m002;
metricValues = (
{
over = 16;
pos = 800;
},
{
over = 16;
pos = 700;
},
{
over = 16;
pos = 500;
},
{
over = -16;
},
{
over = -16;
pos = -200;
},
{
}
);
name = Regular;
stemValues = (
30,
30
);
userData = {
"Letterink-NibData" = {
MinorAxisWidth = 30;
};
};
},
{
axesValues = (
900
);
iconName = Bold;
id = m003;
metricValues = (
{
over = 16;
pos = 800;
},
{
over = 16;
pos = 700;
},
{
over = 16;
pos = 500;
},
{
over = -16;
},
{
over = -16;
pos = -200;
},
{
}
);
name = Black;
stemValues = (
90,
90
);
userData = {
"Letterink-NibData" = {
MinorAxisWidth = 30;
};
};
}
);
glyphs = (
{
glyphname = A;
lastChange = "2025-11-04 18:30:44 +0000";
layers = (
{
layerId = m002;
shapes = (
{
closed = 1;
nodes = (
(38.185,9.694,o),
(70.084,1.653,o),
(87.013,28.079,cs),
(169.125,156.254,o),
(360.598,457.957,o),
(485.283,687.216,c),
(472.827,686.028,o),
(460.371,684.84,o),
(447.916,683.652,c),
(397.828,465.921,o),
(426.108,248.704,o),
(364.766,-55.04,cs),
(359.404,-81.591,o),
(400.287,-67.458,o),
(405.234,-42.96,cs),
(467.892,267.296,o),
(440.172,486.079,o),
(488.084,694.348,cs),
(494.826,723.657,o),
(456.538,701.487,o),
(450.717,690.784,cs),
(327.402,464.043,o),
(136.875,163.746,o),
(54.987,35.921,cs)
);
},
{
closed = 1;
nodes = (
(-4.606,307.966,o),
(-26.582,266.646,o),
(-1.371,267.388,cs),
(175.149,272.58,o),
(491.94,405.42,o),
(626.298,376.695,cs),
(646.759,372.321,o),
(673.467,412.651,o),
(651.702,417.305,cs),
(496.06,450.58,o),
(180.851,313.42,o),
(17.371,308.612,cs)
);
}
);
width = 585;
},
{
layerId = m003;
shapes = (
{
closed = 1;
nodes = (
(2.513,8.513,o),
(76.528,-42.79,o),
(108.74,7.491,cs),
(191.305,136.373,o),
(382.293,437.226,o),
(507.358,667.184,c),
(479.623,677.83,o),
(451.888,688.476,o),
(424.153,699.123,c),
(372.407,474.186,o),
(401.767,261.34,o),
(340.827,-40.414,cs),
(329.354,-97.221,o),
(417.537,-115.204,o),
(429.173,-57.586,cs),
(492.233,254.66,o),
(465.593,477.814,o),
(511.847,678.877,cs),
(523.184,728.161,o),
(453.23,756.027,o),
(428.642,710.816,cs),
(305.707,484.774,o),
(114.695,183.627,o),
(33.26,56.509,cs)
);
},
{
closed = 1;
nodes = (
(-50.782,331.29,o),
(-49.902,241.278,o),
(9.57,243.027,cs),
(192.27,248.401,o),
(514.22,377.66,o),
(629.644,352.983,cs),
(686.467,340.835,o),
(705.69,428.759,o),
(648.356,441.017,cs),
(473.78,478.34,o),
(163.73,337.599,o),
(6.43,332.973,cs)
);
}
);
width = 585;
}
);
unicode = 65;
},
{
glyphname = B;
lastChange = "2025-11-04 18:30:44 +0000";
layers = (
{
layerId = m002;
shapes = (
{
closed = 1;
nodes = (
(264.626,416.937,o),
(253.291,376.548,o),
(280.701,384.187,cs),
(362.187,406.896,o),
(491.386,551.725,o),
(590.013,704.079,cs),
(601.65,722.056,o),
(577.29,732.386,o),
(574.936,732.566,cs),
(221.822,759.516,o),
(187.722,469.467,o),
(139.632,328.118,cs),
(95.783,199.234,o),
(85.289,-10.616,o),
(325.31,-10.616,cs),
(567.753,-10.616,o),
(779.732,230.341,o),
(809.368,317.882,cs),
(844.745,422.383,o),
(727.793,482.616,o),
(540.69,482.616,cs),
(434.604,482.616,o),
(293.533,438.008,o),
(177.433,366.237,cs),
(151.584,350.258,o),
(157.601,317.093,o),
(184.567,333.763,cs),
(288.467,397.992,o),
(425.396,441.384,o),
(521.31,441.384,cs),
(716.207,441.384,o),
(792.039,375.352,o),
(770.632,312.118,cs),
(756.867,271.456,o),
(558.247,30.616,o),
(344.69,30.616,cs),
(128.711,30.616,o),
(138.491,216.673,o),
(178.368,333.882,cs),
(250.671,546.4,o),
(226.929,716.325,o),
(553.064,691.434,cs),
(570.04,690.138,o),
(558.105,712.103,o),
(557.987,711.921,cs),
(466.656,570.838,o),
(329.813,435.104,o),
(289.299,423.813,cs)
);
}
);
width = 835;
},
{
layerId = m003;
shapes = (
{
closed = 1;
nodes = (
(216.768,431.698,o),
(240.781,344.963,o),
(297.404,360.743,cs),
(388.489,386.128,o),
(510.815,527.587,o),
(611.74,683.491,cs),
(623.377,701.468,o),
(567.47,756.865,o),
(567.139,756.89,cs),
(192.678,785.47,o),
(167.843,496.704,o),
(116.452,345.651,cs),
(74.172,221.379,o),
(54.777,-35,o),
(335,-35,cs),
(595.316,-35,o),
(797.825,197.781,o),
(832.548,300.349,cs),
(880.181,441.052,o),
(722.936,507,o),
(531,507,cs),
(416.969,507,o),
(275.484,461.312,o),
(157.154,388.162,cs),
(107.565,357.507,o),
(155.141,281.111,o),
(204.846,311.838,cs),
(306.516,374.688,o),
(443.031,417,o),
(531,417,cs),
(721.064,417,o),
(756.603,356.683,o),
(747.452,329.651,cs),
(738.774,304.017,o),
(530.684,55,o),
(335,55,cs),
(159.223,55,o),
(160.102,194.528,o),
(201.548,316.349,cs),
(270.55,519.163,o),
(256.073,690.371,o),
(560.861,667.11,cs),
(593.197,664.642,o),
(536.378,732.691,o),
(536.26,732.509,cs),
(447.227,594.975,o),
(303.511,455.872,o),
(272.596,447.257,cs)
);
}
);
width = 835;
}
);
unicode = 66;
},
{
glyphname = C;
lastChange = "2025-11-04 18:30:44 +0000";
layers = (
{
layerId = m002;
shapes = (
{
closed = 1;
nodes = (
(500.007,462.862,o),
(508.374,431.135,o),
(534.975,449.688,cs),
(816.553,646.083,o),
(489.167,893.582,o),
(188.759,527.711,cs),
(-115.589,157.042,o),
(130.967,-337.288,o),
(728.348,209.186,cs),
(752.329,231.124,o),
(733.242,254.393,o),
(709.652,232.814,cs),
(157.033,-272.712,o),
(-53.075,185.503,o),
(215.241,512.289,cs),
(480.177,834.957,o),
(719.447,615.917,o),
(525.025,480.312,cs)
);
}
);
width = 722;
},
{
layerId = m003;
shapes = (
{
closed = 1;
nodes = (
(456.819,468.822,o),
(507.434,394.397,o),
(555.811,428.138,cs),
(858.266,639.094,o),
(476.473,925.196,o),
(167.028,548.319,cs),
(-147.919,164.742,o),
(138.665,-370.867,o),
(749.111,187.558,cs),
(791.954,226.751,o),
(732.174,294.038,o),
(688.889,254.442,cs),
(149.335,-239.133,o),
(-20.746,177.804,o),
(236.972,491.681,cs),
(493.406,803.994,o),
(676.425,621.993,o),
(504.189,501.862,cs)
);
}
);
width = 722;
}
);
unicode = 67;
},
{
glyphname = D;
lastChange = "2025-11-04 18:30:44 +0000";
layers = (
{
layerId = m002;
shapes = (
{
closed = 1;
nodes = (
(384.068,575.938,o),
(343.003,559.873,o),
(340.464,534.933,cs),
(323.528,368.557,o),
(305.389,231.123,o),
(251.172,96.549,cs),
(240.203,69.322,o),
(278.215,73.108,o),
(288.828,99.451,cs),
(346.611,242.877,o),
(364.472,383.443,o),
(381.536,551.067,cs)
);
},
{
closed = 1;
nodes = (
(207.813,525.668,o),
(247.96,536.169,o),
(254.91,561.65,cs),
(275.947,638.787,o),
(309.814,679.384,o),
(418.31,679.384,cs),
(538.536,679.384,o),
(592.185,545.827,o),
(543.838,315.305,cs),
(501.093,111.497,o),
(419.813,8.616,o),
(263.69,8.616,cs),
(105.835,8.616,o),
(32.22,121.194,o),
(69.234,301.04,cs),
(77.725,342.297,o),
(100.228,376.841,o),
(101.358,377.689,cs),
(126.751,396.733,o),
(114.099,425.405,o),
(88.642,406.311,cs),
(49.772,377.159,o),
(38.776,337.6,o),
(28.766,288.96,cs),
(-12.107,90.371,o),
(70.165,-32.616,o),
(244.31,-32.616,cs),
(384.187,-32.616,o),
(541.001,120.902,o),
(584.162,326.695,cs),
(633.645,562.629,o),
(583.464,720.616,o),
(437.69,720.616,cs),
(354.186,720.616,o),
(242.053,651.213,o),
(215.09,552.35,cs)
);
}
);
width = 600;
},
{
layerId = m003;
shapes = (
{
closed = 1;
nodes = (
(411.476,594.511,o),
(322.396,608.117,o),
(316.247,547.704,cs),
(299.191,380.158,o),
(281.826,247.773,o),
(228.277,114.857,cs),
(206.5,60.804,o),
(289.877,26.917,o),
(311.723,81.143,cs),
(370.174,226.227,o),
(388.809,371.842,o),
(405.753,538.296,cs)
);
},
{
closed = 1;
nodes = (
(176.522,513.604,o),
(262.764,487.777,o),
(278.467,545.353,cs),
(297.447,614.946,o),
(344.84,655,o),
(428,655,cs),
(510.155,655,o),
(566.817,553.661,o),
(519.983,330.356,cs),
(479.267,136.219,o),
(367.246,33,o),
(254,33,cs),
(119.369,33,o),
(57.854,114.799,o),
(93.017,285.644,cs),
(101.151,325.169,o),
(120.522,354.892,o),
(122.082,356.061,cs),
(168.002,390.501,o),
(115.385,463.539,o),
(67.918,427.939,cs),
(29.478,399.108,o),
(15.35,354.728,o),
(4.983,304.356,cs),
(-39.124,90.05,o),
(56.428,-57,o),
(254,-57,cs),
(436.754,-57,o),
(562.827,96.18,o),
(608.017,311.644,cs),
(659.013,554.794,o),
(611.845,745,o),
(428,745,cs),
(319.16,745,o),
(220.553,675.054,o),
(191.533,568.647,cs)
);
}
);
width = 600;
}
);
unicode = 68;
},
{
glyphname = E;
lastChange = "2025-11-04 18:30:44 +0000";
layers = (
{
layerId = m002;
shapes = (
{
closed = 1;
nodes = (
(751.867,567.187,o),
(788.02,601.691,o),
(775.037,616.297,cs),
(717.589,680.926,o),
(654.057,701.616,o),
(555.69,701.616,cs),
(425.61,701.616,o),
(231.201,681.845,o),
(101.788,602.456,cs),
(91.306,596.026,o),
(72.545,557.694,o),
(101.054,566.289,cs),
(167.387,586.289,o),
(233.72,606.289,o),
(300.054,626.289,c),
(294.955,632.018,o),
(289.857,637.746,o),
(284.758,643.475,c),
(244.21,529.94,o),
(100.741,93.604,o),
(86.289,44.054,cs),
(82.671,31.649,o),
(82.283,35.012,o),
(89.105,29.626,cs),
(174.21,-37.562,o),
(551.099,18.416,o),
(675.475,62.758,cs),
(701.028,71.869,o),
(708.04,111.051,o),
(680.525,101.242,cs),
(574.901,63.584,o),
(189.79,13.562,o),
(122.895,66.374,c),
(123.833,61.565,o),
(124.772,56.756,o),
(125.711,51.946,c),
(139.259,98.396,o),
(283.79,538.06,o),
(323.242,648.525,cs),
(328.823,664.155,o),
(317.549,668.606,o),
(307.946,665.711,cs),
(241.613,645.711,o),
(175.28,625.711,o),
(108.946,605.711,c),
(108.702,593.655,o),
(108.457,581.599,o),
(108.212,569.544,c),
(216.799,636.155,o),
(410.39,660.384,o),
(536.31,660.384,cs),
(631.943,660.384,o),
(684.411,643.074,o),
(738.963,581.703,cs)
);
},
{
closed = 1;
nodes = (
(198.984,351.723,o),
(190.235,312.037,o),
(217.407,320.398,cs),
(344.271,359.433,o),
(454.766,372.384,o),
(512.31,372.384,cs),
(564.874,372.384,o),
(633.889,371.158,o),
(646.528,362.31,cs),
(662.327,351.251,o),
(695.844,388.23,o),
(679.472,399.69,cs),
(652.111,418.842,o),
(585.126,413.616,o),
(531.69,413.616,cs),
(469.234,413.616,o),
(357.729,400.567,o),
(224.593,359.602,cs)
);
}
);
width = 728;
},
{
layerId = m003;
shapes = (
{
closed = 1;
nodes = (
(762.177,525.443,o),
(829.378,585.307,o),
(790.442,629.111,cs),
(727.164,700.298,o),
(645.506,726,o),
(546,726,cs),
(411.069,726,o),
(217.158,707.593,o),
(81.154,624.162,cs),
(37.625,597.46,o),
(68.365,527.954,o),
(118.157,542.966,cs),
(184.49,562.966,o),
(250.823,582.966,o),
(317.157,602.966,c),
(298.676,622.441,o),
(280.195,641.916,o),
(261.714,661.391,c),
(220.569,546.187,o),
(77.697,111.674,o),
(62.743,60.404,cs),
(57.724,43.194,o),
(64.87,23.139,o),
(78.295,12.54,cs),
(190.711,-76.21,o),
(555.807,-9.338,o),
(693.391,39.714,cs),
(747.308,58.936,o),
(718.648,144.265,o),
(662.609,124.286,cs),
(570.193,91.338,o),
(173.289,52.21,o),
(133.705,83.46,c),
(138.889,67.506,o),
(144.073,51.551,o),
(149.257,35.596,c),
(162.303,80.326,o),
(307.431,521.813,o),
(346.286,630.609,cs),
(358.285,664.205,o),
(327.771,700.168,o),
(290.843,689.034,cs),
(224.51,669.034,o),
(158.177,649.034,o),
(91.843,629.034,c),
(104.178,601.968,o),
(116.512,574.903,o),
(128.846,547.838,c),
(230.842,610.407,o),
(424.931,636,o),
(546,636,cs),
(640.494,636,o),
(674.836,623.702,o),
(723.558,568.889,cs)
);
},
{
closed = 1;
nodes = (
(152.659,366.054,o),
(177.77,279.617,o),
(234.157,296.966,cs),
(361.029,336.004,o),
(466.438,348,o),
(522,348,cs),
(601.505,348,o),
(621.887,354.849,o),
(637.189,344.138,cs),
(684.204,311.228,o),
(737.426,383.831,o),
(688.811,417.862,cs),
(636.765,454.294,o),
(577.734,438,o),
(522,438,cs),
(457.562,438,o),
(340.971,423.996,o),
(207.843,383.034,cs)
);
}
);
width = 728;
}
);
unicode = 69;
},
{
glyphname = F;
lastChange = "2025-11-04 18:30:44 +0000";
layers = (
{
layerId = m002;
shapes = (
{
closed = 1;
nodes = (
(428.421,652.159,o),
(388.478,642.39,o),
(382,616,cs),
(355.516,508.103,o),
(222.749,28.369,o),
(189.637,-43.373,cs),
(177.03,-70.688,o),
(214.348,-68.659,o),
(226.363,-42.627,cs),
(265.251,41.631,o),
(394.484,513.897,o),
(422,626,cs)
);
},
{
closed = 1;
nodes = (
(142.17,359.751,o),
(106.895,324.291,o),
(121.703,310.963,cs),
(180.21,258.307,o),
(467.898,295.735,o),
(598,328,cs),
(622.625,334.107,o),
(635.089,374.718,o),
(608,368,cs),
(488.102,338.265,o),
(197.79,309.693,o),
(156.297,347.037,cs)
);
},
{
closed = 1;
nodes = (
(109.86,619.827,o),
(93.784,578.598,o),
(120.617,583.7,cs),
(262.03,610.588,o),
(426.869,640.384,o),
(507.31,640.384,cs),
(587.351,640.384,o),
(659.673,609.24,o),
(705.703,568.963,cs),
(720.397,556.106,o),
(754.928,592.235,o),
(740.297,605.037,cs),
(690.327,648.76,o),
(614.649,681.616,o),
(526.69,681.616,cs),
(439.131,681.616,o),
(275.97,651.412,o),
(133.383,624.3,cs)
);
}
);
width = 606;
},
{
layerId = m003;
shapes = (
{
closed = 1;
nodes = (
(459.47,666.362,o),
(372.482,689.516,o),
(358.337,631.886,cs),
(331.738,523.523,o),
(199.012,44.908,o),
(167.216,-23.982,cs),
(143.25,-75.909,o),
(223.837,-116.07,o),
(248.784,-62.018,cs),
(288.988,25.092,o),
(418.262,498.477,o),
(445.663,610.114,cs)
);
},
{
closed = 1;
nodes = (
(127.922,399.512,o),
(63.345,336.548,o),
(108.889,295.558,cs),
(189.062,223.403,o),
(492.41,274.211,o),
(613.886,304.337,cs),
(670.457,318.366,o),
(648.847,405.733,o),
(592.114,391.663,cs),
(463.272,359.711,o),
(189.818,343.805,o),
(169.111,362.442,cs)
);
},
{
closed = 1;
nodes = (
(62.191,637.483,o),
(77.13,548.712,o),
(135.586,559.827,cs),
(277.085,586.731,o),
(440.642,616,o),
(517,616,cs),
(589.144,616,o),
(654.643,587.018,o),
(693.477,553.038,cs),
(737.481,514.535,o),
(796.372,582.594,o),
(752.523,620.962,cs),
(695.357,670.982,o),
(612.856,706,o),
(517,706,cs),
(425.358,706,o),
(260.915,675.269,o),
(118.414,648.173,cs)
);
}
);
width = 606;
}
);
unicode = 70;
},
{
glyphname = G;
lastChange = "2025-11-04 18:30:44 +0000";
layers = (
{
layerId = m002;
shapes = (
{
closed = 1;
nodes = (
(498.362,479.482,o),
(524.112,463.185,o),
(544.964,487.957,cs),
(698.285,670.098,o),
(606.962,849.544,o),
(290.704,540.914,cs),
(38.621,294.912,o),
(-40.948,47.5,o),
(142.739,-4.168,cs),
(253.534,-35.332,o),
(449.465,50.278,o),
(607.701,188.604,c),
(598.266,191.538,o),
(588.832,194.473,o),
(579.398,197.407,c),
(504.044,-47.408,o),
(422.333,-290.627,o),
(355.511,-539.118,cs),
(343.898,-582.305,o),
(352,-629.768,o),
(365.996,-666.376,cs),
(372.786,-684.134,o),
(401.11,-674.209,o),
(394.004,-655.624,cs),
(382,-624.232,o),
(375.328,-580.949,o),
(384.489,-546.882,cs),
(452.347,-294.536,o),
(541.289,-46.592,o),
(618.602,204.593,cs),
(625.073,225.616,o),
(604.22,225.565,o),
(590.299,213.396,cs),
(446.535,87.722,o),
(260.774,10.427,o),
(169.261,36.168,cs),
(19.456,78.305,o),
(68.396,282.045,o),
(311.296,519.086,cs),
(596.274,797.19,o),
(631.715,637.902,o),
(519.036,504.043,cs)
);
}
);
width = 687;
},
{
layerId = m003;
shapes = (
{
closed = 1;
nodes = (
(459.993,480.335,o),
(528.831,422.358,o),
(566.472,467.075,cs),
(732.027,663.749,o),
(589.304,874.225,o),
(269.74,562.37,cs),
(23.279,321.854,o),
(-54.447,28.449,o),
(143.596,-27.257,cs),
(277.877,-65.027,o),
(465.766,24.761,o),
(628.523,167.038,c),
(604.337,182.744,o),
(580.152,198.451,o),
(555.966,214.157,c),
(480.172,-32.092,o),
(394.315,-279.291,o),
(326.533,-531.353,cs),
(312.467,-583.661,o),
(321.997,-635.303,o),
(337.989,-677.127,cs),
(358.359,-730.403,o),
(443.329,-700.627,o),
(422.011,-644.873,cs),
(412.003,-618.697,o),
(406.758,-579.593,o),
(413.467,-554.647,cs),
(480.365,-305.872,o),
(565.161,-61.908,o),
(642.034,187.843,cs),
(654.867,229.537,o),
(603.628,264.816,o),
(569.477,234.962,cs),
(430.234,113.239,o),
(236.431,40.122,o),
(168.404,59.257,cs),
(32.955,97.356,o),
(83.738,255.103,o),
(332.26,497.63,cs),
(613.932,772.508,o),
(597.973,644.251,o),
(497.528,524.925,cs)
);
}
);
width = 687;
}
);
unicode = 71;
},
{
glyphname = H;
lastChange = "2025-11-04 18:30:44 +0000";
layers = (
{
layerId = m002;
shapes = (
{
closed = 1;
nodes = (
(241.362,684.169,o),
(201.419,674.406,o),
(195,648,cs),
(150.958,466.828,o),
(95.762,228.124,o),
(66.587,29.937,cs),
(62.764,3.969,o),
(103.828,19.71,o),
(107.413,44.063,cs),
(136.238,239.876,o),
(191.042,477.172,o),
(235,658,cs)
);
},
{
closed = 1;
nodes = (
(-1.202,378.551,o),
(-23.621,337.311,o),
(1.31,337.384,cs),
(343.082,338.39,o),
(352.751,416.283,o),
(481.31,415.384,cs),
(504.065,415.225,o),
(525.158,456.444,o),
(500.69,456.616,cs),
(343.249,457.717,o),
(358.918,379.61,o),
(20.69,378.616,cs)
);
},
{
closed = 1;
nodes = (
(466.813,668.183,o),
(431.286,669.959,o),
(417.976,642.347,cs),
(319.418,437.893,o),
(301.555,96.885,o),
(285.464,-72.067,cs),
(283.055,-97.367,o),
(324.239,-80.05,o),
(326.536,-55.933,cs),
(342.445,111.115,o),
(364.582,456.107,o),
(454.024,641.653,cs)
);
}
);
width = 446;
},
{
layerId = m003;
shapes = (
{
closed = 1;
nodes = (
(272.343,698.385,o),
(185.355,721.552,o),
(171.337,663.886,cs),
(127.244,482.506,o),
(71.838,242.983,o),
(42.438,43.263,cs),
(34.076,-13.544,o),
(122.923,-27.947,o),
(131.562,30.737,cs),
(160.162,225.017,o),
(214.756,461.494,o),
(258.663,642.114,cs)
);
},
{
closed = 1;
nodes = (
(-46.553,402.831,o),
(-48.176,312.826,o),
(11,313,cs),
(357.09,314.018,o),
(377.936,391.791,o),
(491,391,cs),
(548.597,390.597,o),
(550.136,480.586,o),
(491,481,cs),
(318.064,482.209,o),
(344.91,403.982,o),
(11,403,cs)
);
},
{
closed = 1;
nodes = (
(501.134,673.488,o),
(421.774,716.119,o),
(395.554,661.727,cs),
(294.07,451.2,o),
(277.258,108.836,o),
(261.171,-60.078,cs),
(255.626,-118.302,o),
(345.307,-125.905,o),
(350.829,-67.922,cs),
(366.742,99.164,o),
(389.93,442.8,o),
(476.446,622.273,cs)
);
}
);
width = 446;
}
);
unicode = 72;
},
{
glyphname = I;
lastChange = "2025-11-04 18:30:44 +0000";
layers = (
{
layerId = m002;
shapes = (
{
closed = 1;
nodes = (
(242.844,714.347,o),
(202.139,700.981,o),
(197.7,675.617,cs),
(183.881,596.65,o),
(58.687,94.32,o),
(51.7,55.617,cs),
(44.946,18.202,o),
(49.604,-7.959,o),
(66.322,-24.678,cs),
(79.769,-38.124,o),
(115.867,-3.512,o),
(101.678,10.678,cs),
(86.396,25.959,o),
(86.088,33.972,o),
(92.3,68.383,cs),
(98.343,101.855,o),
(224.119,607.35,o),
(238.3,688.383,cs)
);
}
);
width = 224;
},
{
layerId = m003;
shapes = (
{
closed = 1;
nodes = (
(272.18,730.551,o),
(184.032,748.946,o),
(173.684,689.814,cs),
(160.09,612.136,o),
(35.244,111.692,o),
(27.684,69.814,cs),
(21.206,33.933,o),
(26.634,-13.274,o),
(52.18,-38.82,cs),
(92.887,-79.526,o),
(157.656,-17.016,o),
(115.82,24.82,cs),
(109.366,31.274,o),
(109.828,18.241,o),
(116.316,54.186,cs),
(121.786,84.483,o),
(247.91,591.864,o),
(262.316,674.186,cs)
);
}
);
width = 224;
}
);
unicode = 73;
},
{
glyphname = J;
lastChange = "2025-11-04 18:30:44 +0000";
layers = (
{
background = {
shapes = (
{
closed = 0;
nodes = (
(177,194,l,{
"Letterink-NibData" = {
MainAxisWidth = "20";
ValidForParentMainAxisWidth = "30";
};
"Letterink-NibStyleId" = "1";
}),
(142,286,o),
(354,380,o),
(427,415,c,{
"Letterink-NibData" = {
MainAxisWidth = "20";
ValidForParentMainAxisWidth = "30";
};
"Letterink-NibStyleId" = "1";
}),
(385,208,o),
(206,-543,o),
(148,-597,cs,{
"Letterink-NibData" = {
MainAxisWidth = "20";
ValidForParentMainAxisWidth = "30";
};
"Letterink-NibStyleId" = "1";
}),
(123,-620,o),
(57,-609,o),
(83,-387,cs,{
"Letterink-NibData" = {
MainAxisWidth = "20";
ValidForParentMainAxisWidth = "30";
};
"Letterink-NibStyleId" = "1";
}),
(107,-179,o),
(187,-36,o),
(335,43,cs,{
"Letterink-NibData" = {
MainAxisWidth = "20";
ValidForParentMainAxisWidth = "30";
};
"Letterink-NibStyleId" = "1";
}),
(378,66,o),
(378,66,o),
(445,119,cs,{
"Letterink-NibData" = {
MainAxisWidth = "20";
ValidForParentMainAxisWidth = "30";
};
"Letterink-NibStyleId" = "1";
})
);
},
{
closed = 0;
nodes = (
(419,778,l,{
"Letterink-NibData" = {
MainAxisWidth = "20";
ValidForParentMainAxisWidth = "30";
};
"Letterink-NibStyleId" = "1";
}),
(427,746,o),
(489,688,o),
(517,659,cs,{
"Letterink-NibData" = {
MainAxisWidth = "20";
ValidForParentMainAxisWidth = "30";
};
"Letterink-NibStyleId" = "1";
})
);
}
);
};
layerId = m002;
shapes = (
{
closed = 1;
nodes = (
(129.033,533.279,o),
(167.584,564.359,o),
(157.119,581.801,cs),
(120.056,643.572,o),
(134.885,686.27,o),
(332.761,666.462,cs),
(453.671,654.358,o),
(493.925,691.181,o),
(524.054,700.289,c),
(520.108,708.284,o),
(516.162,716.279,o),
(512.216,724.273,c),
(422.148,588.125,o),
(400.296,470.581,o),
(380.54,320.6,cs),
(353.588,115.995,o),
(187.92,-559.065,o),
(160.017,-585.783,cs),
(133.128,-611.53,o),
(105.207,-548.469,o),
(118.564,-378.603,cs),
(131.722,-211.283,o),
(157.987,-104.146,o),
(345.388,24.564,cs),
(378.303,47.171,o),
(424.776,40.274,o),
(492.667,103.483,cs),
(516.216,125.408,o),
(497.204,148.742,o),
(473.333,126.517,cs),
(425.224,81.726,o),
(376.189,82.113,o),
(328.612,49.436,cs),
(144.286,-77.163,o),
(91.166,-220.787,o),
(77.436,-395.397,cs),
(65.624,-545.596,o),
(85.281,-698.897,o),
(179.983,-608.217,cs),
(264.458,-527.329,o),
(392.523,115.726,o),
(421.46,335.4,cs),
(441.196,485.223,o),
(461.852,591.875,o),
(543.784,715.727,cs),
(554.758,732.315,o),
(546.1,743.99,o),
(531.946,739.711,cs),
(476.075,722.819,o),
(478.287,695.22,o),
(355.239,707.538,cs),
(121.04,730.983,o),
(71.944,628.428,o),
(118.881,550.199,cs)
);
}
);
width = 490;
},
{
background = {
shapes = (
{
closed = 0;
nodes = (
(177,194,l,{
"Letterink-NibData" = {
MainAxisWidth = "20";
ValidForParentMainAxisWidth = "30";
};
"Letterink-NibStyleId" = "1";
}),
(142,286,o),
(354,380,o),
(427,415,c,{
"Letterink-NibData" = {
MainAxisWidth = "20";
ValidForParentMainAxisWidth = "30";
};
"Letterink-NibStyleId" = "1";
}),
(385,208,o),
(206,-543,o),
(148,-597,cs,{
"Letterink-NibData" = {
MainAxisWidth = "20";
ValidForParentMainAxisWidth = "30";
};
"Letterink-NibStyleId" = "1";
}),
(123,-620,o),
(57,-609,o),
(83,-387,cs,{
"Letterink-NibData" = {
MainAxisWidth = "20";
ValidForParentMainAxisWidth = "30";
};
"Letterink-NibStyleId" = "1";
}),
(107,-179,o),
(187,-36,o),
(335,43,cs,{
"Letterink-NibData" = {
MainAxisWidth = "20";
ValidForParentMainAxisWidth = "30";
};
"Letterink-NibStyleId" = "1";
}),
(378,66,o),
(378,66,o),
(445,119,cs,{
"Letterink-NibData" = {
MainAxisWidth = "20";
ValidForParentMainAxisWidth = "30";
};
"Letterink-NibStyleId" = "1";
})
);
},
{
closed = 0;
nodes = (
(419,778,l,{
"Letterink-NibData" = {
MainAxisWidth = "20";
ValidForParentMainAxisWidth = "30";
};
"Letterink-NibStyleId" = "1";
}),
(427,746,o),
(489,688,o),
(517,659,cs,{
"Letterink-NibData" = {
MainAxisWidth = "20";
ValidForParentMainAxisWidth = "30";
};
"Letterink-NibStyleId" = "1";
})
);
}
);
};
layerId = m003;
shapes = (
{
closed = 1;
nodes = (
(129.505,492.695,o),
(206.556,539.205,o),
(176.573,589.177,cs),
(159.606,617.454,o),
(145.878,661.609,o),
(339.296,642.247,cs),
(468.275,629.335,o),
(516.645,669.556,o),
(541.157,676.966,c),
(524.191,699.48,o),
(507.225,721.995,o),
(490.26,744.509,c),
(399.894,607.909,o),
(376.092,483.465,o),
(356.438,334.263,cs),
(329.852,132.434,o),
(158.906,-545.321,o),
(138.74,-564.63,cs),
(136.911,-566.381,o),
(127.249,-589.051,o),
(142.89,-390.139,cs),
(155.988,-223.583,o),
(182.582,-123.647,o),
(362.164,-0.307,cs),
(385.191,15.509,o),
(444.31,17.494,o),
(513.69,82.089,cs),
(556.087,121.562,o),
(495.351,187.984,o),
(452.31,147.911,cs),
(405.69,104.506,o),
(369.301,113.774,o),
(311.836,74.307,cs),
(119.691,-57.662,o),
(66.9,-208.487,o),
(53.11,-383.861,cs),
(42.234,-522.165,o),
(74.012,-751.214,o),
(201.26,-629.37,cs),
(293.472,-541.074,o),
(416.26,99.288,o),
(445.562,321.737,cs),
(465.4,472.338,o),
(484.106,572.091,o),
(565.74,695.491,cs),
(588.07,729.246,o),
(555.703,775.387,o),
(514.843,763.034,cs),
(453.355,744.444,o),
(463.682,720.243,o),
(348.704,731.753,cs),
(110.048,755.644,o),
(32.394,654.546,o),
(99.427,542.823,cs)
);
}
);
width = 490;
}
);
unicode = 74;
},
{
glyphname = K;
lastChange = "2025-11-04 18:30:44 +0000";
layers = (
{
layerId = m002;
shapes = (
{
closed = 1;
nodes = (
(392.209,679.501,o),
(357.839,643.131,o),
(374.528,631.31,cs),
(455.137,574.213,o),
(691.197,612.791,o),
(818.67,705.179,c),
(811.84,712.01,o),
(805.01,718.84,o),
(798.179,725.67,c),
(673.999,555.184,o),
(528.822,136.49,o),
(505.637,85.627,cs),
(468.849,4.92,o),
(446.85,-11.366,o),
(392.371,-12.388,cs),
(236.925,-15.304,o),
(122.291,118.173,o),
(80.821,227.33,cs),
(64.296,270.824,o),
(74.351,327.71,o),
(74.832,327.891,cs),
(100.33,337.452,o),
(106.762,376.457,o),
(79.168,366.109,cs),
(31.649,348.29,o),
(32.752,220.853,o),
(41.179,198.67,cs),
(85.588,81.781,o),
(201.078,-56.85,o),
(373.629,-53.612,cs),
(423.151,-52.683,o),
(501.573,-3.113,o),
(542.363,86.373,cs),
(567.441,141.39,o),
(716.001,560.816,o),
(827.821,714.33,cs),
(842.962,735.117,o),
(827.604,749.514,o),
(807.33,734.821,cs),
(716.803,669.209,o),
(470.863,623.787,o),
(407.472,668.69,cs)
);
},
{
closed = 1;
nodes = (
(1003.349,641.055,o),
(969.745,646.32,o),
(954.12,619.499,cs),
(833.579,412.586,o),
(643.53,312.427,o),
(577.092,284.678,cs),
(575.893,284.178,o),
(536.104,277.384,o),
(537.31,277.384,cs),
(721.206,277.384,o),
(664.35,-4.616,o),
(840.31,-4.616,cs),
(931.387,-4.616,o),
(997.472,68.597,o),
(1046.821,136.33,cs),
(1065.653,162.178,o),
(1035.726,173.125,o),
(1017.179,147.67,cs),
(964.528,75.403,o),
(932.613,36.616,o),
(859.69,36.616,cs),
(713.65,36.616,o),
(766.794,318.616,o),
(556.69,318.616,cs),
(483.871,318.616,o),
(500.011,216.039,o),
(574.908,247.322,cs),
(648.302,277.976,o),
(854.421,385.414,o),
(987.88,614.501,cs)
);
}
);
width = 1010;
},
{
layerId = m003;
shapes = (
{
closed = 1;
nodes = (
(371.272,719.118,o),
(315.487,648.344,o),
(365.189,613.138,cs),
(472.199,537.339,o),
(696.18,579.756,o),
(839.45,683.594,c),
(818.498,704.546,o),
(797.546,725.498,o),
(776.594,746.45,c),
(652.029,575.437,o),
(504.673,152.091,o),
(483.216,105.018,cs),
(447.839,27.406,o),
(416.536,12.637,o),
(382.215,11.993,cs),
(246.613,9.449,o),
(140.818,129.613,o),
(103.011,229.127,cs),
(92.767,256.091,o),
(92.647,304.809,o),
(93.127,304.989,cs),
(146.562,325.027,o),
(116.741,409.961,o),
(60.873,389.011,cs),
(13.355,371.192,o),
(6.513,229.712,o),
(18.989,196.873,cs),
(67.061,70.341,o),
(191.39,-81.603,o),
(383.785,-77.993,cs),
(453.465,-76.686,o),
(522.583,-25.599,o),
(564.784,66.982,cs),
(591.59,125.789,o),
(737.971,540.563,o),
(849.406,693.55,cs),
(878.644,733.69,o),
(827.674,786.211,o),
(786.55,756.406,cs),
(711.82,702.244,o),
(453.801,660.661,o),
(416.811,686.862,cs)
);
},
{
closed = 1;
nodes = (
(1039.227,644.718,o),
(961.536,690.15,o),
(932.029,639.5,cs),
(812.353,434.072,o),
(622.675,334.261,o),
(558.417,307.423,cs),
(557.276,306.946,o),
(545.89,253,o),
(547,253,cs),
(689.816,253,o),
(627.537,-29,o),
(850,-29,cs),
(956.869,-29,o),
(1017.128,45.169,o),
(1068.406,115.55,cs),
(1102.308,162.083,o),
(1030.431,216.266,o),
(995.594,168.45,cs),
(944.872,98.831,o),
(907.131,61,o),
(850,61,cs),
(750.463,61,o),
(798.184,343,o),
(547,343,cs),
(442.504,343,o),
(489.403,181.065,o),
(593.583,224.577,cs),
(669.157,256.142,o),
(875.647,363.928,o),
(1009.971,594.5,cs)
);
}
);
width = 1010;
}
);
unicode = 75;
},
{
glyphname = L;
lastChange = "2025-11-04 18:30:44 +0000";
layers = (
{
layerId = m002;
shapes = (
{
closed = 1;
nodes = (
(220.203,568.176,o),
(185.384,532.254,o),
(201.105,519.626,cs),
(260.803,471.671,o),
(479.741,414.247,o),
(558.368,641.882,cs),
(606.067,779.976,o),
(483.365,840.719,o),
(434.187,670.701,cs),
(411.187,591.189,o),
(303.717,244.292,o),
(240.329,136.856,cs),
(168.433,15,o),
(121.929,22.374,o),
(109.239,74.984,cs),
(100.189,112.505,o),
(115.114,120.384,o),
(150.31,120.384,cs),
(213.831,120.384,o),
(281.785,-2.616,o),
(408.31,-2.616,cs),
(485.332,-2.616,o),
(545.47,69.051,o),
(565.88,104.501,cs),
(581.211,131.128,o),
(547.61,136.403,o),
(532.12,109.499,cs),
(514.53,78.949,o),
(482.668,38.616,o),
(427.69,38.616,cs),
(318.215,38.616,o),
(256.169,161.616,o),
(169.69,161.616,cs),
(103.686,161.616,o),
(51.017,122.583,o),
(68.761,49.016,cs),
(94.63,-58.239,o),
(199.328,5.141,o),
(273.671,131.144,cs),
(346.061,253.838,o),
(450.02,597.041,o),
(473.813,679.299,cs),
(499.369,767.648,o),
(557.013,744.341,o),
(519.632,636.118,cs),
(452.685,442.297,o),
(297.197,506.329,o),
(234.895,556.374,cs)
);
}
);
width = 590;
},
{
layerId = m003;
shapes = (
{
closed = 1;
nodes = (
(202.292,608.338,o),
(142.721,540.75,o),
(189.681,503.028,cs),
(261.361,445.449,o),
(494.237,371.573,o),
(581.548,624.349,cs),
(637.757,787.081,o),
(463.291,869.071,o),
(410.743,687.404,cs),
(388.427,610.251,o),
(278.816,259.529,o),
(218.427,157.177,cs),
(139.92,24.115,o),
(136.499,56.982,o),
(132.663,72.886,cs),
(129.235,87.099,o),
(147.689,96,o),
(160,96,cs),
(190.414,96,o),
(270.145,-27,o),
(418,-27,cs),
(512.277,-27,o),
(565.124,44.818,o),
(587.971,84.5,cs),
(616.959,134.848,o),
(539.288,180.318,o),
(510.029,129.5,cs),
(494.876,103.182,o),
(455.723,63,o),
(418,63,cs),
(329.855,63,o),
(279.586,186,o),
(160,186,cs),
(84.311,186,o),
(25.108,134.984,o),
(45.337,51.114,cs),
(80.059,-92.847,o),
(227.841,-3.974,o),
(295.573,110.823,cs),
(370.963,238.602,o),
(472.781,577.978,o),
(497.257,662.596,cs),
(519.442,739.296,o),
(525.323,737.237,o),
(496.452,653.651,cs),
(438.188,484.971,o),
(296.639,532.551,o),
(246.319,572.972,cs)
);
}
);
width = 590;
}
);
unicode = 76;
},
{
glyphname = M;
lastChange = "2025-11-04 18:30:44 +0000";
layers = (
{
layerId = m002;
shapes = (
{
closed = 1;
nodes = (
(-61.842,-226.93,o),
(-21.981,-217.581,o),
(-14.289,-192.054,cs),
(84.044,134.28,o),
(182.378,460.613,o),
(280.711,786.946,c),
(267.295,781.885,o),
(253.878,776.823,o),
(240.462,771.761,c),
(268.352,489.874,o),
(255.342,222.568,o),
(266.412,32.371,cs),
(267.78,8.86,o),
(299.892,32.337,o),
(304.847,42.294,cs),
(410.814,255.236,o),
(513.678,518.499,o),
(651.671,749.144,c),
(639.369,748.083,o),
(627.067,747.021,o),
(614.766,745.96,c),
(537.021,341.688,o),
(452.327,-22.616,o),
(571.31,-22.616,cs),
(634.646,-22.616,o),
(709.925,42.649,o),
(762.05,110.301,cs),
(781.339,135.335,o),
(753.756,149.406,o),
(733.95,123.699,cs),
(692.075,69.351,o),
(623.354,18.616,o),
(590.69,18.616,cs),
(510.754,18.616,o),
(571.977,325.103,o),
(655.234,758.04,cs),
(660.591,785.896,o),
(624.717,765.533,o),
(618.329,754.856,cs),
(476.322,517.501,o),
(373.186,252.764,o),
(269.153,43.706,c),
(281.965,47.014,o),
(294.776,50.321,o),
(307.588,53.629,c),
(296.658,241.432,o),
(309.648,510.126,o),
(281.538,794.239,cs),
(279.084,819.047,o),
(244.494,789.69,o),
(241.289,779.054,cs),
(142.956,452.72,o),
(44.622,126.387,o),
(-53.711,-199.946,cs)
);
}
);
width = 746;
},
{
layerId = m003;
shapes = (
{
closed = 1;
nodes = (
(-93.586,-237.773,o),
(-8.091,-265.989,o),
(9.034,-209.157,cs),
(107.367,117.177,o),
(205.7,443.51,o),
(304.034,769.843,c),
(274.771,772.661,o),
(245.509,775.479,o),
(216.247,778.296,c),
(243.821,499.595,o),
(230.902,232.384,o),
(242.062,40.645,cs),
(244.667,-4.119,o),
(306.604,-18.608,o),
(327.446,23.273,cs),
(433.962,237.32,o),
(536.064,498.987,o),
(673.573,728.823,c),
(645.991,739.411,o),
(618.409,749.999,o),
(590.827,760.586,c),
(520.432,394.534,o),
(402.585,-47,o),
(581,-47,cs),
(661.103,-47,o),
(729.058,18.687,o),
(783.46,89.295,cs),
(818.794,135.154,o),
(748.45,191.312,o),
(712.54,144.705,cs),
(672.942,93.313,o),
(596.897,43,o),
(581,43,cs),
(560.352,43,o),
(588.566,272.256,o),
(679.173,743.414,cs),
(688.379,791.282,o),
(622.076,818.046,o),
(596.427,775.177,cs),
(453.936,537.013,o),
(350.038,270.68,o),
(246.554,62.727,c),
(275.016,56.936,o),
(303.477,51.146,o),
(331.938,45.355,c),
(321.098,231.616,o),
(334.179,500.405,o),
(305.753,787.704,cs),
(301.082,834.916,o),
(232.02,842.795,o),
(217.966,796.157,cs),
(119.633,469.823,o),
(21.3,143.49,o),
(-77.034,-182.843,cs)
);
}
);
width = 746;
}
);
unicode = 77;
},
{
glyphname = N;
lastChange = "2025-11-04 18:30:44 +0000";
layers = (
{
layerId = m002;
shapes = (
{
closed = 1;
nodes = (
(264.619,575.255,o),
(226.174,570.319,o),
(216.632,543.118,cs),
(148.921,350.09,o),
(84.966,84.643,o),
(70.54,-18.4,cs),
(66.937,-44.136,o),
(108.068,-27.832,o),
(111.46,-3.6,cs),
(125.034,93.357,o),
(189.079,359.91,o),
(255.368,548.882,cs)
);
},
{
closed = 1;
nodes = (
(190.905,592.245,o),
(231.851,606.912,o),
(236.3,631.383,cs),
(236.36,631.714,o),
(211.538,611.33,o),
(213.018,608.971,cs),
(314.543,447.11,o),
(403.748,122.298,o),
(412.434,18.064,cs),
(414.652,-8.551,o),
(452.255,24.918,o),
(453.501,36.735,cs),
(482.197,308.854,o),
(570.698,534.879,o),
(598.36,695.724,cs),
(602.784,721.448,o),
(561.98,707.51,o),
(557.64,682.276,cs),
(531.302,529.121,o),
(441.803,299.146,o),
(412.499,21.265,c),
(426.188,27.489,o),
(439.877,33.712,o),
(453.566,39.936,c),
(444.252,151.702,o),
(355.601,474.235,o),
(250.982,641.029,cs),
(240.589,657.598,o),
(201.64,651.286,o),
(195.7,618.617,cs)
);
}
);
width = 590;
},
{
layerId = m003;
shapes = (
{
closed = 1;
nodes = (
(297.497,585.368,o),
(213.317,617.283,o),
(193.452,560.651,cs),
(125.501,366.941,o),
(61.167,100.473,o),
(46.438,-4.737,cs),
(38.481,-61.57,o),
(127.334,-76.033,o),
(135.562,-17.263,cs),
(148.833,77.527,o),
(212.499,343.059,o),
(278.548,531.349,cs)
);
},
{
closed = 1;
nodes = (
(161.35,575.977,o),
(249.768,559.17,o),
(260.316,617.186,cs),
(260.376,617.516,o),
(193.63,601.485,o),
(193.838,601.154,cs),
(290.092,447.697,o),
(380.186,120.899,o),
(388.171,25.078,cs),
(392.568,-27.687,o),
(472.13,-29.034,o),
(477.753,24.296,cs),
(506.026,292.395,o),
(594.104,517.136,o),
(622.316,681.186,cs),
(632.013,737.568,o),
(543.859,755.981,o),
(533.684,696.814,cs),
(507.896,546.864,o),
(417.974,315.605,o),
(388.247,33.704,c),
(418.107,33.443,o),
(447.968,33.183,o),
(477.829,32.922,c),
(467.814,153.101,o),
(380.053,473.648,o),
(270.162,648.846,cs),
(249.587,681.65,o),
(177.623,665.483,o),
(171.684,632.814,cs)
);
}
);
width = 590;
}
);
unicode = 78;
},
{
glyphname = O;
lastChange = "2025-11-04 18:30:44 +0000";
layers = (
{
layerId = m002;
shapes = (
{
closed = 1;
nodes = (
(474.662,520.296,o),
(515.531,544.978,o),
(513.538,566.239,cs),
(506.976,636.233,o),
(455.685,685.616,o),
(376.69,685.616,cs),
(235.622,685.616,o),
(132.867,492.676,o),
(98.587,248.937,cs),
(76.327,90.665,o),
(139.758,-26.616,o),
(247.31,-26.616,cs),
(461.37,-26.616,o),
(618.241,128.77,o),
(653.413,379.063,cs),
(682.957,589.301,o),
(611.324,743.616,o),
(517.69,743.616,cs),
(385.559,743.616,o),
(317.181,621.587,o),
(346.695,490.298,cs),
(351.572,468.605,o),
(391.899,495.267,o),
(387.305,515.702,cs),
(358.456,644.029,o),
(408.286,702.384,o),
(498.31,702.384,cs),
(608.676,702.384,o),
(640.941,566.713,o),
(612.587,364.937,cs),
(582.72,152.395,o),
(446.021,14.616,o),
(266.69,14.616,cs),
(168.242,14.616,o),
(118.617,115.202,o),
(139.413,263.063,cs),
(172.613,499.116,o),
(274.378,644.384,o),
(357.31,644.384,cs),
(416.315,644.384,o),
(467.024,601.767,o),
(472.462,543.761,cs)
);
}
);
width = 667;
},
{
layerId = m003;
shapes = (
{
closed = 1;
nodes = (
(453.609,493.081,o),
(543.287,500.696,o),
(537.829,558.922,cs),
(529.669,645.963,o),
(441.896,710,o),
(367,710,cs),
(198.99,710,o),
(108.062,501.336,o),
(74.438,262.263,cs),
(51.709,100.655,o),
(130.057,-51,o),
(257,-51,cs),
(473.141,-51,o),
(644.532,130.685,o),
(677.562,365.737,cs),
(705.736,566.232,o),
(664.908,768,o),
(508,768,cs),
(366.339,768,o),
(284.761,663.655,o),
(323.153,492.877,cs),
(335.98,435.821,o),
(423.624,456.287,o),
(410.847,513.123,cs),
(391.239,600.345,o),
(427.661,678,o),
(508,678,cs),
(554.777,678,o),
(618.566,592.657,o),
(588.438,378.263,cs),
(559.359,171.33,o),
(418.859,39,o),
(257,39,cs),
(177.943,39,o),
(143.235,105.212,o),
(163.562,249.737,cs),
(197.61,491.824,o),
(299.317,620,o),
(367,620,cs),
(430.104,620,o),
(444.331,592.037,o),
(448.171,551.078,cs)
);
}
);
width = 667;
}
);
unicode = 79;
},
{
glyphname = P;
lastChange = "2025-11-04 18:30:44 +0000";
layers = (
{
layerId = m002;
shapes = (
{
closed = 1;
nodes = (
(574.371,493.648,o),
(533.142,474.766,o),
(532.397,450.951,cs),
(531.456,420.837,o),
(525.003,360.142,o),
(510.512,315.762,cs),
(494.729,267.427,o),
(451.157,149.914,o),
(420.766,-2.04,cs),
(415.454,-28.598,o),
(456.332,-14.471,o),
(461.234,10.04,cs),
(490.843,158.086,o),
(533.271,272.573,o),
(549.488,322.238,cs),
(566.997,375.858,o),
(572.544,435.163,o),
(573.603,469.049,cs)
);
},
{
closed = 1;
nodes = (
(121.181,340.802,o),
(155.647,376.991,o),
(141.297,390.037,cs),
(134.201,396.487,o),
(124.268,426.669,o),
(124.612,446.371,cs),
(126.525,555.812,o),
(374.444,686.384,o),
(703.31,686.384,cs),
(787.757,686.384,o),
(856.37,616.015,o),
(853.397,541.951,cs),
(849.309,440.094,o),
(725.431,330.616,o),
(502.69,330.616,cs),
(418.694,330.616,o),
(360.984,351.848,o),
(357.006,363.804,cs),
(355.978,366.897,o),
(359.991,380.806,o),
(389.987,394.804,cs),
(416.059,406.971,o),
(417.473,444.011,o),
(390.013,431.196,cs),
(360.009,417.194,o),
(304.247,374.513,o),
(316.994,336.196,cs),
(331.522,292.522,o),
(397.78,289.384,o),
(483.31,289.384,cs),
(654.569,289.384,o),
(888.5,407.993,o),
(894.603,560.049,cs),
(898.331,652.954,o),
(823.49,727.616,o),
(722.69,727.616,cs),
(416.236,727.616,o),
(86.538,607.878,o),
(83.388,427.629,cs),
(82.894,399.345,o),
(91.799,367.513,o),
(106.703,353.963,cs)
);
}
);
width = 800;
},
{
layerId = m003;
shapes = (
{
closed = 1;
nodes = (
(599.765,515.791,o),
(509.897,521.403,o),
(508.027,461.57,cs),
(507.121,432.561,o),
(501.157,375.643,o),
(487.202,332.906,cs),
(471.732,285.526,o),
(427.417,165.537,o),
(396.827,12.586,cs),
(385.462,-44.235,o),
(473.644,-62.234,o),
(485.173,-4.586,cs),
(514.583,142.463,o),
(556.268,254.474,o),
(572.798,305.094,cs),
(590.843,360.357,o),
(596.879,423.439,o),
(597.973,458.43,cs)
);
},
{
closed = 1;
nodes = (
(136.106,300.179,o),
(198.269,365.298,o),
(154.111,405.442,cs),
(145.695,413.092,o),
(148.364,400.223,o),
(148.993,436.215,cs),
(150.906,545.656,o),
(384.134,662,o),
(713,662,cs),
(781.093,662,o),
(831.546,615.33,o),
(829.027,552.57,cs),
(825.129,455.438,o),
(682.184,355,o),
(493,355,cs),
(393.371,355,o),
(380.099,362.999,o),
(379.798,363.906,cs),
(379.59,364.529,o),
(364.015,351.215,o),
(409.018,372.216,cs),
(461.506,396.711,o),
(424.277,478.655,o),
(370.982,453.784,cs),
(344.455,441.404,o),
(273.747,397.586,o),
(294.202,336.094,cs),
(315.25,272.824,o),
(418.834,265,o),
(493,265,cs),
(716.12,265,o),
(911.329,358.984,o),
(918.973,549.43,cs),
(923.911,672.479,o),
(846.508,752,o),
(713,752,cs),
(398.65,752,o),
(62.757,652.364,o),
(59.007,437.785,cs),
(58.283,396.389,o),
(61.637,367.879,o),
(93.889,338.558,cs)
);
}
);
width = 800;
}
);
unicode = 80;
},
{
glyphname = Q;
lastChange = "2025-11-04 18:30:44 +0000";
layers = (
{
layerId = m002;
shapes = (
{
closed = 1;
nodes = (
(501.34,550.738,o),
(540.655,580.318,o),
(533.916,599.069,cs),
(509.28,667.624,o),
(451.021,685.616,o),
(380.69,685.616,cs),
(238.474,685.616,o),
(119.069,491.334,o),
(70.766,249.96,cs),
(38.887,90.661,o),
(98.711,-26.616,o),
(208.31,-26.616,cs),
(387.054,-26.616,o),
(604.235,175.546,o),
(645.234,378.04,cs),
(687.705,587.801,o),
(632.214,743.616,o),
(527.69,743.616,cs),
(395.956,743.616,o),
(316.986,626.317,o),
(328.434,492.064,cs),
(330.42,468.77,o),
(371.46,491.725,o),
(369.566,513.936,cs),
(358.876,639.299,o),
(410.616,702.384,o),
(508.31,702.384,cs),
(611.786,702.384,o),
(645.736,568.312,o),
(604.766,365.96,cs),
(569.252,190.557,o),
(378.946,14.616,o),
(227.69,14.616,cs),
(127.289,14.616,o),
(81.924,115.577,o),
(111.234,262.04,cs),
(159.063,501.04,o),
(271.526,644.384,o),
(361.31,644.384,cs),
(430.979,644.384,o),
(472.72,630.376,o),
(494.084,570.931,cs)
);
},
{
closed = 1;
nodes = (
(388.616,366.763,o),
(347.384,346.874,o),
(347.384,323.31,cs),
(347.384,201.218,o),
(408.102,55.59,o),
(499.51,-30.86,cs),
(522.255,-52.371,o),
(556.108,-64.616,o),
(592.31,-64.616,cs),
(615.053,-64.616,o),
(636.173,-23.384,o),
(611.69,-23.384,cs),
(583.892,-23.384,o),
(552.885,-12.538,o),
(534.49,4.86,cs),
(448.185,86.484,o),
(388.616,230.782,o),
(388.616,342.69,cs)
);
}
);
width = 700;
},
{
layerId = m003;
shapes = (
{
closed = 1;
nodes = (
(491.069,515.752,o),
(576.41,544.394,o),
(556.286,600.391,cs),
(525.306,686.597,o),
(436.021,710,o),
(371,710,cs),
(209.382,710,o),
(99.56,528.097,o),
(46.827,264.586,cs),
(14.954,105.317,o),
(70.834,-51,o),
(218,-51,cs),
(415.356,-51,o),
(621.979,130.321,o),
(669.173,363.414,cs),
(709.418,562.182,o),
(679.981,768,o),
(518,768,cs),
(346.99,768,o),
(291.713,645.182,o),
(304.171,499.078,cs),
(309.124,441,o),
(398.795,448.686,o),
(393.829,506.922,cs),
(384.339,618.211,o),
(430.78,678,o),
(518,678,cs),
(564.015,678,o),
(624.246,595.033,o),
(580.827,380.586,cs),
(551.508,235.783,o),
(350.644,39,o),
(218,39,cs),
(155.166,39,o),
(105.857,100.921,o),
(135.173,247.414,cs),
(178.572,464.277,o),
(300.618,620,o),
(371,620,cs),
(445.979,620,o),
(456.694,611.403,o),
(471.714,569.609,cs)
);
},
{
closed = 1;
nodes = (
(413,390.049,o),
(323,393.201,o),
(323,333,cs),
(323,201.569,o),
(385.355,49.568,o),
(486.31,-45.911,cs),
(516.826,-74.772,o),
(559.921,-89,o),
(602,-89,cs),
(659.568,-89,o),
(661.165,1,o),
(602,1,cs),
(580.079,1,o),
(558.314,9.863,o),
(547.69,19.911,cs),
(470.932,92.506,o),
(413,230.431,o),
(413,333,cs)
);
}
);
width = 700;
}
);
unicode = 81;
},
{
glyphname = R;
lastChange = "2025-11-04 18:30:44 +0000";
layers = (
{
layerId = m002;
shapes = (
{
closed = 1;
nodes = (
(252.341,648.306,o),
(211.362,624.806,o),
(213.462,602.761,cs),
(226.869,461.987,o),
(146.688,156.302,o),
(80.524,33.425,cs),
(66.051,6.547,o),
(101.234,4.126,o),
(115.476,30.575,cs),
(189.312,167.698,o),
(269.131,472.013,o),
(254.538,625.239,cs)
);
},
{
closed = 1;
nodes = (
(92.762,396.744,o),
(133.865,419.276,o),
(132.588,441.629,cs),
(126.467,548.742,o),
(306.615,619.384,o),
(466.31,619.384,cs),
(507.435,619.384,o),
(525.384,585.523,o),
(525.384,554.31,cs),
(525.384,409.373,o),
(305.456,265.616,o),
(215.69,265.616,cs),
(193.259,265.616,o),
(161.229,240.384,o),
(192.31,240.384,cs),
(230.512,240.384,o),
(337.826,3.384,o),
(461.31,3.384,cs),
(546.098,3.384,o),
(609.904,82.327,o),
(633.084,123.858,cs),
(647.958,150.508,o),
(614.021,155.204,o),
(598.916,128.142,cs),
(574.096,83.673,o),
(545.902,44.616,o),
(480.69,44.616,cs),
(380.174,44.616,o),
(277.488,281.616,o),
(211.69,281.616,cs),
(176.771,281.616,o),
(126.741,224.384,o),
(196.31,224.384,cs),
(316.544,224.384,o),
(566.616,422.627,o),
(566.616,573.69,cs),
(566.616,618.477,o),
(538.565,660.616,o),
(485.69,660.616,cs),
(356.644,660.616,o),
(81.377,595.992,o),
(91.412,420.371,cs)
);
}
);
width = 614;
},
{
layerId = m003;
shapes = (
{
closed = 1;
nodes = (
(273.356,675.389,o),
(183.528,669.332,o),
(189.171,610.078,cs),
(201.483,480.805,o),
(121.548,170.647,o),
(58.267,53.126,cs),
(30.879,2.262,o),
(109.776,-41.045,o),
(137.733,10.874,cs),
(214.452,153.353,o),
(294.517,453.195,o),
(278.829,617.922,cs)
);
},
{
closed = 1;
nodes = (
(70.314,371.73,o),
(160.345,373.742,o),
(156.938,433.355,cs),
(152.258,515.269,o),
(329.473,595,o),
(476,595,cs),
(500.885,595,o),
(501,577.447,o),
(501,564,cs),
(501,450.66,o),
(288.822,290,o),
(206,290,cs),
(193.76,290,o),
(199.654,216,o),
(202,216,cs),
(203.56,216,o),
(306.36,-21,o),
(471,-21,cs),
(573.626,-21,o),
(628.363,55.818,o),
(655.358,104.184,cs),
(683.339,154.316,o),
(605.81,200.075,o),
(576.642,147.816,cs),
(555.637,110.182,o),
(518.374,69,o),
(471,69,cs),
(402.92,69,o),
(311.826,306,o),
(202,306,cs),
(138.346,306,o),
(126.24,200,o),
(206,200,cs),
(332.302,200,o),
(591,380.03,o),
(591,564,cs),
(591,626.553,o),
(545.115,685,o),
(476,685,cs),
(341.303,685,o),
(55.061,638.657,o),
(67.062,428.645,cs)
);
}
);
width = 614;
}
);
unicode = 82;
},
{
glyphname = S;
lastChange = "2025-11-04 18:30:44 +0000";
layers = (
{
layerId = m002;
shapes = (
{
closed = 1;
nodes = (
(489.333,430.051,o),
(529.816,442.199,o),
(535.162,467.695,cs),
(588.297,721.109,o),
(438.715,776.428,o),
(343.318,666.373,cs),
(218.524,522.404,o),
(332.025,359.382,o),
(409.747,307.161,cs),
(507.725,241.33,o),
(539.287,104.095,o),
(472.483,32.667,cs),
(423.369,-19.846,o),
(325.19,-34.355,o),
(189.209,125.098,cs),
(32.995,308.276,o),
(48.815,394.004,o),
(166.413,344.281,cs),
(184.711,336.545,o),
(214.934,375.538,o),
(195.587,383.719,cs),
(15.185,459.996,o),
(10.727,257.488,o),
(152.791,90.902,cs),
(262.581,-37.839,o),
(400.614,-88.138,o),
(495.517,13.333,cs),
(600.239,125.302,o),
(538.724,280.02,o),
(442.253,344.839,cs),
(329.817,420.383,o),
(283.609,551.482,o),
(368.682,649.627,cs),
(415.375,703.494,o),
(545.703,698.891,o),
(494.838,456.305,cs)
);
}
);
width = 620;
},
{
layerId = m003;
shapes = (
{
closed = 1;
nodes = (
(459.063,414.503,o),
(546.982,395.247,o),
(559.017,452.644,cs),
(614.304,716.323,o),
(434.728,817.528,o),
(322.038,687.523,cs),
(191.619,537.065,o),
(285.98,365.864,o),
(400.836,288.693,cs),
(480.878,234.914,o),
(526.904,134.752,o),
(451.089,53.69,cs),
(395.996,-5.216,o),
(322.247,-0.007,o),
(205.472,136.925,cs),
(48.705,320.752,o),
(89.556,353.807,o),
(163.417,322.577,cs),
(217.254,299.814,o),
(252.267,382.724,o),
(198.583,405.423,cs),
(-25.556,500.193,o),
(-4.982,245.012,o),
(136.528,79.075,cs),
(264.417,-70.89,o),
(408.892,-123.185,o),
(516.911,-7.69,cs),
(615.075,97.268,o),
(564.962,286.847,o),
(451.164,363.307,cs),
(375.862,413.901,o),
(310.513,536.821,o),
(389.962,628.477,cs),
(419.362,662.395,o),
(519.696,703.677,o),
(470.983,471.356,cs)
);
}
);
width = 620;
}
);
unicode = 83;
},
{
glyphname = T;
lastChange = "2025-11-04 18:30:44 +0000";
layers = (
{
layerId = m002;
shapes = (
{
closed = 1;
nodes = (
(36.93,671.835,o),
(15.481,630.514,o),
(40.951,631.397,cs),
(215.197,637.441,o),
(293.005,665.384,o),
(355.31,665.384,cs),
(432.454,665.384,o),
(477.204,662.524,o),
(599.872,640.583,cs),
(620.656,636.866,o),
(646.515,677.413,o),
(624.128,681.417,cs),
(500.796,703.476,o),
(453.546,706.616,o),
(374.69,706.616,cs),
(300.995,706.616,o),
(230.803,678.559,o),
(59.049,672.603,cs)
);
},
{
closed = 1;
nodes = (
(331.627,667.735,o),
(290.684,652.754,o),
(287.54,627.6,cs),
(267.847,470.062,o),
(177.861,139.456,o),
(162.499,4.265,cs),
(159.598,-21.264,o),
(200.751,-4.464,o),
(203.501,19.735,cs),
(218.139,148.544,o),
(308.153,479.938,o),
(328.46,642.4,cs)
);
}
);
width = 407;
},
{
layerId = m003;
shapes = (
{
closed = 1;
nodes = (
(-8.748,694.99,o),
(-7.911,604.964,o),
(51.57,607.027,cs),
(227.585,613.132,o),
(310.456,641,o),
(365,641,cs),
(442.724,641,o),
(480.256,638.85,o),
(604.186,616.684,cs),
(661.04,606.515,o),
(677.872,694.932,o),
(619.814,705.316,cs),
(497.744,727.15,o),
(443.276,731,o),
(365,731,cs),
(283.544,731,o),
(218.415,702.868,o),
(48.43,696.973,cs)
);
},
{
closed = 1;
nodes = (
(359.698,685.782,o),
(270.845,700.561,o),
(263.335,640.484,cs),
(244.033,486.062,o),
(154.073,155.981,o),
(138.247,16.704,cs),
(131.803,-40.003,o),
(221.017,-51.986,o),
(227.753,7.296,cs),
(241.927,132.019,o),
(331.967,463.938,o),
(352.665,629.516,cs)
);
}
);
width = 407;
}
);
unicode = 84;
},
{
glyphname = U;
lastChange = "2025-11-04 18:30:44 +0000";
layers = (
{
layerId = m002;
shapes = (
{
closed = 1;
nodes = (
(237.609,656.535,o),
(198.132,648.457,o),
(190.289,622.054,cs),
(129.894,418.723,o),
(101.593,275.34,o),
(99.388,159.629,cs),
(95.455,-46.758,o),
(265.934,-53.22,o),
(388.568,112.985,cs),
(468.766,221.677,o),
(511.752,448.179,o),
(570.368,617.882,cs),
(579.835,645.291,o),
(581.099,639.384,o),
(581.31,639.384,cs),
(604.053,639.384,o),
(625.173,680.616,o),
(600.69,680.616,cs),
(579.901,680.616,o),
(548.204,660.096,o),
(531.632,612.118,cs),
(472.751,441.648,o),
(421.018,208.483,o),
(359.432,125.015,cs),
(269.742,3.459,o),
(137.075,-7.252,o),
(140.612,178.371,cs),
(142.713,288.655,o),
(170.106,429.277,o),
(229.711,629.946,cs)
);
}
);
width = 540;
},
{
layerId = m003;
shapes = (
{
closed = 1;
nodes = (
(269.218,667.331,o),
(184.161,697.044,o),
(166.966,639.157,cs),
(106.114,434.288,o),
(77.285,289.362,o),
(75.007,169.785,cs),
(70.359,-74.146,o),
(284.677,-77.85,o),
(410.406,92.55,cs),
(492.279,203.513,o),
(535.974,433.662,o),
(593.548,600.349,cs),
(603.269,628.493,o),
(590.789,615,o),
(591,615,cs),
(648.568,615,o),
(650.165,705,o),
(591,705,cs),
(570.211,705,o),
(521.493,667.407,o),
(508.452,629.651,cs),
(448.529,456.165,o),
(397.504,226.647,o),
(337.594,145.45,cs),
(251,28.089,o),
(162.172,20.136,o),
(164.993,168.215,cs),
(167.021,274.632,o),
(193.886,413.712,o),
(253.034,612.843,cs)
);
}
);
width = 540;
}
);
unicode = 85;
},
{
glyphname = V;
lastChange = "2025-11-04 18:30:44 +0000";
layers = (
{
layerId = m002;
shapes = (
{
closed = 1;
nodes = (
(151.363,732.039,o),
(110.251,715.479,o),
(108.436,690.603,cs),
(81.266,318.285,o),
(146.96,198.372,o),
(176.537,3.165,cs),
(179.699,-17.708,o),
(208.393,2.852,o),
(214.084,12.858,cs),
(367.49,282.573,o),
(495.787,549.574,o),
(623.607,677.393,cs),
(646.221,700.008,o),
(625.636,721.849,o),
(602.393,698.607,cs),
(456.213,552.426,o),
(332.51,285.427,o),
(179.916,17.142,c),
(192.432,20.373,o),
(204.948,23.604,o),
(217.463,26.835,c),
(187.04,227.628,o),
(122.734,339.715,o),
(149.564,707.397,cs)
);
}
);
width = 480;
},
{
layerId = m003;
shapes = (
{
closed = 1;
nodes = (
(178.094,753.472,o),
(88.44,761.48,o),
(84.11,702.139,cs),
(56.681,326.266,o),
(123.796,197.762,o),
(152.554,7.96,cs),
(158.674,-32.432,o),
(214.855,-44.626,o),
(235.971,-7.5,cs),
(389.965,263.247,o),
(517.421,528.781,o),
(644.82,656.18,cs),
(685.526,696.887,o),
(623.016,761.656,o),
(581.18,719.82,cs),
(434.579,573.219,o),
(310.035,304.753,o),
(158.029,37.5,c),
(185.835,32.347,o),
(213.64,27.193,o),
(241.446,22.04,c),
(210.204,228.238,o),
(147.319,331.734,o),
(173.89,695.861,cs)
);
}
);
width = 480;
}
);
unicode = 86;
},
{
glyphname = W;
lastChange = "2025-11-04 18:30:44 +0000";
layers = (
{
layerId = m002;
shapes = (
{
closed = 1;
nodes = (
(213.35,714.331,o),
(174.904,709.418,o),
(165.632,682.118,cs),
(111.964,524.094,o),
(37.384,354.57,o),
(37.384,215.31,cs),
(37.384,8.603,o),
(121.874,-28.841,o),
(226.701,62.604,cs),
(286.904,115.122,o),
(337.469,161.003,o),
(393.785,232.961,c),
(383.065,229.676,o),
(372.345,226.391,o),
(361.626,223.105,c),
(436.39,129.144,o),
(562.57,-35.616,o),
(654.31,-35.616,cs),
(748.135,-35.616,o),
(781.499,106.079,o),
(782.612,197.371,cs),
(784.125,321.442,o),
(780.318,525.396,o),
(631.374,716.895,cs),
(619.582,732.057,o),
(582.375,698.856,o),
(594.626,683.105,cs),
(739.682,496.604,o),
(742.875,300.57,o),
(741.388,178.629,cs),
(739.501,23.934,o),
(703.865,5.616,o),
(673.69,5.616,cs),
(613.43,5.616,o),
(471.61,164.856,o),
(398.374,256.895,cs),
(391.43,265.622,o),
(376.002,259.544,o),
(366.215,247.039,cs),
(314.531,180.997,o),
(268.758,139.265,o),
(209.299,87.396,cs),
(149.663,35.373,o),
(78.616,29.397,o),
(78.616,234.69,cs),
(78.616,361.43,o),
(150.036,527.906,o),
(204.368,687.882,cs)
);
}
);
width = 830;
},
{
layerId = m003;
shapes = (
{
closed = 1;
nodes = (
(245.946,724.521,o),
(161.758,756.497,o),
(142.452,699.651,cs),
(88.772,541.595,o),
(13,373.958,o),
(13,225,cs),
(13,15.958,o),
(115.925,-73.76,o),
(247.523,41.038,cs),
(307.744,93.572,o),
(358.958,140.098,o),
(415.46,212.295,c),
(391.983,212.09,o),
(368.506,211.885,o),
(345.028,211.681,c),
(421.925,115.041,o),
(524.817,-60,o),
(664,-60,cs),
(779.791,-60,o),
(805.566,70.16,o),
(806.993,187.215,cs),
(808.514,311.922,o),
(804.741,526.773,o),
(648.46,727.705,cs),
(614.32,771.599,o),
(540.033,720.518,o),
(577.54,672.295,cs),
(715.259,495.227,o),
(718.486,310.09,o),
(717.007,188.785,cs),
(715.308,49.484,o),
(677.258,30,o),
(664,30,cs),
(651.183,30,o),
(486.075,178.959,o),
(414.972,268.319,cs),
(397.606,290.143,o),
(364.485,293.191,o),
(344.54,267.705,cs),
(293.042,201.902,o),
(247.918,160.815,o),
(188.477,108.962,cs),
(155.612,80.292,o),
(103,22.042,o),
(103,225,cs),
(103,342.042,o),
(173.228,510.405,o),
(227.548,670.349,cs)
);
}
);
width = 830;
}
);
unicode = 87;
},
{
glyphname = X;
lastChange = "2025-11-04 18:30:44 +0000";
layers = (
{
layerId = m002;
shapes = (
{
closed = 1;
nodes = (
(205.166,734.236,o),
(164.341,709.874,o),
(167.537,688.165,cs),
(201.614,456.637,o),
(266.696,140.992,o),
(452.322,-47.678,cs),
(465.71,-61.285,o),
(498.861,-28.434,o),
(488.69,-13.528,cs),
(193.421,419.194,o),
(280.182,250.285,o),
(585.821,675.33,cs),
(595.017,688.12,o),
(590.658,696.698,o),
(588.678,698.678,cs),
(588.011,699.344,o),
(587.344,700.011,o),
(586.678,700.678,cs),
(586.535,700.82,o),
(559.13,696.779,o),
(552.763,686.567,cs),
(344.868,353.15,o),
(111.99,206.157,o),
(-32.682,37.373,cs),
(-53.647,12.914,o),
(-28.372,-3.936,o),
(-7.318,20.627,cs),
(124.01,173.843,o),
(369.132,332.85,o),
(585.237,679.433,c),
(573.932,674.729,o),
(562.627,670.026,o),
(551.322,665.322,c),
(551.989,664.656,o),
(552.656,663.989,o),
(553.322,663.322,c),
(554.275,671.105,o),
(555.227,678.887,o),
(556.179,686.67,c),
(303.818,335.715,o),
(166.579,370.806,o),
(451.31,-46.472,c),
(463.433,-35.089,o),
(475.555,-23.706,o),
(487.678,-12.322,c),
(307.304,171.008,o),
(242.386,481.363,o),
(208.463,711.835,cs)
);
}
);
width = 530;
},
{
layerId = m003;
shapes = (
{
closed = 1;
nodes = (
(224.233,762.854,o),
(134.695,753.137,o),
(143.438,693.737,cs),
(177.934,459.365,o),
(240.146,139.461,o),
(438.18,-61.82,cs),
(475.323,-99.572,o),
(537.492,-49.074,o),
(507.307,-4.836,cs),
(222.319,412.818,o),
(312.782,244.822,o),
(607.406,654.55,cs),
(618.809,670.407,o),
(604.8,710.84,o),
(602.82,712.82,cs),
(602.153,713.486,o),
(601.486,714.153,o),
(600.82,714.82,cs),
(600.31,715.33,o),
(549.005,735.983,o),
(530.838,706.846,cs),
(323.239,373.905,o),
(90.826,227.442,o),
(-53.962,58.523,cs),
(-91.985,14.162,o),
(-23.984,-44.793,o),
(13.962,-0.523,cs),
(145.174,152.558,o),
(390.761,312.095,o),
(607.162,659.154,c),
(583.835,656.496,o),
(560.508,653.838,o),
(537.18,651.18,c),
(537.847,650.514,o),
(538.514,649.847,o),
(539.18,649.18,c),
(537.652,668.604,o),
(536.123,688.027,o),
(534.594,707.45,c),
(271.278,341.262,o),
(137.396,377.6,o),
(432.693,-55.164,c),
(455.735,-36.169,o),
(478.778,-17.175,o),
(501.82,1.82,c),
(333.854,172.539,o),
(266.066,478.635,o),
(232.562,706.263,cs)
);
}
);
width = 530;
}
);
unicode = 88;
},
{
glyphname = Y;
lastChange = "2025-11-04 18:30:44 +0000";
layers = (
{
layerId = m002;
shapes = (
{
closed = 1;
nodes = (
(165.032,712.792,o),
(123.816,692.429,o),
(124.387,668.994,cs),
(144.432,-152.832,o),
(284.822,-321.715,o),
(646.095,694.87,c),
(638.973,692.207,o),
(631.85,689.544,o),
(624.728,686.881,c),
(628.395,684.881,o),
(632.061,682.881,o),
(635.728,680.881,c),
(633.3,686.463,o),
(630.873,692.046,o),
(628.446,697.629,c),
(519.126,245.166,o),
(483.382,-52.331,o),
(90.318,-506.627,cs),
(69.235,-530.994,o),
(94.519,-547.833,o),
(115.682,-523.373,cs),
(518.618,-57.669,o),
(550.874,248.834,o),
(657.554,690.371,cs),
(659.107,696.797,o),
(655.847,704.078,o),
(650.272,707.119,cs),
(646.605,709.119,o),
(642.939,711.119,o),
(639.272,713.119,cs),
(631.468,717.376,o),
(621.385,714.924,o),
(617.905,705.13,cs),
(259.178,-304.285,o),
(185.568,-129.168,o),
(165.613,689.006,cs)
);
}
);
width = 630;
},
{
layerId = m003;
shapes = (
{
closed = 1;
nodes = (
(188.607,736.613,o),
(98.534,738.582,o),
(100.007,678.215,cs),
(119.962,-139.941,o),
(301.151,-365.351,o),
(674.286,684.609,c),
(652.919,676.62,o),
(631.551,668.631,o),
(610.184,660.642,c),
(613.85,658.642,o),
(617.517,656.642,o),
(621.184,654.642,c),
(613.901,671.39,o),
(606.619,688.138,o),
(599.337,704.886,c),
(490.208,253.215,o),
(461.801,-31.53,o),
(69.038,-485.477,cs),
(30.796,-529.677,o),
(98.823,-588.603,o),
(136.962,-544.523,cs),
(540.199,-78.47,o),
(579.792,240.785,o),
(686.663,683.114,cs),
(691.106,701.503,o),
(675.706,727.418,o),
(664.816,733.358,cs),
(661.15,735.358,o),
(657.483,737.358,o),
(653.816,739.358,cs),
(652.359,740.153,o),
(600.151,744.76,o),
(589.714,715.391,cs),
(242.849,-260.649,o),
(210.038,-142.059,o),
(189.993,679.785,cs)
);
}
);
width = 630;
}
);
unicode = 89;
},
{
glyphname = Z;
lastChange = "2025-11-04 18:30:44 +0000";
layers = (
{
layerId = m002;
shapes = (
{
closed = 1;
nodes = (
(52.902,619.745,o),
(56.276,585.021,o),
(83.856,601.329,cs),
(194.47,666.736,o),
(263.554,678.721,o),
(353.371,673.412,cs),
(482.659,665.77,o),
(352.428,501.555,o),
(234.432,342.015,cs),
(-36.63,-24.481,o),
(71.626,-97.473,o),
(323.549,5.172,cs),
(647.715,137.252,o),
(540.89,481.721,o),
(383.882,427.368,cs),
(262.166,385.232,o),
(184.665,383.588,o),
(149.209,425.098,cs),
(136.859,439.556,o),
(99.775,406.14,o),
(112.791,390.902,cs),
(159.335,336.412,o),
(251.788,344.899,o),
(378.118,388.632,cs),
(493.06,428.423,o),
(578.743,145.623,o),
(326.451,42.828,cs),
(114.742,-43.432,o),
(5.375,-19.111,o),
(263.568,329.985,cs),
(368.202,471.458,o),
(551.218,704.15,o),
(374.629,714.588,cs),
(282.372,720.041,o),
(197.53,705.264,o),
(78.144,634.671,cs)
);
}
);
width = 550;
},
{
layerId = m003;
shapes = (
{
closed = 1;
nodes = (
(7.481,626.805,o),
(54.038,549.78,o),
(104.177,579.427,cs),
(213.421,644.024,o),
(275.579,654.149,o),
(361.645,649.062,cs),
(411.605,646.109,o),
(362.537,565.184,o),
(212.594,362.45,cs),
(-62.808,-9.913,o),
(79.347,-124.682,o),
(341.857,-17.723,cs),
(653.673,109.325,o),
(586.052,526.605,o),
(366.349,450.548,cs),
(244.767,408.459,o),
(172.815,428.329,o),
(164.962,437.523,cs),
(128.125,480.648,o),
(58.058,424.112,o),
(97.038,378.477,cs),
(171.185,291.671,o),
(269.188,321.673,o),
(395.651,365.452,cs),
(447.779,383.498,o),
(572.111,173.276,o),
(308.143,65.723,cs),
(107.37,-16.081,o),
(30.851,-34.627,o),
(285.406,309.55,cs),
(358.179,407.944,o),
(622.471,723.8,o),
(366.355,738.938,cs),
(270.348,744.613,o),
(178.579,727.976,o),
(57.823,656.573,cs)
);
}
);
width = 550;
}
);
unicode = 90;
},
{
glyphname = a;
lastChange = "2025-11-04 18:30:44 +0000";
layers = (
{
anchors = (
{
name = bottom;
pos = (233,0);
},
{
name = ogonek;
pos = (403,10);
},
{
name = top;
pos = (233,500);
}
);
layerId = m002;
shapes = (
{
closed = 1;
nodes = (
(334.855,233.228,o),
(304.363,243.387,o),
(286.45,216.625,cs),
(206.409,97.045,o),
(128.778,50.198,o),
(98.371,49.612,cs),
(56.657,48.809,o),
(29.983,118.398,o),
(96.024,252.653,cs),
(192.654,449.09,o),
(301.637,406.062,o),
(293.7,362.617,cs),
(253.616,143.21,o),
(246.754,12.975,o),
(309.681,10.397,cs),
(356.975,8.459,o),
(388.657,54.476,o),
(444.107,115.974,cs),
(466.043,140.304,o),
(441.062,157.504,o),
(419.893,134.026,cs),
(365.343,73.524,o),
(335.02,51.411,o),
(330.319,51.603,cs),
(295.121,53.045,o),
(291.374,140.419,o),
(334.3,375.383,cs),
(351.6,470.077,o),
(172.157,481.398,o),
(59.976,253.347,cs),
(-10.613,109.847,o),
(5.347,6.957,o),
(79.629,8.388,cs),
(143.225,9.613,o),
(231.591,78.955,o),
(317.55,207.375,cs)
);
}
);
width = 425;
},
{
anchors = (
{
name = bottom;
pos = (233,0);
},
{
name = ogonek;
pos = (403,10);
},
{
name = top;
pos = (233,500);
}
);
layerId = m003;
shapes = (
{
closed = 1;
nodes = (
(371.12,234.365,o),
(297.807,286.635,o),
(264.693,237.164,cs),
(185.696,119.143,o),
(96.485,74.152,o),
(88.215,73.993,cs),
(86.47,73.96,o),
(46.368,86.748,o),
(118.446,233.273,cs),
(216.854,433.326,o),
(270.063,378.892,o),
(269.684,376.814,cs),
(235.019,187.069,o),
(197.374,-9.013,o),
(318.43,-13.973,cs),
(385.018,-16.701,o),
(407.754,30.908,o),
(465.442,94.889,cs),
(503.634,137.249,o),
(438.531,199.444,o),
(398.558,155.111,cs),
(333.577,83.041,o),
(324.675,75.845,o),
(321.57,75.973,cs),
(320.186,76.029,o),
(311.127,102.886,o),
(358.316,361.186,cs),
(390.494,537.314,o),
(134.651,470.114,o),
(37.554,272.727,cs),
(-24.348,146.886,o),
(-40.834,-18.509,o),
(89.785,-15.993,cs),
(175.519,-14.342,o),
(252.304,56.857,o),
(339.307,186.836,cs)
);
}
);
width = 425;
}
);
unicode = 97;
},
{
glyphname = b;
lastChange = "2025-11-04 18:30:44 +0000";
layers = (
{
layerId = m002;
shapes = (
{
closed = 1;
nodes = (
(219.946,744.996,o),
(182.661,742.984,o),
(171.322,715.908,cs),
(120.83,595.347,o),
(60.681,391.606,o),
(73.583,313.872,cs),
(82.275,261.506,o),
(126.965,252.97,o),
(171.964,305.957,cs),
(195.863,334.098,o),
(280.955,383.042,o),
(313.305,389.838,cs),
(333.282,394.034,o),
(374.838,386.264,o),
(350.7,257.617,cs),
(328.887,141.366,o),
(225.502,40.101,o),
(169.629,43.588,cs),
(110.84,47.257,o),
(80.616,143.975,o),
(80.616,237.69,cs),
(80.616,261.763,o),
(39.384,241.874,o),
(39.384,218.31,cs),
(39.384,92.025,o),
(65.213,7.602,o),
(148.371,2.412,cs),
(257.919,-4.425,o),
(365.575,133.279,o),
(391.3,270.383,cs),
(417.8,411.617,o),
(372.661,440.239,o),
(324.695,430.162,cs),
(272.974,419.297,o),
(190.102,373.931,o),
(146.036,322.043,cs),
(135.006,309.055,o),
(121.338,296.43,o),
(114.417,338.128,cs),
(104.761,396.301,o),
(161.17,604.653,o),
(208.678,718.092,cs)
);
}
);
width = 460;
},
{
layerId = m003;
shapes = (
{
closed = 1;
nodes = (
(253.795,752.836,o),
(171.501,789.319,o),
(148.577,734.583,cs),
(96.474,610.173,o),
(33.874,413.426,o),
(49.554,318.96,cs),
(62.877,238.695,o),
(139.828,221.908,o),
(193.472,285.075,cs),
(216.624,312.336,o),
(302.917,360.639,o),
(328.356,365.983,cs),
(329.378,366.198,o),
(350.851,400.623,o),
(326.827,272.586,cs),
(305.275,157.726,o),
(197.883,65.659,o),
(162.139,67.89,cs),
(133.921,69.652,o),
(105,103.415,o),
(105,228,cs),
(105,285.049,o),
(15,288.201,o),
(15,228,cs),
(15,122.68,o),
(36.353,-14.432,o),
(155.861,-21.89,cs),
(272.118,-29.146,o),
(389.448,118.309,o),
(415.173,255.414,cs),
(441.523,395.848,o),
(391.815,471.279,o),
(309.644,454.017,cs),
(251.012,441.699,o),
(169.341,395.694,o),
(124.528,342.925,cs),
(122.143,340.117,o),
(140.736,319.241,o),
(138.446,333.04,cs),
(131.567,374.482,o),
(185.526,589.827,o),
(231.423,699.417,cs)
);
}
);
width = 460;
}
);
unicode = 98;
},
{
glyphname = c;
lastChange = "2025-11-04 18:30:44 +0000";
layers = (
{
background = {
shapes = (
{
closed = 0;
nodes = (
(194,475,l)
);
},
{
closed = 0;
nodes = (
(194,475,l),
(170,510,o),
(110,491,o),
(71,283,cs,{
"Letterink-NibData" = {
MinorAxisWidth = "15";
ValidForParentMinorAxisWidth = "15";
};
}),
(26,42,o),
(84,18,o),
(119,18,cs,{
"Letterink-NibData" = {
MinorAxisWidth = "15";
ValidForParentMinorAxisWidth = "15";
};
}),
(154,18,o),
(210,61,o),
(265,131,cs,{
"Letterink-NibData" = {
MinorAxisWidth = "15";
ValidForParentMinorAxisWidth = "15";
};
})
);
}
);
};
layerId = m002;
shapes = (
{
closed = 1;
nodes = (
(253.961,409.296,o),
(290.138,443.775,o),
(277.037,458.297,cs),
(184.905,560.419,o),
(60.383,465.795,o),
(11.838,246.305,cs),
(-36.348,28.443,o),
(62.289,-2.616,o),
(109.31,-2.616,cs),
(159.668,-2.616,o),
(220.534,49.824,o),
(278.785,123.961,cs),
(298.39,148.914,o),
(271.259,163.55,o),
(251.215,138.039,cs),
(199.466,72.176,o),
(148.332,38.616,o),
(128.69,38.616,cs),
(105.711,38.616,o),
(7.496,55.745,o),
(52.162,257.695,cs),
(94.781,450.39,o),
(167.095,505.581,o),
(240.963,423.703,cs)
);
}
);
width = 253;
},
{
background = {
shapes = (
{
closed = 0;
nodes = (
(194,475,l)
);
},
{
closed = 0;
nodes = (
(194,475,l),
(170,510,o),
(110,491,o),
(71,283,cs,{
"Letterink-NibData" = {
MinorAxisWidth = "15";
ValidForParentMinorAxisWidth = "15";
};
}),
(26,42,o),
(84,18,o),
(119,18,cs,{
"Letterink-NibData" = {
MinorAxisWidth = "15";
ValidForParentMinorAxisWidth = "15";
};
}),
(154,18,o),
(210,61,o),
(265,131,cs,{
"Letterink-NibData" = {
MinorAxisWidth = "15";
ValidForParentMinorAxisWidth = "15";
};
})
);
}
);
};
layerId = m003;
shapes = (
{
closed = 1;
nodes = (
(264.475,367.752,o),
(331.721,427.573,o),
(292.442,471.111,cs),
(168.296,608.718,o),
(35.955,478.25,o),
(-12.017,261.356,cs),
(-64.598,23.619,o),
(40.772,-27,o),
(119,-27,cs),
(187.285,-27,o),
(238.769,24.779,o),
(300.46,103.295,cs),
(336.254,148.851,o),
(265.868,204.941,o),
(229.54,158.705,cs),
(181.231,97.221,o),
(120.715,63,o),
(119,63,cs),
(114.738,63,o),
(31.966,43.477,o),
(76.017,242.644,cs),
(119.21,437.935,o),
(183.704,457.282,o),
(225.558,410.889,cs)
);
}
);
width = 253;
}
);
unicode = 99;
},
{
glyphname = d;
lastChange = "2025-11-04 18:30:44 +0000";
layers = (
{
layerId = m002;
shapes = (
{
closed = 1;
nodes = (
(254.646,261.543,o),
(295.847,279.353,o),
(297.564,303.397,cs),
(304.794,404.615,o),
(280.865,438.068,o),
(201.04,422.234,cs),
(126.552,407.459,o),
(68.581,311.249,o),
(41.187,213.701,cs),
(8.442,97.102,o),
(13.5,-17.23,o),
(131,12,cs),
(249.837,41.562,o),
(317.42,168.493,o),
(345.813,270.299,cs),
(384.767,409.968,o),
(446.097,630.004,o),
(455.501,716.735,cs),
(469.414,845.042,o),
(406.838,749.447,o),
(365.766,545.96,cs),
(325.157,344.768,o),
(259.248,28.384,o),
(356.31,28.384,cs),
(396.629,28.384,o),
(439.154,64.883,o),
(487.517,116.333,cs),
(509.263,139.467,o),
(487.133,159.763,o),
(464.483,135.667,cs),
(418.846,87.117,o),
(389.371,69.616,o),
(375.69,69.616,cs),
(316.013,69.616,o),
(361.201,334.931,o),
(406.234,558.04,cs),
(459.606,822.463,o),
(418.586,738.958,o),
(414.499,701.265,cs),
(405.903,621.996,o),
(344.801,400.152,o),
(306.187,261.701,cs),
(278.267,161.594,o),
(222.221,72.205,o),
(141,52,cs),
(56.559,30.994,o),
(48.864,108.531,o),
(80.813,222.299,cs),
(104.449,306.462,o),
(163.417,376.699,o),
(188.96,381.766,cs),
(231.097,390.124,o),
(263.206,381.385,o),
(256.436,286.603,cs)
);
}
);
width = 468;
},
{
layerId = m003;
shapes = (
{
closed = 1;
nodes = (
(227.957,240.001,o),
(317.726,233.559,o),
(321.89,291.861,cs),
(329.819,402.855,o),
(278.044,464.349,o),
(186.414,446.173,cs),
(99.933,429.019,o),
(47.96,338.002,o),
(17.743,230.404,cs),
(-12.205,123.764,o),
(-8.431,-50.3,o),
(146.886,-11.663,cs),
(274.355,20.046,o),
(339.006,145.132,o),
(369.257,253.596,cs),
(408.425,394.033,o),
(469.831,612.785,o),
(479.753,704.296,cs),
(498.135,873.81,o),
(381.134,755.327,o),
(341.827,560.586,cs),
(308.936,397.633,o),
(209.593,4,o),
(366,4,cs),
(423.065,4,o),
(458.453,41.631,o),
(508.911,95.31,cs),
(548.108,137.009,o),
(483.844,200.046,o),
(443.089,156.69,cs),
(372.585,81.685,o),
(396.58,94,o),
(366,94,cs),
(363.66,94,o),
(377.531,282.604,o),
(430.173,543.414,cs),
(484.121,810.691,o),
(390.356,714.71,o),
(390.247,713.704,cs),
(382.169,639.215,o),
(321.143,416.087,o),
(282.743,278.404,cs),
(256.68,184.955,o),
(197.703,93.721,o),
(125.114,75.663,cs),
(78.489,64.065,o),
(69.51,81.87,o),
(104.257,205.596,cs),
(125.07,279.709,o),
(190.036,355.139,o),
(203.586,357.827,cs),
(233.664,363.793,o),
(238.269,384.373,o),
(232.11,298.139,cs)
);
}
);
width = 468;
}
);
unicode = 100;
},
{
glyphname = e;
lastChange = "2025-11-04 18:30:44 +0000";
layers = (
{
layerId = m002;
shapes = (
{
closed = 1;
nodes = (
(-22.413,109.716,o),
(5.173,95.653,o),
(25.05,121.301,cs),
(87.604,202.016,o),
(159.275,300.735,o),
(182.711,380.946,cs),
(194.515,421.346,o),
(198.086,471.983,o),
(158.049,470.603,cs),
(114.546,469.102,o),
(43.302,451.081,o),
(10.7,276.617,cs),
(-46.494,-29.447,o),
(72.181,-88.287,o),
(238.785,123.961,cs),
(258.378,148.922,o),
(231.248,163.559,o),
(211.215,138.039,cs),
(85.819,-21.713,o),
(-4.346,-8.396,o),
(51.3,289.383,cs),
(78.725,436.144,o),
(117.293,428.616,o),
(139.951,429.397,cs),
(157.914,430.017,o),
(155.447,414.666,o),
(143.289,373.054,cs),
(124.657,309.285,o),
(58.396,213.984,o),
(-3.05,134.699,cs)
);
}
);
width = 213;
},
{
layerId = m003;
shapes = (
{
closed = 1;
nodes = (
(-59.932,109.935,o),
(10.425,53.798,o),
(46.46,100.295,cs),
(109.763,181.976,o),
(181.204,278.849,o),
(206.257,364.596,cs),
(212.548,386.128,o),
(233.498,497.94,o),
(147.43,494.973,cs),
(93.269,493.105,o),
(19.429,466.051,o),
(-13.173,291.586,cs),
(-72.666,-26.777,o),
(86.439,-118.403,o),
(260.46,103.295,cs),
(296.232,148.867,o),
(225.847,204.959,o),
(189.54,158.705,cs),
(71.947,8.895,o),
(21.657,-11.965,o),
(75.173,274.414,cs),
(102.486,420.573,o),
(139.04,404.63,o),
(150.57,405.027,cs),
(151.44,405.057,o),
(135.198,442.301,o),
(119.743,389.404,cs),
(102.729,331.171,o),
(36.237,234.024,o),
(-24.46,155.705,cs)
);
}
);
width = 213;
}
);
unicode = 101;
},
{
glyphname = f;
lastChange = "2025-11-04 18:30:44 +0000";
layers = (
{
layerId = m002;
shapes = (
{
closed = 1;
nodes = (
(413.384,561.827,o),
(454.616,582.947,o),
(454.616,605.69,cs),
(454.616,841.2,o),
(384.563,878.62,o),
(298.804,694.987,cs),
(106.643,283.523,o),
(42.583,-303.794,o),
(69.084,-376.069,cs),
(76.465,-396.201,o),
(115.781,-366.651,o),
(108.916,-347.931,cs),
(91.417,-300.206,o),
(151.016,300.636,o),
(335.196,695.013,cs),
(393.306,819.441,o),
(413.384,822.8,o),
(413.384,586.31,cs)
);
},
{
closed = 1;
nodes = (
(-13.183,194.267,o),
(18.309,232.574,o),
(0.567,242.251,cs),
(-2.942,244.165,o),
(-6.706,251.519,o),
(30.832,265.891,cs),
(113.391,297.497,o),
(228.66,311.145,o),
(328.165,295.537,cs),
(349.114,292.25,o),
(374.558,332.899,o),
(351.835,336.463,cs),
(247.34,352.855,o),
(127.74,339.55,o),
(35.168,304.109,cs),
(-14.73,285.007,o),
(-71.058,225.835,o),
(-30.567,203.749,cs)
);
}
);
width = 329;
},
{
layerId = m003;
shapes = (
{
closed = 1;
nodes = (
(389,538.432,o),
(479,536.835,o),
(479,596,cs),
(479,819.59,o),
(375.447,926.497,o),
(276.216,714.018,cs),
(81.485,297.049,o),
(10.315,-278.122,o),
(46.714,-377.391,cs),
(66.405,-431.094,o),
(151.778,-402.497,o),
(131.286,-346.609,cs),
(123.685,-325.878,o),
(176.174,287.11,o),
(357.784,675.982,cs),
(402.422,771.564,o),
(389,844.41,o),
(389,596,cs)
);
},
{
closed = 1;
nodes = (
(14.007,155.92,o),
(58.469,234.184,o),
(6.816,262.358,cs),
(6.154,262.719,o),
(10.375,228.153,o),
(49.127,242.989,cs),
(129.355,273.704,o),
(238.709,286.339,o),
(332.96,271.554,cs),
(389.826,262.634,o),
(405.495,351.276,o),
(347.04,360.446,cs),
(237.291,377.661,o),
(111.775,363.344,o),
(16.873,327.011,cs),
(-19.856,312.95,o),
(-101.975,219.183,o),
(-36.816,183.642,cs)
);
}
);
width = 329;
}
);
unicode = 102;
},
{
glyphname = g;
lastChange = "2025-11-04 18:30:44 +0000";
layers = (
{
annotations = (
{
pos = (192.238,345.067);
type = Minus;
},
{
pos = (191.39,242.333);
type = Minus;
},
{
pos = (180.01,398.486);
type = Minus;
}
);
layerId = m002;
shapes = (
{
closed = 1;
nodes = (
(224.171,234.067,o),
(264.031,243.415,o),
(271.711,268.946,cs),
(309.22,393.638,o),
(305.813,477.616,o),
(211.69,477.616,cs),
(103.334,477.616,o),
(17.601,271.638,o),
(20.397,204.681,cs),
(30.701,-42.108,o),
(209.066,197.55,o),
(241.987,212.804,cs),
(242.769,213.166,o),
(252.384,166.898,o),
(252.384,54.31,cs),
(252.384,-91.808,o),
(102.504,-555.947,o),
(71.333,-585.483,cs),
(49.731,-605.951,o),
(16.536,-590.84,o),
(36.536,-378.933,cs),
(70.893,-14.914,o),
(249.303,-9.673,o),
(389.701,113.604,cs),
(413.29,134.316,o),
(397.227,160.284,o),
(372.299,138.396,cs),
(266.697,45.673,o),
(30.951,-19.071,o),
(-4.536,-395.067,cs),
(-25.078,-612.715,o),
(30.638,-665.396,o),
(90.667,-608.517,cs),
(174.541,-529.045,o),
(293.616,-92.192,o),
(293.616,73.69,cs),
(293.616,159.143,o),
(295.843,274.137,o),
(242.013,249.196,cs),
(136.143,200.144,o),
(69.943,25.592,o),
(61.603,225.319,cs),
(56.132,356.351,o),
(142.666,436.384,o),
(192.31,436.384,cs),
(256.187,436.384,o),
(268.78,382.362,o),
(232.289,261.054,cs)
);
}
);
width = 373;
},
{
annotations = (
{
pos = (192.238,345.067);
type = Minus;
},
{
pos = (191.39,242.333);
type = Minus;
},
{
pos = (180.01,398.486);
type = Minus;
}
);
layerId = m003;
shapes = (
{
closed = 1;
nodes = (
(192.441,223.221,o),
(277.935,195.002,o),
(295.034,251.843,cs),
(329.639,366.883,o),
(333.525,502,o),
(202,502,cs),
(78.843,502,o),
(-8.654,325.55,o),
(-3.973,213.43,cs),
(8.817,-92.885,o),
(259.401,189.467,o),
(261.018,190.216,cs),
(261.797,190.577,o),
(228,197.65,o),
(228,64,cs),
(228,-72.637,o),
(74.515,-541.154,o),
(50.31,-564.089,cs),
(49.461,-564.894,o),
(40.073,-610.832,o),
(60.829,-390.922,cs),
(93.875,-40.791,o),
(271.427,-30.095,o),
(410.523,92.038,cs),
(454.3,130.476,o),
(395.419,198.545,o),
(351.477,159.962,cs),
(244.573,66.095,o),
(7.969,6.806,o),
(-28.829,-383.078,cs),
(-48.799,-594.665,o),
(38.213,-699.532,o),
(111.69,-629.911,cs),
(202.53,-543.838,o),
(318,-111.363,o),
(318,64,cs),
(318,115.986,o),
(300.07,307.501,o),
(222.982,271.784,cs),
(104.823,217.038,o),
(91.933,73.818,o),
(85.973,216.57,cs),
(82.304,304.425,o),
(166.961,412,o),
(202,412,cs),
(228.475,412,o),
(248.361,409.117,o),
(208.966,278.157,cs)
);
}
);
width = 373;
}
);
unicode = 103;
},
{
glyphname = h;
lastChange = "2025-11-04 18:30:44 +0000";
layers = (
{
background = {
shapes = (
{
closed = 0;
nodes = (
(19,138,l,{
"Letterink-NibData" = {
MinorAxisWidth = "15";
ValidForParentMinorAxisWidth = "15";
};
}),
(105,246,o),
(180,489,o),
(180,650,cs,{
"Letterink-NibData" = {
MinorAxisWidth = "15";
ValidForParentMinorAxisWidth = "15";
};
}),
(180,821,o),
(172,838,o),
(125,413,cs,{
"Letterink-NibData" = {
MinorAxisWidth = "15";
ValidForParentMinorAxisWidth = "15";
};
}),
(75,-41,o),
(161,-37,o),
(309,126,cs,{
"Letterink-NibData" = {
MinorAxisWidth = "15";
ValidForParentMinorAxisWidth = "15";
};
})
);
}
);
};
layerId = m002;
shapes = (
{
closed = 1;
nodes = (
(-16.201,124.481,o),
(5.927,104.177,o),
(28.517,128.333,cs),
(139.829,247.359,o),
(250.47,508.63,o),
(271.413,657.063,cs),
(299.919,859.092,o),
(243.494,810.012,o),
(142,408,cs),
(21.128,-70.769,o),
(187.315,-61.398,o),
(353.05,152.301,cs),
(437.502,261.193,o),
(465.544,372.448,o),
(473.602,397.593,cs),
(517.806,535.53,o),
(410.149,391.399,o),
(391.587,259.937,cs),
(364.314,66.789,o),
(324.655,-167.257,o),
(603.914,118.704,cs),
(626.206,141.531,o),
(605.103,162.866,o),
(582.086,139.296,cs),
(361.345,-86.743,o),
(402.068,59.157,o),
(432.413,274.063,cs),
(460.158,470.557,o),
(444.233,421.099,o),
(434.398,390.407,cs),
(425.853,363.746,o),
(398.631,260.704,o),
(324.95,165.699,cs),
(198.93,3.208,o),
(63.496,-51.388,o),
(182,418,cs),
(295.065,865.846,o),
(250.331,782.872,o),
(230.587,642.937,cs),
(211.737,509.341,o),
(96.171,244.641,o),
(5.483,147.667,cs)
);
}
);
width = 584;
},
{
background = {
shapes = (
{
closed = 0;
nodes = (
(19,138,l,{
"Letterink-NibData" = {
MinorAxisWidth = "15";
ValidForParentMinorAxisWidth = "15";
};
}),
(105,246,o),
(180,489,o),
(180,650,cs,{
"Letterink-NibData" = {
MinorAxisWidth = "15";
ValidForParentMinorAxisWidth = "15";
};
}),
(180,821,o),
(172,838,o),
(125,413,cs,{
"Letterink-NibData" = {
MinorAxisWidth = "15";
ValidForParentMinorAxisWidth = "15";
};
}),
(75,-41,o),
(161,-37,o),
(309,126,cs,{
"Letterink-NibData" = {
MinorAxisWidth = "15";
ValidForParentMinorAxisWidth = "15";
};
})
);
}
);
};
layerId = m003;
shapes = (
{
closed = 1;
nodes = (
(-54.993,126.899,o),
(9.261,63.843,o),
(49.911,107.31,cs),
(162.637,227.849,o),
(273.612,488.169,o),
(295.562,643.737,cs),
(324.507,848.878,o),
(221.678,833.217,o),
(118.337,423.886,cs),
(-5.177,-65.346,o),
(203.776,-88.785,o),
(374.46,131.295,cs),
(458.989,240.286,o),
(489.425,357.089,o),
(496.798,380.094,cs),
(550.423,547.431,o),
(389.52,429.653,o),
(367.438,273.263,cs),
(341.427,89.046,o),
(330.155,-204.56,o),
(625.37,97.74,cs),
(665.485,138.817,o),
(602.075,202.7,o),
(560.63,160.26,cs),
(356.427,-48.844,o),
(424.64,34.658,o),
(456.562,260.737,cs),
(480.874,432.914,o),
(412.013,410.435,o),
(411.202,407.906,cs),
(401.972,379.104,o),
(377.144,281.611,o),
(303.54,186.705,cs),
(177.296,23.926,o),
(91.651,-49.485,o),
(205.663,402.114,cs),
(316.931,842.84,o),
(225.748,793.119,o),
(206.438,656.263,cs),
(188.595,529.802,o),
(73.363,264.151,o),
(-15.911,168.69,cs)
);
}
);
width = 584;
}
);
unicode = 104;
},
{
glyphname = i;
lastChange = "2025-11-04 18:30:44 +0000";
layers = (
{
layerId = m002;
shapes = (
{
closed = 1;
nodes = (
(-21.261,112.612,o),
(6.318,98.533,o),
(26.05,124.301,cs),
(112.004,236.547,o),
(159.616,318.735,o),
(159.616,414.69,cs),
(159.616,481.511,o),
(105.862,496.783,o),
(101.388,277.629,cs),
(96.352,30.954,o),
(168.974,-47.388,o),
(322.814,120.652,cs),
(344.994,144.88,o),
(320.511,162.641,o),
(299.186,139.348,cs),
(193.026,23.388,o),
(137.482,45.049,o),
(142.612,296.371,cs),
(147.978,559.221,o),
(118.384,404.489,o),
(118.384,395.31,cs),
(118.384,309.265,o),
(81.996,247.453,o),
(-2.05,137.699,cs)
);
},
{
closed = 1;
nodes = (
(196.992,806.972,o),
(156.53,780.94,o),
(161.761,760.016,cs),
(171.45,721.258,o),
(233.662,666.005,o),
(262.14,636.51,cs),
(275.525,622.647,o),
(311.51,657.352,o),
(297.86,671.49,cs),
(270.338,699.995,o),
(208.55,760.742,o),
(202.239,785.984,cs)
);
}
);
width = 300;
},
{
layerId = m003;
shapes = (
{
closed = 1;
nodes = (
(-59.067,112.208,o),
(12.094,57.109,o),
(47.939,103.918,cs),
(132.22,213.98,o),
(184,299.507,o),
(184,405,cs),
(184,463.104,o),
(81.947,529.765,o),
(77.007,287.785,cs),
(71.876,36.451,o),
(178.495,-81.375,o),
(344.442,99.889,cs),
(382.979,141.984,o),
(317.847,204.118,o),
(277.558,160.111,cs),
(180.283,53.856,o),
(162.029,43.057,o),
(166.993,286.215,cs),
(171.893,526.238,o),
(94,422.896,o),
(94,405,cs),
(94,328.493,o),
(61.78,270.02,o),
(-23.939,158.082,cs)
);
},
{
closed = 1;
nodes = (
(211.656,839.915,o),
(123.904,819.844,o),
(138.337,762.114,cs),
(153.277,702.351,o),
(219.776,651.589,o),
(247.63,622.74,cs),
(287.74,581.198,o),
(353.343,642.824,o),
(312.37,685.26,cs),
(281.549,717.182,o),
(227.662,775.892,o),
(225.663,783.886,cs)
);
}
);
width = 300;
}
);
unicode = 105;
},
{
glyphname = j;
lastChange = "2025-11-04 18:30:44 +0000";
layers = (
{
background = {
shapes = (
{
closed = 0;
nodes = (
(182,265,l,{
"Letterink-NibData" = {
MainAxisWidth = "20";
ValidForParentMainAxisWidth = "30";
};
"Letterink-NibStyleId" = "1";
}),
(219,388,o),
(211,457,o),
(132,457,cs,{
"Letterink-NibData" = {
MainAxisWidth = "20";
ValidForParentMainAxisWidth = "30";
};
"Letterink-NibStyleId" = "1";
}),
(53,457,o),
(-33,314,o),
(-29,215,cs,{
"Letterink-NibData" = {
MainAxisWidth = "20";
ValidForParentMainAxisWidth = "30";
};
"Letterink-NibStyleId" = "1";
}),
(-19,-17,o),
(129,211,o),
(172,231,cs,{
"Letterink-NibData" = {
MainAxisWidth = "20";
ValidForParentMainAxisWidth = "30";
};
"Letterink-NibStyleId" = "1";
}),
(198,243,o),
(203,163,o),
(203,64,cs,{
"Letterink-NibData" = {
MainAxisWidth = "20";
ValidForParentMainAxisWidth = "30";
};
"Letterink-NibStyleId" = "1";
}),
(203,-92,o),
(69,-543,o),
(11,-597,cs,{
"Letterink-NibData" = {
MainAxisWidth = "20";
ValidForParentMainAxisWidth = "30";
};
"Letterink-NibStyleId" = "1";
}),
(-17,-624,o),
(-75,-610,o),
(-54,-387,cs,{
"Letterink-NibData" = {
MainAxisWidth = "20";
ValidForParentMainAxisWidth = "30";
};
"Letterink-NibStyleId" = "1";
}),
(-19,-17,o),
(188,18,o),
(311,126,cs,{
"Letterink-NibData" = {
MainAxisWidth = "20";
ValidForParentMainAxisWidth = "30";
};
"Letterink-NibStyleId" = "1";
})
);
}
);
};
layerId = m002;
shapes = (
{
closed = 1;
nodes = (
(27.735,159.811,o),
(66.887,189.756,o),
(59.821,208.33,cs),
(33.042,278.718,o),
(180.84,344.472,o),
(290.347,396.976,c),
(283.486,400.97,o),
(276.626,404.965,o),
(269.766,408.96,c),
(229.171,208.885,o),
(30.626,-558.371,o),
(1.652,-585.186,cs),
(-17.422,-602.84,o),
(-57.989,-589.929,o),
(-33.499,-379.265,cs),
(-9.476,-172.616,o),
(65.164,-46.216,o),
(199.425,25.524,cs),
(242.114,48.334,o),
(249.773,53.587,o),
(315.039,105.215,cs),
(339.745,124.759,o),
(326.495,152.983,o),
(300.961,132.785,cs),
(232.227,78.413,o),
(239.905,83.629,o),
(196.575,60.476,cs),
(34.904,-25.91,o),
(-50.169,-185.426,o),
(-74.501,-394.735,cs),
(-99.809,-612.431,o),
(-35.994,-660.958,o),
(20.348,-608.814,cs),
(107.694,-527.975,o),
(266.829,207.115,o),
(310.234,421.04,cs),
(313.189,435.6,o),
(301.473,438.691,o),
(289.653,433.024,cs),
(232.963,405.844,o),
(-32.324,317.678,o),
(20.179,179.67,cs)
);
},
{
closed = 1;
nodes = (
(296.992,811.972,o),
(256.53,785.94,o),
(261.761,765.016,cs),
(271.45,726.258,o),
(333.662,671.005,o),
(362.14,641.51,cs),
(375.525,627.647,o),
(411.51,662.352,o),
(397.86,676.49,cs),
(370.338,704.995,o),
(308.55,765.742,o),
(302.239,790.984,cs)
);
}
);
width = 360;
},
{
background = {
shapes = (
{
closed = 0;
nodes = (
(182,265,l,{
"Letterink-NibData" = {
MainAxisWidth = "20";
ValidForParentMainAxisWidth = "30";
};
"Letterink-NibStyleId" = "1";
}),
(219,388,o),
(211,457,o),
(132,457,cs,{
"Letterink-NibData" = {
MainAxisWidth = "20";
ValidForParentMainAxisWidth = "30";
};
"Letterink-NibStyleId" = "1";
}),
(53,457,o),
(-33,314,o),
(-29,215,cs,{
"Letterink-NibData" = {
MainAxisWidth = "20";
ValidForParentMainAxisWidth = "30";
};
"Letterink-NibStyleId" = "1";
}),
(-19,-17,o),
(129,211,o),
(172,231,cs,{
"Letterink-NibData" = {
MainAxisWidth = "20";
ValidForParentMainAxisWidth = "30";
};
"Letterink-NibStyleId" = "1";
}),
(198,243,o),
(203,163,o),
(203,64,cs,{
"Letterink-NibData" = {
MainAxisWidth = "20";
ValidForParentMainAxisWidth = "30";
};
"Letterink-NibStyleId" = "1";
}),
(203,-92,o),
(69,-543,o),
(11,-597,cs,{
"Letterink-NibData" = {
MainAxisWidth = "20";
ValidForParentMainAxisWidth = "30";
};
"Letterink-NibStyleId" = "1";
}),
(-17,-624,o),
(-75,-610,o),
(-54,-387,cs,{
"Letterink-NibData" = {
MainAxisWidth = "20";
ValidForParentMainAxisWidth = "30";
};
"Letterink-NibStyleId" = "1";
}),
(-19,-17,o),
(188,18,o),
(311,126,cs,{
"Letterink-NibData" = {
MainAxisWidth = "20";
ValidForParentMainAxisWidth = "30";
};
"Letterink-NibStyleId" = "1";
})
);
}
);
};
layerId = m003;
shapes = (
{
closed = 1;
nodes = (
(18.273,124.555,o),
(103.233,154.343,o),
(82.011,210.127,cs),
(68.095,246.705,o),
(200.22,322.051,o),
(309.727,374.554,c),
(288.427,390.898,o),
(267.127,407.242,o),
(245.827,423.586,c),
(205.82,226.408,o),
(1.953,-544.059,o),
(-19.69,-564.089,cs),
(-20.44,-564.783,o),
(-33.848,-603.347,o),
(-9.335,-392.484,cs),
(13.897,-192.637,o),
(87.074,-67.293,o),
(219.126,3.267,cs),
(261.351,25.829,o),
(271.303,32.595,o),
(335.705,83.54,cs),
(380.55,119.014,o),
(326.99,191.398,o),
(280.295,154.46,cs),
(210.697,99.405,o),
(220.669,106.134,o),
(176.874,82.733,cs),
(12.994,-4.834,o),
(-73.541,-165.405,o),
(-98.665,-381.516,cs),
(-123.451,-594.729,o),
(-32.354,-698.439,o),
(41.69,-629.911,cs),
(136.367,-542.287,o),
(290.18,189.592,o),
(334.173,406.414,cs),
(341.272,441.402,o),
(305.106,472.146,o),
(270.273,455.446,cs),
(214.422,428.668,o),
(-60.946,332.787,o),
(-2.011,177.873,cs)
);
},
{
closed = 1;
nodes = (
(311.656,844.915,o),
(223.904,824.844,o),
(238.337,767.114,cs),
(253.277,707.351,o),
(319.776,656.589,o),
(347.63,627.74,cs),
(387.74,586.198,o),
(453.343,647.824,o),
(412.37,690.26,cs),
(381.549,722.182,o),
(327.662,780.892,o),
(325.663,788.886,cs)
);
}
);
width = 360;
}
);
unicode = 106;
},
{
glyphname = k;
lastChange = "2025-11-04 18:30:44 +0000";
layers = (
{
layerId = m002;
shapes = (
{
closed = 1;
nodes = (
(186.838,781.582,o),
(145.618,763.2,o),
(144.413,739.276,cs),
(129.478,442.549,o),
(83.133,291.515,o),
(31.09,90.35,cs),
(23.009,59.113,o),
(64.062,84.264,o),
(69.196,95.013,cs),
(163.082,291.585,o),
(265.997,379.472,o),
(326.987,407.804,cs),
(400.197,441.813,o),
(445.603,399.018,o),
(406.186,356.348,cs),
(313.813,256.35,o),
(247.657,324.029,o),
(175.179,222.67,cs),
(119.355,144.6,o),
(255.071,2.978,o),
(333.583,-12.364,cs),
(425.555,-30.335,o),
(503.308,38.352,o),
(565.568,121.985,cs),
(584.978,148.058,o),
(554.8,158.688,o),
(536.432,134.015,cs),
(464.692,37.648,o),
(440.445,12.335,o),
(358.417,28.364,cs),
(262.929,47.022,o),
(188.972,189.167,o),
(204.821,211.33,cs),
(230.792,247.65,o),
(311.854,209.957,o),
(429.814,337.652,cs),
(516.198,431.166,o),
(421.786,488.222,o),
(327.013,444.196,cs),
(245.989,406.558,o),
(130.918,300.415,o),
(32.804,94.987,c),
(45.506,96.541,o),
(58.208,98.096,o),
(70.91,99.65,c),
(122.867,300.485,o),
(170.522,457.451,o),
(185.587,756.724,cs)
);
}
);
width = 541;
},
{
layerId = m003;
shapes = (
{
closed = 1;
nodes = (
(212.833,803.144,o),
(123.062,809.964,o),
(120.062,750.355,cs),
(105.221,455.515,o),
(59.637,308.049,o),
(7.533,106.647,cs),
(-5.716,55.433,o),
(68.353,26.922,o),
(91.446,75.273,cs),
(184.641,270.401,o),
(287.738,358.143,o),
(346.018,385.216,cs),
(413.268,416.456,o),
(402.245,396.262,o),
(385.089,377.69,cs),
(294.483,279.605,o),
(231.529,352.441,o),
(153.594,243.45,cs),
(80.003,140.535,o),
(250.573,-19.204,o),
(337.414,-36.173,cs),
(449.628,-58.1,o),
(523.645,15.897,o),
(586.939,100.918,cs),
(621.405,147.216,o),
(550.299,202.415,o),
(515.061,155.082,cs),
(444.355,60.103,o),
(416.372,40.1,o),
(354.586,52.173,cs),
(277.002,67.333,o),
(225.327,189.042,o),
(226.406,190.55,cs),
(246.92,219.238,o),
(331.184,186.702,o),
(450.911,316.31,cs),
(559.555,433.922,o),
(408.716,513.578,o),
(307.982,466.784,cs),
(224.248,427.886,o),
(109.359,321.599,o),
(10.554,114.727,c),
(38.525,104.269,o),
(66.496,93.811,o),
(94.467,83.353,c),
(146.363,283.951,o),
(194.779,444.485,o),
(209.938,745.645,cs)
);
}
);
width = 541;
}
);
unicode = 107;
},
{
glyphname = l;
lastChange = "2025-11-04 18:30:44 +0000";
layers = (
{
layerId = m002;
shapes = (
{
closed = 1;
nodes = (
(-14.559,120.206,o),
(12.58,105.588,o),
(32.785,130.961,cs),
(127.797,250.28,o),
(189.233,486.04,o),
(212.413,650.063,cs),
(241.353,854.848,o),
(205.743,801.351,o),
(153,588,cs),
(-1.74,-37.936,o),
(144.986,-76.996,o),
(321.107,116.974,cs),
(343.132,141.232,o),
(318.139,158.425,o),
(296.893,135.026,cs),
(177.014,2.996,o),
(36.221,-36.183,o),
(193,598,cs),
(256.436,854.605,o),
(195.207,803.073,o),
(171.587,635.937,cs),
(149.252,477.891,o),
(82.203,241.72,o),
(5.215,145.039,cs)
);
}
);
width = 301;
},
{
layerId = m003;
shapes = (
{
closed = 1;
nodes = (
(-52.141,120.897,o),
(17.427,63.788,o),
(53.972,109.681,cs),
(151.609,232.296,o),
(212.962,469.74,o),
(236.562,636.737,cs),
(262.403,819.591,o),
(186.571,835.402,o),
(129.337,603.886,cs),
(-21.371,-5.739,o),
(138.614,-128.597,o),
(342.442,95.889,cs),
(380.793,138.128,o),
(315.676,200.295,o),
(275.558,156.111,cs),
(183.386,54.597,o),
(55.852,-68.38,o),
(216.663,582.114,cs),
(275.784,821.261,o),
(174.184,838.523,o),
(147.438,649.263,cs),
(125.523,494.191,o),
(58.391,259.704,o),
(-15.972,166.319,cs)
);
}
);
width = 301;
}
);
unicode = 108;
},
{
glyphname = m;
lastChange = "2025-11-04 18:30:44 +0000";
layers = (
{
layerId = m002;
shapes = (
{
closed = 1;
nodes = (
(-19.553,115.598,o),
(7.126,100.412,o),
(27.515,125.624,cs),
(119.083,238.853,o),
(204.572,326.695,o),
(232.084,443.348,cs),
(243.023,489.728,o),
(193.826,438.035,o),
(193.804,437.987,cs),
(193.072,436.405,o),
(119.384,280.047,o),
(119.384,156.31,cs),
(119.384,6.995,o),
(199.085,16.489,o),
(314.682,151.627,cs),
(364.884,210.316,o),
(546.049,456.616,o),
(490.69,456.616,cs),
(475.84,456.616,o),
(379.516,283.883,o),
(371.413,146.276,cs),
(362.039,-12.926,o),
(518.557,27.783,o),
(651.88,260.501,cs),
(679.38,308.502,o),
(696.744,383.588,o),
(703.234,416.04,cs),
(716.622,482.98,o),
(660.369,417.801,o),
(657.187,406.701,cs),
(559.093,64.59,o),
(592.018,-154.537,o),
(790.068,123.677,cs),
(808.308,149.299,o),
(778.621,160.578,o),
(759.932,134.323,cs),
(621.982,-59.463,o),
(593.567,55.221,o),
(696.813,415.299,cs),
(709.683,460.184,o),
(665.378,417.02,o),
(662.766,403.96,cs),
(657.256,376.412,o),
(636.494,297.571,o),
(618.12,265.499,cs),
(492.729,46.627,o),
(406.179,54.913,o),
(412.587,163.724,cs),
(422.717,335.766,o),
(471.16,415.384,o),
(471.31,415.384,cs),
(474.539,415.384,o),
(370.328,263.078,o),
(289.318,168.373,cs),
(194.668,57.723,o),
(160.616,49.005,o),
(160.616,175.69,cs),
(160.616,292.415,o),
(227.403,431.977,o),
(230.196,438.013,c),
(217.436,436.226,o),
(204.676,434.439,o),
(191.916,432.652,c),
(169.428,337.305,o),
(94.917,257.147,o),
(0.485,140.376,cs)
);
}
);
width = 764;
},
{
layerId = m003;
shapes = (
{
closed = 1;
nodes = (
(-57.505,116.144,o),
(12.1,59.087,o),
(48.972,104.681,cs),
(140.948,218.415,o),
(226.712,304.348,o),
(255.847,427.877,cs),
(278.137,522.388,o),
(172.825,460.494,o),
(171.216,457.018,cs),
(169.521,453.354,o),
(95,300.794,o),
(95,166,cs),
(95,-27.049,o),
(232.104,9.063,o),
(335.962,130.477,cs),
(368.229,168.199,o),
(567.127,481,o),
(481,481,cs),
(466.154,481,o),
(355.174,295.119,o),
(347.062,157.355,cs),
(334.217,-60.782,o),
(545.903,16.955,o),
(673.971,240.5,cs),
(703.457,291.969,o),
(720.18,366.448,o),
(727.173,401.414,cs),
(738.8,459.549,o),
(641.95,452.025,o),
(633.743,423.404,cs),
(541.679,102.323,o),
(587.954,-211.349,o),
(811.862,103.189,cs),
(845.164,149.971,o),
(772.535,203.13,o),
(738.138,154.811,cs),
(632.298,6.131,o),
(608.513,8.881,o),
(720.257,398.596,cs),
(728.109,425.981,o),
(643.21,440.503,o),
(638.827,418.586,cs),
(633.82,393.552,o),
(612.416,314.104,o),
(596.029,285.5,cs),
(465.382,57.454,o),
(434.002,102.769,o),
(436.938,152.645,cs),
(447.069,324.687,o),
(480.85,391,o),
(481,391,cs),
(481.87,391,o),
(360.989,298.186,o),
(268.038,189.523,cs),
(161.907,65.451,o),
(185,82.316,o),
(185,166,cs),
(185,277.014,o),
(249.925,412.804,o),
(252.784,418.982,c),
(224.574,428.696,o),
(196.364,438.409,o),
(168.153,448.123,c),
(147.288,359.652,o),
(73.052,277.585,o),
(-20.972,161.319,cs)
);
}
);
width = 764;
}
);
unicode = 109;
},
{
glyphname = n;
lastChange = "2025-11-04 18:30:44 +0000";
layers = (
{
layerId = m002;
shapes = (
{
closed = 1;
nodes = (
(-20.165,112.805,o),
(8.301,99.868,o),
(27.568,125.985,cs),
(76.217,191.931,o),
(136.42,310.341,o),
(157.46,469.4,cs),
(166.021,534.114,o),
(124.577,499.315,o),
(97.7,356.617,cs),
(31.095,2.994,o),
(121.856,-64.936,o),
(268.682,106.627,cs),
(325.069,172.515,o),
(407.952,299.702,o),
(421.162,360.695,cs),
(439.625,445.937,o),
(371.765,418.631,o),
(349.587,264.937,cs),
(309.72,-11.333,o),
(374.334,-53.042,o),
(520.241,125.289,cs),
(540.493,150.041,o),
(514.281,165.794,o),
(493.759,140.711,cs),
(387.666,11.042,o),
(350.617,3.284,o),
(390.413,279.063,cs),
(418.46,473.422,o),
(383.547,361.816,o),
(380.838,349.305,cs),
(373.201,314.048,o),
(290.179,178.129,o),
(243.318,123.373,cs),
(148.383,12.443,o),
(70.44,9.093,o),
(138.3,369.383,cs),
(173.114,554.221,o),
(119.724,478.67,o),
(116.54,454.6,cs),
(96.33,301.824,o),
(39.783,194.069,o),
(-1.568,138.015,cs)
);
}
);
width = 493;
},
{
layerId = m003;
shapes = (
{
closed = 1;
nodes = (
(-57.6,112.098,o),
(14.3,57.961,o),
(49.406,105.55,cs),
(98.74,172.425,o),
(159.807,291.278,o),
(181.562,455.737,cs),
(186.78,495.186,o),
(104.781,535.932,o),
(73.827,371.586,cs),
(7.738,20.705,o),
(126.448,-105.586,o),
(289.962,85.477,cs),
(347.894,153.17,o),
(429.731,275.072,o),
(445.017,345.644,cs),
(465.902,442.07,o),
(349.673,446.21,o),
(325.438,278.263,cs),
(285.154,-0.899,o),
(389.359,-81.846,o),
(541.972,104.681,cs),
(578.777,149.665,o),
(509.144,206.683,o),
(472.028,161.319,cs),
(371.263,38.162,o),
(375.396,-5.676,o),
(414.562,265.737,cs),
(440.659,446.586,o),
(357.682,367.582,o),
(356.983,364.356,cs),
(351.422,338.678,o),
(267.354,197.474,o),
(222.038,144.523,cs),
(143.772,53.07,o),
(93.764,-8.788,o),
(162.173,354.414,cs),
(193.02,518.187,o),
(98.868,516.868,o),
(92.438,468.263,cs),
(72.943,320.888,o),
(17.26,213.575,o),
(-23.406,158.45,cs)
);
}
);
width = 493;
}
);
unicode = 110;
},
{
glyphname = o;
lastChange = "2025-11-04 18:30:44 +0000";
layers = (
{
anchors = (
{
name = bottom;
pos = (211,0);
},
{
name = center;
pos = (211,250);
},
{
name = ogonek;
pos = (379,10);
},
{
name = top;
pos = (211,500);
},
{
name = topright;
pos = (401,500);
}
);
layerId = m002;
shapes = (
{
closed = 1;
nodes = (
(-21.612,114.462,o),
(4.136,98.163,o),
(24.964,122.957,cs),
(73.096,180.257,o),
(80.413,216.914,o),
(114.026,246.893,cs),
(157.394,285.573,o),
(97.684,289.299,o),
(84.632,252.118,cs),
(54.501,166.281,o),
(89.901,27.384,o),
(172.31,27.384,cs),
(248.595,27.384,o),
(353.061,113.782,o),
(374.413,261.063,cs),
(389.029,361.879,o),
(330.159,461.616,o),
(261.69,461.616,cs),
(189.525,461.616,o),
(102.03,388.593,o),
(76.512,310.762,cs),
(67.571,283.492,o),
(107.107,291.674,o),
(115.488,317.238,cs),
(129.97,361.407,o),
(196.475,420.384,o),
(242.31,420.384,cs),
(289.017,420.384,o),
(345.832,331.397,o),
(333.587,246.937,cs),
(314.469,115.069,o),
(237.595,68.616,o),
(191.69,68.616,cs),
(134.868,68.616,o),
(99.328,189.398,o),
(123.368,257.882,cs),
(124.16,260.138,o),
(96.45,271.531,o),
(95.974,271.107,cs),
(40.836,221.929,o),
(34.904,181.743,o),
(-0.964,139.043,cs)
);
}
);
width = 421;
},
{
anchors = (
{
name = bottom;
pos = (211,0);
},
{
name = center;
pos = (211,250);
},
{
name = ogonek;
pos = (379,10);
},
{
name = top;
pos = (211,500);
},
{
name = topright;
pos = (401,500);
}
);
layerId = m003;
shapes = (
{
closed = 1;
nodes = (
(-59.958,115.299,o),
(8.874,57.316,o),
(46.472,102.075,cs),
(96.174,161.244,o),
(102.072,196.091,o),
(135.111,225.558,cs),
(179.044,264.743,o),
(79.258,320.378,o),
(61.452,269.651,cs),
(32.815,188.072,o),
(52.742,3,o),
(182,3,cs),
(273.137,3,o),
(374.44,81.349,o),
(398.562,247.737,cs),
(412.6,344.564,o),
(356.966,486,o),
(252,486,cs),
(162.177,486,o),
(83.529,420.401,o),
(53.202,327.906,cs),
(35.263,273.192,o),
(120.368,243.883,o),
(138.798,300.094,cs),
(148.471,329.599,o),
(223.823,396,o),
(252,396,cs),
(264.403,396,o),
(320.891,339.26,o),
(309.438,260.263,cs),
(293.263,148.694,o),
(210.863,93,o),
(182,93,cs),
(170.85,93,o),
(121.225,168.207,o),
(146.548,240.349,cs),
(146.812,241.102,o),
(75.365,292.866,o),
(74.889,292.442,cs),
(19.176,242.751,o),
(11.826,200.756,o),
(-22.472,159.925,cs)
);
}
);
width = 421;
}
);
unicode = 111;
},
{
glyphname = p;
lastChange = "2025-11-04 18:30:44 +0000";
layers = (
{
layerId = m002;
shapes = (
{
closed = 1;
nodes = (
(45.038,255.207,o),
(4.214,230.862,o),
(7.537,209.165,cs),
(77.898,-250.317,o),
(390.762,143.244,o),
(378.588,353.629,cs),
(370.934,485.898,o),
(255.221,499.195,o),
(149.485,369.376,cs),
(49.212,246.264,o),
(-152.742,-241.943,o),
(-127.588,-727.629,cs),
(-124.241,-792.261,o),
(-82.443,-702.757,o),
(-82.413,-702.276,cs),
(-78.961,-646.179,o),
(55.763,-212,o),
(157.914,-107.296,cs),
(180.194,-84.459,o),
(159.092,-63.123,o),
(136.086,-86.704,cs),
(-1.763,-228,o),
(-118.915,-643.829,o),
(-123.587,-719.724,cs),
(-126.216,-762.434,o),
(-86.181,-710.838,o),
(-86.412,-706.371,cs),
(-110.772,-236.032,o),
(96.297,256.136,o),
(176.515,354.624,cs),
(250.291,445.203,o),
(330.832,446.088,o),
(337.412,332.371,cs),
(348.849,134.733,o),
(110.102,-169.683,o),
(48.463,232.835,cs)
);
}
);
width = 397;
},
{
layerId = m003;
shapes = (
{
closed = 1;
nodes = (
(63.808,284.45,o),
(-25.557,273.458,o),
(-16.446,213.96,cs),
(62.905,-304.225,o),
(415.576,126.963,o),
(402.938,345.355,cs),
(393.16,514.34,o),
(237.549,524.785,o),
(128.028,390.319,cs),
(26.534,265.708,o),
(-177.5,-225.809,o),
(-151.938,-719.355,cs),
(-147.515,-804.763,o),
(-58.139,-714.619,o),
(-58.11,-714.139,cs),
(-55.086,-665.01,o),
(79.595,-230.53,o),
(179.37,-128.26,cs),
(219.463,-87.165,o),
(156.056,-23.278,o),
(114.63,-65.74,cs),
(-25.595,-209.47,o),
(-142.79,-624.998,o),
(-147.89,-707.861,cs),
(-149.752,-738.103,o),
(-62.001,-715.815,o),
(-62.062,-714.645,cs),
(-86.014,-252.166,o),
(118.975,236.692,o),
(197.972,333.681,cs),
(267.962,419.613,o),
(308.606,417.646,o),
(313.062,340.645,cs),
(324.035,151.014,o),
(125.095,-115.775,o),
(72.446,228.04,cs)
);
}
);
width = 397;
}
);
unicode = 112;
},
{
glyphname = q;
lastChange = "2025-11-04 18:30:44 +0000";
layers = (
{
layerId = m002;
shapes = (
{
closed = 1;
nodes = (
(219.859,180.236,o),
(260.234,191.835,o),
(266.084,217.348,cs),
(302.173,374.734,o),
(289.552,477.616,o),
(206.69,477.616,cs),
(92.683,477.616,o),
(16.486,257.231,o),
(20.397,137.681,cs),
(31.064,-188.469,o),
(254.207,107.148,o),
(288.515,149.624,c),
(277.142,148.643,o),
(265.769,147.662,o),
(254.397,146.681,c),
(262.252,-101.745,o),
(171.384,-336.957,o),
(171.384,-596.69,cs),
(171.384,-634.723,o),
(201.935,-730.179,o),
(333.814,-585.348,cs),
(355.926,-561.064,o),
(331.452,-543.298,o),
(310.186,-566.652,cs),
(218.065,-667.821,o),
(212.616,-609.277,o),
(212.616,-577.31,cs),
(212.616,-327.043,o),
(303.748,-90.255,o),
(295.603,167.319,cs),
(294.996,186.523,o),
(270.127,175.075,o),
(261.485,164.376,cs),
(211.793,102.852,o),
(70.365,-109.549,o),
(61.603,158.319,cs),
(56.936,301.021,o),
(147.438,436.384,o),
(187.31,436.384,cs),
(258.448,436.384,o),
(261.827,363.266,o),
(225.916,206.652,cs)
);
}
);
width = 350;
},
{
layerId = m003;
shapes = (
{
closed = 1;
nodes = (
(189.129,165.324,o),
(276.78,144.893,o),
(289.847,201.877,cs),
(324.005,350.845,o),
(335.485,502,o),
(197,502,cs),
(68.783,502,o),
(-8.119,273.214,o),
(-3.973,146.43,cs),
(8.821,-244.712,o),
(287.52,100.883,o),
(309.972,128.681,c),
(283.324,137.597,o),
(256.675,146.513,o),
(230.027,155.43,c),
(237.604,-84.17,o),
(147,-321.991,o),
(147,-587,cs),
(147,-634.652,o),
(206.275,-769.928,o),
(355.442,-606.111,cs),
(393.857,-563.922,o),
(328.735,-501.766,o),
(288.558,-545.889,cs),
(213.725,-628.072,o),
(237,-609.348,o),
(237,-587,cs),
(237,-342.009,o),
(328.396,-107.83,o),
(319.973,158.57,cs),
(318.706,198.627,o),
(266.55,218.156,o),
(240.028,185.319,cs),
(178.48,109.117,o),
(92.608,-53.307,o),
(85.973,149.57,cs),
(81.873,274.908,o),
(166.783,412,o),
(197,412,cs),
(209.915,412,o),
(242.927,399.939,o),
(202.153,222.123,cs)
);
}
);
width = 350;
}
);
unicode = 113;
},
{
glyphname = r;
lastChange = "2025-11-04 18:30:44 +0000";
layers = (
{
layerId = m002;
shapes = (
{
closed = 1;
nodes = (
(-32.723,109.974,o),
(-7.443,93.131,o),
(13.682,117.627,cs),
(87.433,203.146,o),
(143.07,167.337,o),
(130.54,66.6,cs),
(122.424,1.35,o),
(163.239,43.853,o),
(163.612,64.371,cs),
(167.515,278.757,o),
(194.504,348.633,o),
(223.711,443.946,cs),
(241.071,500.599,o),
(113.574,450.202,o),
(179.314,401.465,cs),
(226.554,366.443,o),
(279.453,356.598,o),
(349.908,386.322,cs),
(375.275,397.023,o),
(379.938,435.426,o),
(352.092,423.678,cs),
(294.547,399.402,o),
(257.348,405.425,o),
(212.686,438.535,cs),
(200.75,447.383,o),
(184.501,436.745,o),
(184.289,436.054,cs),
(155.854,343.257,o),
(126.314,261.283,o),
(122.388,45.629,cs),
(120.286,-69.799,o),
(171.375,80.711,o),
(171.46,81.4,cs),
(186.671,203.69,o),
(102.567,266.854,o),
(-11.682,134.373,cs)
);
}
);
width = 356;
},
{
layerId = m003;
shapes = (
{
closed = 1;
nodes = (
(-71.128,111.267,o),
(-3.11,52.33,o),
(34.962,96.477,cs),
(105.845,178.672,o),
(115.652,154.387,o),
(106.335,79.484,cs),
(100.099,29.345,o),
(187.952,51.935,o),
(187.993,54.215,cs),
(191.873,267.319,o),
(217.34,329.94,o),
(247.034,426.843,cs),
(267.953,495.111,o),
(52.968,470.022,o),
(168.918,384.061,cs),
(224.313,342.994,o),
(298.84,334.155,o),
(368.583,363.577,cs),
(422.288,386.234,o),
(387.269,469.141,o),
(333.417,446.423,cs),
(275.16,421.845,o),
(259.589,428.874,o),
(223.082,455.939,cs),
(221.91,456.807,o),
(161.178,453.846,o),
(160.966,453.157,cs),
(133.018,361.951,o),
(101.956,272.72,o),
(98.007,55.785,cs),
(94.914,-114.066,o),
(195.579,67.827,o),
(195.665,68.516,cs),
(214.096,216.693,o),
(84.239,291.426,o),
(-32.962,155.523,cs)
);
}
);
width = 356;
}
);
unicode = 114;
},
{
glyphname = s;
lastChange = "2025-11-04 18:30:44 +0000";
layers = (
{
layerId = m002;
shapes = (
{
closed = 1;
nodes = (
(-23.55,111.416,o),
(2.194,95.111,o),
(22.964,119.957,cs),
(138.713,258.423,o),
(150.616,392.585,o),
(150.616,502.69,cs),
(150.616,560,o),
(102.384,488.75,o),
(102.384,440.31,cs),
(102.384,188.373,o),
(233.384,161.014,o),
(233.384,47.31,cs),
(233.384,21.896,o),
(141.077,-39.537,o),
(77.497,92.086,cs),
(68.737,110.22,o),
(29.597,80.352,o),
(38.503,61.914,cs),
(88.093,-40.746,o),
(274.616,-78.66,o),
(274.616,66.69,cs),
(274.616,202.986,o),
(143.616,219.627,o),
(143.616,459.69,cs),
(143.616,546.27,o),
(109.384,483.91,o),
(109.384,483.31,cs),
(109.384,375.415,o),
(95.287,253.577,o),
(-2.964,136.043,cs)
);
}
);
width = 318;
},
{
layerId = m003;
shapes = (
{
closed = 1;
nodes = (
(-61.845,112.217,o),
(6.975,54.218,o),
(44.472,99.075,cs),
(160.028,237.31,o),
(175,382.398,o),
(175,493,cs),
(175,552.104,o),
(78,520.336,o),
(78,450,cs),
(78,184.86,o),
(209,137.916,o),
(209,57,cs),
(209,39.77,o),
(142.675,5.165,o),
(98.446,96.727,cs),
(73.549,148.268,o),
(-8.552,111.318,o),
(17.554,57.273,cs),
(87.325,-87.165,o),
(299,-95.77,o),
(299,57,cs),
(299,226.084,o),
(168,223.14,o),
(168,450,cs),
(168,509.94,o),
(85,493.6,o),
(85,493,cs),
(85,385.602,o),
(73.972,274.69,o),
(-24.472,156.925,cs)
);
}
);
width = 318;
}
);
unicode = 115;
},
{
glyphname = germandbls;
lastChange = "2025-11-04 18:30:44 +0000";
layers = (
{
layerId = m002;
shapes = (
{
closed = 1;
nodes = (
(-11.377,109.972,o),
(19.359,100.185,o),
(37.312,126.025,cs),
(106.2,225.183,o),
(123.384,218.227,o),
(123.384,149.31,cs),
(123.384,63.935,o),
(21.265,-161.218,o),
(-6.972,-231.81,cs),
(-45.802,-328.885,o),
(28.643,-325.369,o),
(54,-225,cs),
(77.443,-132.205,o),
(299.833,505.687,o),
(308.536,597.067,cs),
(315.07,665.674,o),
(234.531,645.296,o),
(233.388,563.629,cs),
(232.265,483.413,o),
(345.053,173.146,o),
(369.91,91.465,cs),
(378.567,63.017,o),
(366.007,74.717,o),
(354.895,83.374,cs),
(297.127,128.383,o),
(202.922,209.836,o),
(230.347,222.976,cs),
(294.629,253.775,o),
(393.721,188.644,o),
(457.847,315.294,cs),
(471.255,341.775,o),
(436.033,344.119,o),
(422.153,316.706,cs),
(406.279,285.356,o),
(315.422,300.119,o),
(229.653,259.024,cs),
(100.833,197.303,o),
(303.269,60.522,o),
(321.105,46.626,cs),
(363.958,13.238,o),
(425.749,67.08,o),
(410.09,118.535,cs),
(385.588,199.049,o),
(273.692,516.588,o),
(274.612,582.371,cs),
(275.428,640.705,o),
(268.93,596.326,o),
(267.464,580.933,cs),
(260.167,504.313,o),
(38.557,-137.795,o),
(14,-235,cs),
(-8.643,-324.631,o),
(13.802,-271.115,o),
(30.972,-228.19,cs),
(58.735,-158.782,o),
(164.616,64.065,o),
(164.616,168.69,cs),
(164.616,305.773,o),
(69.8,226.817,o),
(6.688,135.975,cs)
);
}
);
width = 488;
},
{
layerId = m003;
shapes = (
{
closed = 1;
nodes = (
(-47.595,109.694,o),
(24.997,56.443,o),
(58.862,105.189,cs),
(139.671,221.506,o),
(99,175.403,o),
(99,159,cs),
(99,84.962,o),
(-1.329,-142.158,o),
(-29.723,-213.143,cs),
(-69.203,-311.843,o),
(46.703,-363.436,o),
(77.663,-240.886,cs),
(101.084,-148.178,o),
(323.139,483.34,o),
(332.829,585.078,cs),
(341.585,677.015,o),
(210.566,685.223,o),
(209.007,573.785,cs),
(207.676,478.648,o),
(321.897,174.222,o),
(346.966,91.843,cs),
(347.332,90.641,o),
(366.517,99.828,o),
(365.705,100.46,cs),
(286.629,162.071,o),
(247.651,199.56,o),
(249.727,200.554,cs),
(298.716,224.027,o),
(413.636,164.313,o),
(480.095,295.57,cs),
(505.862,346.459,o),
(427.101,390.143,o),
(399.905,336.43,cs),
(386.364,309.687,o),
(311.335,329.867,o),
(210.273,281.446,cs),
(59.669,209.287,o),
(309.061,30.501,o),
(310.295,29.54,cs),
(372.952,-19.278,o),
(456.978,39.474,o),
(433.034,118.157,cs),
(408.744,197.973,o),
(298.281,521.352,o),
(298.993,572.215,cs),
(299.292,593.602,o),
(243.292,594.186,o),
(243.171,592.922,cs),
(236.861,526.66,o),
(14.916,-121.822,o),
(-9.663,-219.114,cs),
(-26.114,-284.231,o),
(36.196,-290.676,o),
(53.723,-246.857,cs),
(81.329,-177.842,o),
(189,43.038,o),
(189,159,cs),
(189,348.597,o),
(36.329,230.494,o),
(-14.862,156.811,cs)
);
}
);
width = 488;
}
);
unicode = 223;
},
{
glyphname = t;
lastChange = "2025-11-04 18:30:44 +0000";
layers = (
{
layerId = m002;
shapes = (
{
closed = 1;
nodes = (
(-26.194,112.459,o),
(-5.092,91.123,o),
(17.914,114.704,cs),
(152.068,252.212,o),
(235.429,566.077,o),
(252.36,672.724,cs),
(270.61,787.683,o),
(215.476,722.964,o),
(202.587,631.937,cs),
(186.535,518.567,o),
(127.311,121.262,o),
(154.695,3.298,cs),
(160.331,-20.979,o),
(195.861,12.995,o),
(195.613,26.006,cs),
(188.785,383.012,o),
(271.059,507.318,o),
(53.936,524.566,c),
(47.601,510.865,o),
(41.267,497.165,o),
(34.933,483.464,c),
(131.02,493.37,o),
(263.312,403.642,o),
(343.964,498.957,cs),
(364.704,523.468,o),
(338.95,539.759,o),
(318.036,515.043,cs),
(310.688,506.358,o),
(148.98,534.63,o),
(51.067,524.536,cs),
(40.187,523.414,o),
(5.972,485.507,o),
(32.064,483.434,cs),
(242.941,466.682,o),
(147.215,380.988,o),
(154.387,5.994,c),
(168.026,13.563,o),
(181.666,21.133,o),
(195.305,28.702,c),
(170.689,134.738,o),
(227.465,533.433,o),
(243.413,646.063,cs),
(262.524,781.036,o),
(221.332,720.326,o),
(211.64,659.276,cs),
(196.504,563.934,o),
(101.932,243.788,o),
(-3.914,135.296,cs)
);
}
);
width = 344;
},
{
layerId = m003;
shapes = (
{
closed = 1;
nodes = (
(-65.463,115.165,o),
(-2.056,51.278,o),
(39.37,93.74,cs),
(174.661,232.414,o),
(258.879,548.303,o),
(276.446,658.96,cs),
(292.04,757.191,o),
(194.636,759.661,o),
(178.438,645.263,cs),
(162.014,529.27,o),
(99.985,140.143,o),
(131.153,5.877,cs),
(143.014,-45.214,o),
(221.011,-36.411,o),
(219.993,16.785,cs),
(213.638,349.072,o),
(310.456,527.894,o),
(46.922,548.829,c),
(47.183,518.968,o),
(47.443,489.107,o),
(47.704,459.247,c),
(121.917,466.897,o),
(283.298,380.96,o),
(365.472,478.075,cs),
(403.128,522.577,o),
(334.276,580.537,o),
(296.528,535.925,cs),
(262.864,496.141,o),
(188.261,564.214,o),
(38.296,548.753,cs),
(-14.365,543.325,o),
(-14.304,463.412,o),
(39.078,459.171,cs),
(202.807,446.165,o),
(122.079,429.742,o),
(130.007,15.215,c),
(159.62,18.851,o),
(189.233,22.487,o),
(218.847,26.123,c),
(198.015,115.857,o),
(251.986,522.73,o),
(267.562,632.737,cs),
(283.364,744.339,o),
(199.902,750.818,o),
(187.554,673.04,cs),
(173.055,581.707,o),
(79.339,263.586,o),
(-25.37,156.26,cs)
);
}
);
width = 344;
}
);
unicode = 116;
},
{
glyphname = u;
lastChange = "2025-11-04 18:30:44 +0000";
layers = (
{
anchors = (
{
name = bottom;
pos = (197,0);
},
{
name = ogonek;
pos = (394,10);
},
{
name = top;
pos = (197,500);
},
{
name = topright;
pos = (423,500);
}
);
layerId = m002;
shapes = (
{
closed = 1;
nodes = (
(-20.165,112.805,o),
(8.301,99.868,o),
(27.568,125.985,cs),
(71.243,185.189,o),
(136.437,260.475,o),
(157.46,419.4,cs),
(166.021,484.114,o),
(124.577,449.315,o),
(97.7,306.617,cs),
(30.373,-50.838,o),
(117.706,-58.101,o),
(258.682,106.627,cs),
(321.263,179.752,o),
(379.458,356.658,o),
(391.162,410.695,cs),
(409.625,495.937,o),
(341.765,468.631,o),
(319.587,314.937,cs),
(280.745,45.768,o),
(317.581,-61.296,o),
(470.241,125.289,cs),
(490.493,150.041,o),
(464.281,165.794,o),
(443.759,140.711,cs),
(344.419,19.296,o),
(319.593,46.183,o),
(360.413,329.063,cs),
(388.46,523.422,o),
(353.547,411.816,o),
(350.838,399.305,cs),
(341.695,357.093,o),
(273.985,170.892,o),
(233.318,123.373,cs),
(132.534,5.608,o),
(71.161,-37.074,o),
(138.3,319.383,cs),
(173.114,504.221,o),
(119.724,428.67,o),
(116.54,404.6,cs),
(96.313,251.69,o),
(44.757,200.811,o),
(-1.568,138.015,cs)
);
}
);
width = 443;
},
{
anchors = (
{
name = bottom;
pos = (197,0);
},
{
name = ogonek;
pos = (394,10);
},
{
name = top;
pos = (197,500);
},
{
name = topright;
pos = (423,500);
}
);
layerId = m003;
shapes = (
{
closed = 1;
nodes = (
(-57.6,112.098,o),
(14.3,57.961,o),
(49.406,105.55,cs),
(91.014,161.952,o),
(160.022,242.903,o),
(181.562,405.737,cs),
(186.78,445.186,o),
(104.781,485.932,o),
(73.827,321.586,cs),
(5.481,-41.278,o),
(133.272,-85.927,o),
(279.962,85.477,cs),
(344.079,160.397,o),
(402.656,338.576,o),
(415.017,395.644,cs),
(435.902,492.07,o),
(319.673,496.21,o),
(295.438,328.263,cs),
(258.395,71.56,o),
(321.872,-103.219,o),
(491.972,104.681,cs),
(528.777,149.665,o),
(459.144,206.683,o),
(422.028,161.319,cs),
(337.19,57.628,o),
(342.763,26.078,o),
(384.562,315.737,cs),
(410.659,496.586,o),
(327.682,417.582,o),
(326.983,414.356,cs),
(318.497,375.175,o),
(251.169,190.247,o),
(212.038,144.523,cs),
(115.541,31.767,o),
(96.353,-45.042,o),
(162.173,304.414,cs),
(193.02,468.187,o),
(98.868,466.868,o),
(92.438,418.263,cs),
(72.728,269.262,o),
(24.986,224.048,o),
(-23.406,158.45,cs)
);
}
);
width = 443;
}
);
unicode = 117;
},
{
glyphname = v;
lastChange = "2025-11-04 18:30:44 +0000";
layers = (
{
layerId = m002;
shapes = (
{
closed = 1;
nodes = (
(46.21,476.813,o),
(6.715,447.779,o),
(14.179,428.67,cs),
(63.328,302.85,o),
(91.384,124.683,o),
(91.384,7.31,cs),
(91.384,-15.423,o),
(121.478,2.851,o),
(128.013,13.079,cs),
(207.251,137.104,o),
(328.923,435.147,o),
(378.701,449.187,cs),
(403.347,456.138,o),
(414.69,496.539,o),
(387.299,488.813,cs),
(281.162,458.877,o),
(154.944,113.201,o),
(95.987,20.921,c),
(108.196,22.844,o),
(120.406,24.767,o),
(132.616,26.69,c),
(132.616,149.317,o),
(104.672,327.15,o),
(53.821,457.33,cs)
);
}
);
width = 386;
},
{
layerId = m003;
shapes = (
{
closed = 1;
nodes = (
(55.456,511.748,o),
(-30.107,483.44,o),
(-8.011,426.873,cs),
(39.139,306.169,o),
(67,130.25,o),
(67,17,cs),
(67,-26.212,o),
(125.583,-45.319,o),
(149.74,-7.509,cs),
(230.051,118.195,o),
(356.245,414.699,o),
(395.404,425.743,cs),
(451.171,441.472,o),
(427.182,528.217,o),
(370.596,512.257,cs),
(242.84,476.223,o),
(139.73,143.983,o),
(74.26,41.509,c),
(101.84,33.339,o),
(129.42,25.17,o),
(157,17,c),
(157,143.75,o),
(128.861,323.831,o),
(76.011,459.127,cs)
);
}
);
width = 386;
}
);
unicode = 118;
},
{
glyphname = w;
lastChange = "2025-11-04 18:30:44 +0000";
layers = (
{
layerId = m002;
shapes = (
{
closed = 1;
nodes = (
(92.53,463.024,o),
(53.394,456.073,o),
(44.512,429.762,cs),
(-9.141,270.829,o),
(-14.935,188.581,o),
(-12.613,99.994,cs),
(-9.366,-23.823,o),
(72.379,-6.046,o),
(166.068,125.677,cs),
(210.572,188.248,o),
(190.381,172.94,o),
(190.384,172.31,cs),
(190.781,96.205,o),
(281.187,-117.558,o),
(361.678,71.092,cs),
(411.481,187.815,o),
(419.523,380.462,o),
(399.09,446.535,cs),
(387.602,483.684,o),
(352.83,425.407,o),
(352.64,424.276,cs),
(347.589,394.209,o),
(348.585,322.725,o),
(386.963,278.703,cs),
(399.741,264.046,o),
(435.864,298.583,o),
(423.037,313.297,cs),
(393.415,347.275,o),
(389.967,417.53,o),
(393.36,437.724,cs),
(400.528,480.388,o),
(355.05,431.946,o),
(358.91,419.465,cs),
(375.274,366.548,o),
(366.655,168.127,o),
(324.322,68.908,cs),
(298.737,8.945,o),
(232.22,75.64,o),
(231.616,191.69,cs),
(231.358,241.174,o),
(160.934,171.476,o),
(135.932,136.323,cs),
(58.483,27.434,o),
(31.081,25.868,o),
(28.613,120.006,cs),
(26.32,207.455,o),
(31.141,281.171,o),
(83.488,436.238,cs)
);
}
);
width = 464;
},
{
layerId = m003;
shapes = (
{
closed = 1;
nodes = (
(124.845,472.548,o),
(40.655,504.535,o),
(21.452,447.651,cs),
(-32.558,287.661,o),
(-39.391,200.678,o),
(-36.973,108.43,cs),
(-32.369,-67.17,o),
(106.362,-9.396,o),
(187.862,105.189,cs),
(230.195,164.707,o),
(165.997,182.63,o),
(166,182,cs),
(166.334,117.777,o),
(287.1,-175.681,o),
(384.423,52.417,cs),
(436.74,175.033,o),
(446.859,365.881,o),
(422.034,446.157,cs),
(415.666,466.749,o),
(329.577,444.132,o),
(328.684,438.814,cs),
(322.193,400.183,o),
(317.049,328.405,o),
(371.038,266.477,cs),
(409.331,222.553,o),
(477.38,281.455,o),
(438.962,325.523,cs),
(424.951,341.595,o),
(415.362,411.556,o),
(417.316,423.186,cs),
(423.757,461.518,o),
(327.045,448.693,o),
(335.966,419.843,cs),
(347.939,381.128,o),
(341.397,180.908,o),
(301.577,87.583,cs),
(293.499,68.649,o),
(256.67,53.423,o),
(256,182,cs),
(255.675,244.335,o),
(135.308,186.575,o),
(114.138,156.811,cs),
(24.29,30.489,o),
(54.087,69.069,o),
(52.973,111.57,cs),
(50.776,195.358,o),
(54.558,264.339,o),
(106.548,418.349,cs)
);
}
);
width = 464;
}
);
unicode = 119;
},
{
glyphname = x;
lastChange = "2025-11-04 18:30:44 +0000";
layers = (
{
layerId = m002;
shapes = (
{
closed = 1;
nodes = (
(146.333,547.271,o),
(105.506,522.887,o),
(108.537,501.165,cs),
(132.655,328.319,o),
(179.26,93.544,o),
(313.14,-47.49,cs),
(326.361,-61.417,o),
(358.929,-29.227,o),
(350.119,-14.199,cs),
(113.489,389.465,o),
(234.263,313.266,o),
(413.296,488.086,cs),
(423.053,497.613,o),
(421.668,515.688,o),
(420.678,516.678,cs),
(420.344,517.011,o),
(420.011,517.344,o),
(419.678,517.678,cs),
(419.545,517.81,o),
(393.143,514.665,o),
(386.45,504.625,cs),
(237.65,281.424,o),
(70.305,147.221,o),
(-33.241,21.711,cs),
(-53.598,-2.964,o),
(-27.38,-18.707,o),
(-6.759,6.289,cs),
(87.695,120.779,o),
(262.35,262.576,o),
(417.55,495.375,c),
(406.474,491.024,o),
(395.398,486.673,o),
(384.322,482.322,c),
(384.656,481.989,o),
(384.989,481.656,o),
(385.322,481.322,c),
(387.783,490.853,o),
(390.243,500.383,o),
(392.704,509.914,c),
(231.777,352.773,o),
(72.034,363.349,o),
(311.881,-45.801,c),
(324.207,-34.704,o),
(336.534,-23.607,o),
(348.86,-12.51,c),
(220.74,122.456,o),
(173.345,353.681,o),
(149.463,524.835,cs)
);
}
);
width = 400;
},
{
layerId = m003;
shapes = (
{
closed = 1;
nodes = (
(165.653,575.943,o),
(76.143,566.187,o),
(84.438,506.737,cs),
(108.711,332.78,o),
(153.111,92.034,o),
(298.63,-61.26,cs),
(334.11,-98.636,o),
(396.41,-52.601,o),
(369.971,-7.5,cs),
(142.835,379.967,o),
(256.64,293.189,o),
(434.26,466.63,cs),
(455.923,487.783,o),
(435.81,529.83,o),
(434.82,530.82,cs),
(434.486,531.153,o),
(434.153,531.486,o),
(433.82,531.82,cs),
(433.565,532.075,o),
(382.806,552.332,o),
(364.693,525.164,cs),
(216.187,302.404,o),
(48.741,168.033,o),
(-54.472,42.925,cs),
(-91.536,-2,o),
(-22.75,-60.043,o),
(14.472,-14.925,cs),
(109.259,99.967,o),
(283.813,241.596,o),
(439.307,474.836,c),
(416.265,472.618,o),
(393.222,470.399,o),
(370.18,468.18,c),
(370.514,467.847,o),
(370.847,467.514,o),
(371.18,467.18,c),
(371.367,488.577,o),
(371.554,509.974,o),
(371.74,531.37,c),
(214.288,377.623,o),
(45.908,367.354,o),
(292.029,-52.5,c),
(315.809,-34.58,o),
(339.59,-16.66,o),
(363.37,1.26,c),
(246.889,123.966,o),
(197.289,349.22,o),
(173.562,519.263,cs)
);
}
);
width = 400;
}
);
unicode = 120;
},
{
glyphname = y;
lastChange = "2025-11-04 18:30:44 +0000";
layers = (
{
layerId = m002;
shapes = (
{
closed = 1;
nodes = (
(121.658,502.655,o),
(80.418,483.743,o),
(79.397,459.951,cs),
(54.118,-129.57,o),
(227.064,-152.853,o),
(461.004,463.624,c),
(453.397,461.371,o),
(445.79,459.118,o),
(438.183,456.865,c),
(440.517,455.198,o),
(442.85,453.531,o),
(445.183,451.865,c),
(443.316,457.288,o),
(441.448,462.711,o),
(439.581,468.135,c),
(303.368,-20.215,o),
(250.443,-269.464,o),
(-30.711,-503.759,cs),
(-54.883,-523.902,o),
(-40.505,-551.254,o),
(-15.289,-530.241,cs),
(291.557,-274.536,o),
(334.632,-19.785,o),
(468.419,459.865,cs),
(470.073,465.794,o),
(467.738,472.62,o),
(462.817,476.135,cs),
(460.483,477.802,o),
(458.15,479.469,o),
(455.817,481.135,cs),
(455.533,481.338,o),
(439.979,492.776,o),
(432.996,474.376,cs),
(200.936,-137.147,o),
(95.882,-98.43,o),
(120.603,478.049,cs)
);
}
);
width = 480;
},
{
layerId = m003;
shapes = (
{
closed = 1;
nodes = (
(147.433,524.806,o),
(57.591,530.351,o),
(55.027,470.57,cs),
(29.311,-129.131,o),
(245.068,-189.964,o),
(489.011,452.873,c),
(466.191,446.114,o),
(443.37,439.354,o),
(420.55,432.594,c),
(422.883,430.928,o),
(425.216,429.261,o),
(427.55,427.594,c),
(421.948,443.864,o),
(416.345,460.134,o),
(410.743,476.404,c),
(274.568,-11.809,o),
(229.493,-248.012,o),
(-51.925,-482.528,cs),
(-96.844,-519.96,o),
(-38.835,-588.772,o),
(5.925,-551.472,cs),
(312.507,-295.988,o),
(363.432,-28.191,o),
(497.257,451.596,cs),
(501.524,466.894,o),
(487.38,495.456,o),
(480.45,500.406,cs),
(478.117,502.072,o),
(475.784,503.739,o),
(473.45,505.406,cs),
(472.523,506.068,o),
(417.448,517.959,o),
(404.989,485.127,cs),
(182.932,-100.036,o),
(120.689,-98.869,o),
(144.973,467.43,cs)
);
}
);
width = 480;
}
);
unicode = 121;
},
{
glyphname = z;
lastChange = "2025-11-04 18:30:44 +0000";
layers = (
{
layerId = m002;
shapes = (
{
closed = 1;
nodes = (
(-3.109,434.762,o),
(0.266,400.041,o),
(27.856,416.329,cs),
(105.899,462.403,o),
(156.139,471.171,o),
(227.371,467.412,cs),
(325.314,462.243,o),
(246.911,349.594,o),
(171.987,233.921,cs),
(-6.332,-41.383,o),
(138.803,-71.723,o),
(327.323,59.932,cs),
(542.235,210.017,o),
(414.924,318.296,o),
(308.319,322.603,cs),
(210.352,326.562,o),
(157.545,334.646,o),
(123.49,366.86,cs),
(109.622,379.978,o),
(74.111,344.761,o),
(88.51,331.14,cs),
(128.455,293.354,o),
(189.645,285.358,o),
(287.681,281.397,cs),
(381.072,277.623,o),
(471.581,198.247,o),
(316.677,90.068,cs),
(159.024,-20.03,o),
(48.176,-14.515,o),
(204.013,226.079,cs),
(269.024,326.448,o),
(390.651,501.092,o),
(248.629,508.588,cs),
(175.84,512.43,o),
(110.101,501.597,o),
(22.144,449.671,cs)
);
}
);
width = 486;
},
{
layerId = m003;
shapes = (
{
closed = 1;
nodes = (
(-48.542,441.839,o),
(-1.98,364.817,o),
(48.177,394.427,cs),
(125.419,440.028,o),
(168.587,446.601,o),
(235.645,443.062,cs),
(260.841,441.732,o),
(248.914,406.819,o),
(150.26,254.509,cs),
(-41.331,-41.285,o),
(161.869,-91.716,o),
(347.811,38.138,cs),
(567.302,191.422,o),
(431.924,341.624,o),
(299.57,346.973,cs),
(202.321,350.902,o),
(155.985,363.659,o),
(136.69,381.911,cs),
(96.273,420.143,o),
(30.939,358.062,o),
(75.31,316.089,cs),
(130.015,264.341,o),
(197.675,261.018,o),
(296.43,257.027,cs),
(372.937,253.936,o),
(442.173,213.811,o),
(296.189,111.862,cs),
(142.922,4.826,o),
(78.722,-21.487,o),
(225.74,205.491,cs),
(265.6,267.031,o),
(457.538,521.476,o),
(240.355,532.938,cs),
(163.392,537,o),
(90.581,523.972,o),
(1.823,471.573,cs)
);
}
);
width = 486;
}
);
unicode = 122;
},
{
glyphname = e.alt;
lastChange = "2025-11-04 18:30:44 +0000";
layers = (
{
layerId = m002;
shapes = (
{
closed = 1;
nodes = (
(-22.663,112.679,o),
(4.022,97.504,o),
(24.515,122.624,cs),
(84.872,196.61,o),
(239.915,336.193,o),
(254.413,433.063,cs),
(270.727,542.066,o),
(123.177,558.924,o),
(70.7,276.617,cs),
(25.313,32.453,o),
(90.343,-2.616,o),
(139.31,-2.616,cs),
(189.668,-2.616,o),
(250.534,49.824,o),
(308.785,123.961,cs),
(328.39,148.914,o),
(301.259,163.55,o),
(281.215,138.039,cs),
(229.466,72.176,o),
(178.332,38.616,o),
(158.69,38.616,cs),
(137.657,38.616,o),
(67.076,51.475,o),
(111.3,289.383,cs),
(163.276,568.991,o),
(219.42,457.912,o),
(213.587,418.937,cs),
(206.231,369.785,o),
(61.128,215.39,o),
(-2.515,137.376,cs)
);
}
);
width = 283;
},
{
layerId = m003;
shapes = (
{
closed = 1;
nodes = (
(-60.709,113.287,o),
(8.917,56.259,o),
(45.972,101.681,cs),
(106.008,175.274,o),
(262.249,310.742,o),
(278.446,418.96,cs),
(303.362,585.436,o),
(98.531,569.735,o),
(46.827,291.586,cs),
(1.58,48.176,o),
(68.762,-27,o),
(149,-27,cs),
(217.285,-27,o),
(268.769,24.779,o),
(330.46,103.295,cs),
(366.254,148.851,o),
(295.868,204.941,o),
(259.54,158.705,cs),
(211.231,97.221,o),
(150.715,63,o),
(149,63,cs),
(147.947,63,o),
(91.1,37.318,o),
(135.173,274.414,cs),
(184.925,542.056,o),
(189.887,435.266,o),
(189.554,433.04,cs),
(183.896,395.236,o),
(39.992,236.726,o),
(-23.972,158.319,cs)
);
}
);
width = 283;
}
);
},
{
glyphname = s.alt;
lastChange = "2025-11-04 18:30:44 +0000";
layers = (
{
layerId = m002;
shapes = (
{
closed = 1;
nodes = (
(306.447,383.805,o),
(340.511,420.342,o),
(324.895,432.374,cs),
(278.224,468.334,o),
(109.339,568.881,o),
(150.695,371.298,cs),
(182.219,220.692,o),
(196.701,173.616,o),
(223.179,103.67,cs),
(247.162,40.317,o),
(248.832,33.221,o),
(176.069,59.916,cs),
(73.765,97.451,o),
(5.616,192.679,o),
(5.616,252.69,cs),
(5.616,278.503,o),
(-4.824,292.075,o),
(109.583,270.636,cs),
(181.788,257.106,o),
(271.155,174.783,o),
(394.567,251.763,cs),
(420.347,267.843,o),
(414.337,301.019,o),
(387.433,284.237,cs),
(308.845,235.217,o),
(212.192,296.789,o),
(134.417,311.364,cs),
(43.212,328.455,o),
(-35.616,321.434,o),
(-35.616,233.31,cs),
(-35.616,151.321,o),
(38.164,60.356,o),
(147.931,20.084,cs),
(238.92,-13.299,o),
(292.304,54.446,o),
(262.821,132.33,cs),
(236.426,202.054,o),
(222.942,245.551,o),
(191.305,396.702,cs),
(171.643,490.634,o),
(205.823,461.335,o),
(291.105,395.626,cs)
);
}
);
width = 353;
},
{
layerId = m003;
shapes = (
{
closed = 1;
nodes = (
(326.154,343.206,o),
(382.312,413.55,o),
(335.705,449.46,cs),
(311.463,468.139,o),
(74.073,627.424,o),
(126.983,374.644,cs),
(158.565,223.763,o),
(174.141,172.796,o),
(200.989,101.873,cs),
(217.779,57.52,o),
(229.046,63.335,o),
(177.391,82.286,cs),
(86.365,115.683,o),
(30,207.153,o),
(30,243,cs),
(30,255.189,o),
(7.345,266.703,o),
(113.414,246.827,cs),
(168.502,236.504,o),
(282.668,147.39,o),
(414.846,229.838,cs),
(464.298,260.684,o),
(416.75,337.098,o),
(367.154,306.162,cs),
(297.332,262.61,o),
(225.479,317.391,o),
(130.586,335.173,cs),
(34.741,353.134,o),
(-60,349.453,o),
(-60,243,cs),
(-60,136.847,o),
(25.564,42.124,o),
(146.609,-2.286,cs),
(259.427,-43.678,o),
(321.385,38.04,o),
(285.011,134.127,cs),
(258.987,202.873,o),
(246.597,242.48,o),
(215.017,393.356,cs),
(203.107,450.254,o),
(190.157,447.991,o),
(280.295,378.54,cs)
);
}
);
width = 353;
}
);
},
{
glyphname = zero;
lastChange = "2025-11-04 18:30:44 +0000";
layers = (
{
layerId = m002;
shapes = (
{
closed = 1;
nodes = (
(375.288,-1.616,o),
(559.616,200.054,o),
(559.616,430.69,cs),
(559.616,541.296,o),
(481.541,619.616,o),
(370.69,619.616,cs),
(203.925,619.616,o),
(39.384,438.483,o),
(39.384,228.31,cs),
(39.384,82.101,o),
(103.633,-1.616,o),
(180.31,-1.616,cs)
);
},
{
closed = 1;
nodes = (
(126.367,39.616,o),
(80.616,135.899,o),
(80.616,247.69,cs),
(80.616,417.517,o),
(200.075,578.384,o),
(351.31,578.384,cs),
(448.459,578.384,o),
(518.384,508.704,o),
(518.384,411.31,cs),
(518.384,215.946,o),
(374.712,39.616,o),
(199.69,39.616,cs)
);
}
);
width = 500;
},
{
layerId = m003;
shapes = (
{
closed = 1;
nodes = (
(388.791,-26,o),
(584,171.359,o),
(584,421,cs),
(584,552.11,o),
(487.837,644,o),
(361,644,cs),
(168.233,644,o),
(15,446.159,o),
(15,238,cs),
(15,103.748,o),
(72.325,-26,o),
(190,-26,cs)
);
},
{
closed = 1;
nodes = (
(156.735,64,o),
(105,113.933,o),
(105,238,cs),
(105,409.551,o),
(234.672,554,o),
(361,554,cs),
(442.163,554,o),
(494,497.89,o),
(494,421,cs),
(494,244.641,o),
(361.209,64,o),
(190,64,cs)
);
}
);
width = 500;
}
);
unicode = 48;
},
{
glyphname = one;
lastChange = "2025-11-04 18:30:44 +0000";
layers = (
{
layerId = m002;
shapes = (
{
closed = 1;
nodes = (
(20.704,-115.402,o),
(51.84,-124.599,o),
(69.55,-98.625,cs),
(129.192,-11.15,o),
(182.852,65.079,o),
(251.55,167.375,cs),
(319.52,268.587,o),
(453.152,444.836,o),
(499.711,596.946,cs),
(507.832,623.479,o),
(468.348,615.383,o),
(460.289,589.054,cs),
(397.097,382.603,o),
(347.81,241.428,o),
(314.587,18.937,cs),
(310.71,-7.027,o),
(351.778,8.721,o),
(355.413,33.063,cs),
(388.19,252.572,o),
(435.868,388.368,o),
(499.711,596.946,cs),
(507.832,623.479,o),
(468.348,615.383,o),
(460.289,589.054,cs),
(418.96,454.028,o),
(289.79,279.877,o),
(220.45,176.625,cs),
(152.46,75.383,o),
(98.808,-0.85,o),
(38.45,-89.375,cs)
);
}
);
width = 500;
},
{
layerId = m003;
shapes = (
{
closed = 1;
nodes = (
(-15.549,-116.125,o),
(57.788,-168.324,o),
(91.307,-119.164,cs),
(149.979,-33.11,o),
(205.62,46.045,o),
(273.307,146.836,cs),
(341.127,247.826,o),
(475.309,423.924,o),
(523.034,579.843,cs),
(539.68,634.227,o),
(454.637,663.887,o),
(436.966,606.157,cs),
(374.14,400.901,o),
(323.959,256.752,o),
(290.438,32.263,cs),
(281.957,-24.535,o),
(370.803,-38.921,o),
(379.562,19.737,cs),
(412.041,237.248,o),
(458.825,370.07,o),
(523.034,579.843,cs),
(539.68,634.227,o),
(454.637,663.887,o),
(436.966,606.157,cs),
(396.802,474.939,o),
(268.182,300.638,o),
(198.693,197.164,cs),
(129.693,94.417,o),
(78.021,21.11,o),
(16.693,-68.836,cs)
);
}
);
width = 500;
}
);
unicode = 49;
},
{
glyphname = two;
lastChange = "2025-11-04 18:30:44 +0000";
layers = (
{
layerId = m002;
shapes = (
{
closed = 1;
nodes = (
(263.301,444.628,o),
(295.194,436.577,o),
(312.013,463.079,cs),
(376.002,563.911,o),
(404.686,573.384,o),
(452.31,573.384,cs),
(477.792,573.384,o),
(460.285,442.846,o),
(372.987,306.921,cs),
(236.005,93.635,o),
(219.397,21.616,o),
(139.69,21.616,cs),
(69.358,21.616,o),
(88.007,125.384,o),
(146.31,125.384,cs),
(236.705,125.384,o),
(372.671,-71.351,o),
(507.19,-18.972,cs),
(532.664,-9.052,o),
(538.507,29.756,o),
(510.81,18.972,cs),
(419.329,-16.649,o),
(273.295,166.616,o),
(165.69,166.616,cs),
(27.993,166.616,o),
(20.642,-19.616,o),
(120.31,-19.616,cs),
(266.603,-19.616,o),
(279.969,104.381,o),
(405.013,299.079,cs),
(493.698,437.165,o),
(538.208,614.616,o),
(471.69,614.616,cs),
(425.314,614.616,o),
(347.998,578.089,o),
(279.987,470.921,cs)
);
}
);
width = 500;
},
{
layerId = m003;
shapes = (
{
closed = 1;
nodes = (
(226.5,441.466,o),
(302.951,393.973,o),
(334.162,443.154,cs),
(396.596,541.534,o),
(431.75,549,o),
(462,549,cs),
(463.384,549,o),
(451.928,484.253,o),
(351.26,327.509,cs),
(214.389,114.396,o),
(182.252,46,o),
(130,46,cs),
(116.149,46,o),
(108.29,101,o),
(156,101,cs),
(196.061,101,o),
(381.444,-97.958,o),
(525.127,-42.011,cs),
(578.249,-21.326,o),
(548.514,63.677,o),
(492.873,42.011,cs),
(409.604,9.587,o),
(313.028,191,o),
(156,191,cs),
(7.71,191,o),
(-26.149,-44,o),
(130,-44,cs),
(303.748,-44,o),
(301.585,83.621,o),
(426.74,278.491,cs),
(491.118,378.73,o),
(598.124,639,o),
(462,639,cs),
(398.25,639,o),
(327.404,600.466,o),
(257.838,490.846,cs)
);
}
);
width = 500;
}
);
unicode = 50;
},
{
glyphname = three;
lastChange = "2025-11-04 18:30:44 +0000";
layers = (
{
layerId = m002;
shapes = (
{
closed = 1;
nodes = (
(224.557,498.082,o),
(260.03,496.234,o),
(273.664,522.934,cs),
(296.752,568.148,o),
(311.067,596.384,o),
(373.31,596.384,cs),
(434.647,596.384,o),
(452.507,567.842,o),
(444.64,518.276,cs),
(435.483,460.579,o),
(353.816,409.14,o),
(253.575,355.476,cs),
(243.973,350.336,o),
(221.315,311.699,o),
(249.305,317.838,cs),
(363.622,342.907,o),
(459.594,341.112,o),
(470.462,230.761,cs),
(482.797,105.514,o),
(409.671,11.61,o),
(280.629,20.588,cs),
(111.524,32.353,o),
(29.037,167.363,o),
(88.323,208.932,cs),
(113.327,226.463,o),
(104.361,257.778,o),
(77.677,239.068,cs),
(-37.037,158.637,o),
(86.462,-8.559,o),
(259.371,-20.588,cs),
(423.59,-32.013,o),
(526.262,103.737,o),
(511.538,253.239,cs),
(496.406,406.888,o),
(374.378,383.093,o),
(260.695,358.162,c),
(259.272,345.616,o),
(257.848,333.07,o),
(256.425,320.524,c),
(354.184,372.86,o),
(469.108,429.327,o),
(485.36,531.724,cs),
(500.017,624.075,o),
(461.353,637.616,o),
(392.69,637.616,cs),
(324.933,637.616,o),
(263.248,573.852,o),
(238.336,525.066,cs)
);
}
);
width = 500;
},
{
layerId = m003;
shapes = (
{
closed = 1;
nodes = (
(189.722,493.156,o),
(269.19,450.881,o),
(296.095,503.57,cs),
(317.814,546.103,o),
(342.802,572,o),
(383,572,cs),
(432.731,572,o),
(429.17,586.329,o),
(420.554,532.04,cs),
(413.576,488.071,o),
(330.326,429.369,o),
(233.874,377.733,cs),
(189.296,353.868,o),
(214.057,282.953,o),
(264.356,293.983,cs),
(388.357,321.177,o),
(439.3,307.828,o),
(446.247,237.296,cs),
(457.131,126.781,o),
(381.399,37.359,o),
(273.139,44.89,cs),
(98.146,57.065,o),
(90.207,174.094,o),
(108.811,187.138,cs),
(156.09,220.288,o),
(105.49,294.728,o),
(57.189,260.862,cs),
(-97.283,152.554,o),
(96.747,-33.055,o),
(266.861,-44.89,cs),
(448.588,-57.533,o),
(550.869,93.219,o),
(535.753,246.704,cs),
(516.7,440.172,o),
(349.643,404.823,o),
(245.644,382.017,c),
(255.805,354.1,o),
(265.965,326.184,o),
(276.126,298.267,c),
(377.674,352.631,o),
(491.015,401.836,o),
(509.446,517.96,cs),
(526.34,624.404,o),
(480.506,662,o),
(383,662,cs),
(293.198,662,o),
(242.186,595.897,o),
(215.905,544.43,cs)
);
}
);
width = 500;
}
);
unicode = 51;
},
{
glyphname = four;
lastChange = "2025-11-04 18:30:44 +0000";
layers = (
{
layerId = m002;
shapes = (
{
closed = 1;
nodes = (
(251.423,621.706,o),
(211.779,613.045,o),
(204.187,586.701,cs),
(170.853,471.034,o),
(137.52,355.368,o),
(104.187,239.701,cs),
(100.093,225.495,o),
(112.083,222.719,o),
(117.617,223.7,cs),
(196.733,237.72,o),
(335.295,263.438,o),
(466.951,267.397,cs),
(489.938,268.089,o),
(510.062,309.355,o),
(485.049,308.603,cs),
(350.705,304.562,o),
(209.267,278.28,o),
(130.383,264.3,c),
(134.86,258.966,o),
(139.337,253.633,o),
(143.813,248.299,c),
(177.147,363.966,o),
(210.48,479.632,o),
(243.813,595.299,cs)
);
},
{
closed = 1;
nodes = (
(446.317,542.34,o),
(407.87,537.43,o),
(398.632,510.118,cs),
(352.163,372.732,o),
(262.564,50.851,o),
(222.477,-41.733,cs),
(210.623,-69.108,o),
(248.161,-66.509,o),
(259.523,-40.267,cs),
(303.436,61.149,o),
(391.837,381.268,o),
(437.368,515.882,cs)
);
}
);
width = 500;
},
{
layerId = m003;
shapes = (
{
closed = 1;
nodes = (
(282.958,633.08,o),
(197.509,661.582,o),
(180.743,603.404,cs),
(147.41,487.737,o),
(114.077,372.07,o),
(80.743,256.404,cs),
(71.889,225.681,o),
(97.315,193.57,o),
(131.814,199.684,cs),
(209.917,213.525,o),
(350.221,239.197,o),
(477.57,243.027,cs),
(534.778,244.748,o),
(533.903,334.761,o),
(474.43,332.973,cs),
(335.779,328.803,o),
(196.083,302.475,o),
(116.186,288.316,c),
(133.209,269.41,o),
(150.233,250.503,o),
(167.257,231.596,c),
(200.59,347.263,o),
(233.923,462.93,o),
(267.257,578.596,cs)
);
},
{
closed = 1;
nodes = (
(478.877,552.539,o),
(394.688,584.523,o),
(375.452,527.651,cs),
(329.032,390.41,o),
(238.344,66.116,o),
(199.577,-23.417,cs),
(176.339,-77.087,o),
(259.279,-112.035,o),
(282.423,-58.583,cs),
(327.656,45.884,o),
(414.968,363.59,o),
(460.548,498.349,cs)
);
}
);
width = 500;
}
);
unicode = 52;
},
{
glyphname = five;
lastChange = "2025-11-04 18:30:44 +0000";
layers = (
{
layerId = m002;
shapes = (
{
closed = 1;
nodes = (
(563.053,555.384,o),
(584.173,596.616,o),
(559.69,596.616,cs),
(463.023,596.616,o),
(366.357,596.616,o),
(269.69,596.616,cs),
(257.9,596.616,o),
(244.036,585.672,o),
(240.187,571.701,cs),
(222.187,506.368,o),
(204.187,441.034,o),
(186.187,375.701,cs),
(182.843,363.564,o),
(183.098,366.724,o),
(188.902,361.791,cs),
(195.568,356.125,o),
(202.235,350.458,o),
(208.902,344.791,cs),
(213.89,340.551,o),
(223.056,340.063,o),
(235.026,350.893,cs),
(266.844,379.681,o),
(315.01,392.384,o),
(340.31,392.384,cs),
(397.996,392.384,o),
(429.384,327.303,o),
(429.384,256.31,cs),
(429.384,126.195,o),
(356.636,20.616,o),
(223.69,20.616,cs),
(129.498,20.616,o),
(62.616,86.337,o),
(62.616,177.69,cs),
(62.616,248.194,o),
(67.793,246.973,o),
(84.625,258.45,cs),
(109.806,275.619,o),
(102.029,307.723,o),
(75.375,289.55,cs),
(24.862,255.109,o),
(21.384,210.076,o),
(21.384,158.31,cs),
(21.384,53.663,o),
(96.502,-20.616,o),
(204.31,-20.616,cs),
(347.364,-20.616,o),
(470.616,93.805,o),
(470.616,275.69,cs),
(470.616,376.697,o),
(420.004,433.616,o),
(359.69,433.616,cs),
(324.99,433.616,o),
(269.156,422.319,o),
(216.974,375.107,c),
(225.682,377.141,o),
(234.39,379.175,o),
(243.098,381.209,c),
(236.432,386.875,o),
(229.765,392.542,o),
(223.098,398.209,c),
(224.003,393.572,o),
(224.908,388.935,o),
(225.813,384.299,c),
(243.813,449.632,o),
(261.813,514.966,o),
(279.813,580.299,c),
(269.979,571.994,o),
(260.144,563.689,o),
(250.31,555.384,c),
(346.977,555.384,o),
(443.643,555.384,o),
(540.31,555.384,cs)
);
}
);
width = 500;
},
{
layerId = m003;
shapes = (
{
closed = 1;
nodes = (
(607.568,531,o),
(609.165,621,o),
(550,621,cs),
(453.333,621,o),
(356.667,621,o),
(260,621,cs),
(240.166,621,o),
(221.333,605.068,o),
(216.533,587.647,cs),
(198.533,522.314,o),
(180.533,456.98,o),
(162.533,391.647,cs),
(157.987,375.145,o),
(164.546,356.178,o),
(177.075,345.528,cs),
(183.741,339.861,o),
(190.408,334.195,o),
(197.075,328.528,cs),
(213.668,314.424,o),
(242.359,317.116,o),
(256.111,329.558,cs),
(287.342,357.816,o),
(331.251,368,o),
(350,368,cs),
(373.458,368,o),
(405,343.65,o),
(405,266,cs),
(405,146.18,o),
(335.957,45,o),
(214,45,cs),
(140.94,45,o),
(87,92.159,o),
(87,168,cs),
(87,213.939,o),
(99.226,232.645,o),
(105.164,236.693,cs),
(153.003,269.311,o),
(103.444,344.448,o),
(54.836,311.307,cs),
(3.208,276.106,o),
(-3,226.115,o),
(-3,168,cs),
(-3,47.841,o),
(85.06,-45,o),
(214,-45,cs),
(368.043,-45,o),
(495,73.82,o),
(495,266,cs),
(495,363.403,o),
(449.347,458,o),
(350,458,cs),
(308.749,458,o),
(248.658,444.184,o),
(195.889,396.442,c),
(215.568,396.785,o),
(235.247,397.129,o),
(254.925,397.472,c),
(248.259,403.139,o),
(241.592,408.805,o),
(234.925,414.472,c),
(239.773,399.099,o),
(244.62,383.726,o),
(249.467,368.353,c),
(267.467,433.686,o),
(285.467,499.02,o),
(303.467,564.353,c),
(288.978,553.235,o),
(274.489,542.118,o),
(260,531,c),
(356.667,531,o),
(453.333,531,o),
(550,531,cs)
);
}
);
width = 500;
}
);
unicode = 53;
},
{
glyphname = six;
lastChange = "2025-11-04 18:30:44 +0000";
layers = (
{
layerId = m002;
shapes = (
{
closed = 1;
nodes = (
(526.996,536.25,o),
(565.542,567.336,o),
(555.119,584.801,cs),
(518.532,646.109,o),
(501.283,701.616,o),
(428.69,701.616,cs),
(283.181,701.616,o),
(159.384,478.051,o),
(159.384,238.31,cs),
(159.384,93.813,o),
(240.073,-9.616,o),
(335.31,-9.616,cs),
(447.063,-9.616,o),
(547.616,96.714,o),
(547.616,231.69,cs),
(547.616,301.132,o),
(502.401,350.616,o),
(448.69,350.616,cs),
(338.333,350.616,o),
(211.95,243.8,o),
(184,132,cs),
(177.36,105.439,o),
(217.622,116.488,o),
(224,142,cs),
(250.05,246.2,o),
(333.667,309.384,o),
(429.31,309.384,cs),
(473.599,309.384,o),
(506.384,262.868,o),
(506.384,212.31,cs),
(506.384,111.286,o),
(444.937,31.616,o),
(354.69,31.616,cs),
(265.927,31.616,o),
(200.616,138.187,o),
(200.616,257.69,cs),
(200.616,502.967,o),
(335.096,660.384,o),
(409.31,660.384,cs),
(456.717,660.384,o),
(479.468,615.891,o),
(516.881,553.199,cs)
);
}
);
width = 500;
},
{
layerId = m003;
shapes = (
{
closed = 1;
nodes = (
(527.39,495.615,o),
(604.432,542.143,o),
(574.573,592.177,cs),
(542.088,646.61,o),
(518.486,726,o),
(419,726,cs),
(273.491,726,o),
(135,498.812,o),
(135,248,cs),
(135,98.498,o),
(206.992,-34,o),
(345,-34,cs),
(461.304,-34,o),
(572,68.52,o),
(572,222,cs),
(572,312.005,o),
(521.508,375,o),
(439,375,cs),
(310.524,375,o),
(194.161,283.183,o),
(160.337,147.886,cs),
(146.158,91.172,o),
(233.529,69.577,o),
(247.663,126.114,cs),
(267.839,206.817,o),
(361.476,285,o),
(439,285,cs),
(458.482,285,o),
(482,267.905,o),
(482,222,cs),
(482,139.48,o),
(430.696,56,o),
(345,56,cs),
(291.517,56,o),
(225,122.753,o),
(225,248,cs),
(225,483.59,o),
(367.066,636,o),
(419,636,cs),
(439.514,636,o),
(455.912,615.39,o),
(497.427,545.823,cs)
);
}
);
width = 500;
}
);
unicode = 54;
},
{
glyphname = seven;
lastChange = "2025-11-04 18:30:44 +0000";
layers = (
{
layerId = m002;
shapes = (
{
closed = 1;
nodes = (
(87.791,662.616,o),
(65.383,621.384,o),
(90.31,621.384,cs),
(228.643,621.384,o),
(366.977,621.384,o),
(505.31,621.384,c),
(502.652,628.612,o),
(499.994,635.839,o),
(497.336,643.066,c),
(354.589,368.631,o),
(252.989,125.179,o),
(160.512,-149.238,cs),
(151.343,-176.446,o),
(190.901,-168.243,o),
(199.488,-142.762,cs),
(291.011,128.821,o),
(391.411,369.369,o),
(532.664,640.934,cs),
(540.779,656.536,o),
(529.283,662.616,o),
(524.69,662.616,cs),
(386.357,662.616,o),
(248.023,662.616,o),
(109.69,662.616,cs)
);
}
);
width = 500;
},
{
layerId = m003;
shapes = (
{
closed = 1;
nodes = (
(42.432,687,o),
(40.835,597,o),
(100,597,cs),
(238.333,597,o),
(376.667,597,o),
(515,597,c),
(501.635,618.81,o),
(488.27,640.62,o),
(474.905,662.43,c),
(333.023,389.656,o),
(229.363,141.387,o),
(137.452,-131.349,cs),
(119.021,-186.042,o),
(203.703,-216.573,o),
(222.548,-160.651,cs),
(314.637,112.613,o),
(412.977,348.344,o),
(555.095,621.57,cs),
(570.005,650.235,o),
(550.318,687,o),
(515,687,cs),
(376.667,687,o),
(238.333,687,o),
(100,687,cs)
);
}
);
width = 500;
}
);
unicode = 55;
},
{
glyphname = eight;
lastChange = "2025-11-04 18:30:44 +0000";
layers = (
{
layerId = m002;
shapes = (
{
closed = 1;
nodes = (
(293.926,615.647,o),
(254.516,586.409,o),
(262.281,567.413,cs),
(326.675,409.897,o),
(377.384,204.757,o),
(377.384,174.31,cs),
(377.384,73.548,o),
(329.837,19.616,o),
(271.69,19.616,cs),
(175.376,19.616,o),
(137.616,134.21,o),
(137.616,261.69,cs),
(137.616,354.231,o),
(530.616,403.231,o),
(530.616,573.69,cs),
(530.616,718.26,o),
(285.015,750.752,o),
(282.388,557.629,cs),
(282.051,532.882,o),
(323.301,553.501,o),
(323.612,576.371,cs),
(324.985,677.248,o),
(489.384,679.74,o),
(489.384,554.31,cs),
(489.384,464.769,o),
(96.384,415.769,o),
(96.384,242.31,cs),
(96.384,79.79,o),
(156.624,-21.616,o),
(252.31,-21.616,cs),
(366.317,-21.616,o),
(418.616,86.496,o),
(418.616,193.69,cs),
(418.616,235.243,o),
(367.325,436.103,o),
(301.719,596.587,cs)
);
}
);
width = 500;
},
{
layerId = m003;
shapes = (
{
closed = 1;
nodes = (
(301.807,652.468,o),
(217.822,620.071,o),
(240.277,565.143,cs),
(302.254,413.536,o),
(353,200.576,o),
(353,184,cs),
(353,93.367,o),
(302.691,44,o),
(262,44,cs),
(210.601,44,o),
(162,106.925,o),
(162,252,cs),
(162,326.525,o),
(555,373.839,o),
(555,564,cs),
(555,756.16,o),
(260.849,776.66,o),
(258.007,567.785,cs),
(257.222,510.063,o),
(347.19,507.217,o),
(347.993,566.215,cs),
(349.151,651.34,o),
(465,641.84,o),
(465,564,cs),
(465,494.161,o),
(72,443.475,o),
(72,252,cs),
(72,106.925,o),
(117.991,-46,o),
(262,-46,cs),
(376.007,-46,o),
(443,67.343,o),
(443,184,cs),
(443,239.424,o),
(391.746,432.464,o),
(323.723,598.857,cs)
);
}
);
width = 500;
}
);
unicode = 56;
},
{
glyphname = nine;
lastChange = "2025-11-04 18:30:44 +0000";
layers = (
{
layerId = m002;
shapes = (
{
closed = 1;
nodes = (
(154.469,232.298,o),
(116.023,227.375,o),
(106.632,200.118,cs),
(62.465,71.927,o),
(106.576,-20.616,o),
(213.31,-20.616,cs),
(288.97,-20.616,o),
(374.921,62.233,o),
(419.363,159.373,cs),
(459.039,246.097,o),
(480.436,343.524,o),
(469.417,404.128,cs),
(467.472,414.822,o),
(455.008,414.479,o),
(444.727,407.784,cs),
(408.346,384.094,o),
(350.504,364.616,o),
(316.69,364.616,cs),
(276.439,364.616,o),
(246.616,392.395,o),
(246.616,431.69,cs),
(246.616,541.88,o),
(321.359,617.384,o),
(443.31,617.384,cs),
(477.379,617.384,o),
(492.152,560.881,o),
(453.891,459.832,cs),
(443.665,432.828,o),
(482.13,437.811,o),
(492.109,464.168,cs),
(531.848,569.119,o),
(528.621,658.616,o),
(462.69,658.616,cs),
(318.641,658.616,o),
(205.384,556.12,o),
(205.384,412.31,cs),
(205.384,359.605,o),
(243.561,323.384,o),
(297.31,323.384,cs),
(343.496,323.384,o),
(403.654,343.906,o),
(453.273,376.216,c),
(445.043,377.435,o),
(436.813,378.653,o),
(428.583,379.872,c),
(437.564,330.476,o),
(418.159,236.27,o),
(382.637,158.627,cs),
(342.173,70.181,o),
(281.03,20.616,o),
(232.69,20.616,cs),
(145.424,20.616,o),
(107.535,96.073,o),
(145.368,205.882,cs)
);
}
);
width = 500;
},
{
layerId = m003;
shapes = (
{
closed = 1;
nodes = (
(187.19,242.455,o),
(103.005,274.404,o),
(83.452,217.651,cs),
(38.793,88.033,o),
(74.797,-45,o),
(223,-45,cs),
(316.417,-45,o),
(393.212,33.813,o),
(441.784,139.982,cs),
(483.074,230.233,o),
(506.855,325.349,o),
(493.316,399.814,cs),
(487.772,430.307,o),
(453.214,448.443,o),
(424.491,429.74,cs),
(389.566,406.998,o),
(331.852,389,o),
(307,389,cs),
(289.423,389,o),
(271,396.831,o),
(271,422,cs),
(271,526.487,o),
(347.121,593,o),
(453,593,cs),
(454.504,593,o),
(475.16,594.783,o),
(430.989,478.127,cs),
(410.422,423.809,o),
(494.242,391.022,o),
(515.011,445.873,cs),
(551.108,541.207,o),
(570.159,683,o),
(453,683,cs),
(292.879,683,o),
(181,571.513,o),
(181,422,cs),
(181,355.169,o),
(230.577,299,o),
(307,299,cs),
(362.148,299,o),
(422.434,321.002,o),
(473.509,354.26,c),
(450.567,364.235,o),
(427.625,374.21,o),
(404.684,384.186,c),
(411.145,348.651,o),
(394.124,252.134,o),
(360.216,178.018,cs),
(323.883,98.601,o),
(253.583,45,o),
(223,45,cs),
(177.203,45,o),
(131.207,79.967,o),
(168.548,188.349,cs)
);
}
);
width = 500;
}
);
unicode = 57;
},
{
glyphname = period;
lastChange = "2025-11-04 18:30:44 +0000";
layers = (
{
layerId = m002;
shapes = (
{
closed = 1;
nodes = (
(204.913,9.284,o),
(241.912,42.761,o),
(230.69,58.472,cs),
(219.72,73.829,o),
(104.617,82.575,o),
(128.281,23.413,cs),
(136.607,2.599,o),
(152.124,-23.864,o),
(201.627,-1.363,cs),
(227.736,10.505,o),
(229.752,47.808,o),
(202.373,35.363,cs),
(183.189,26.643,o),
(175.493,33.15,o),
(167.719,52.587,cs),
(167.478,53.188,o),
(184.593,37.732,o),
(193.31,25.528,cs)
);
}
);
width = 420;
},
{
layerId = m003;
shapes = (
{
closed = 1;
nodes = (
(209.075,-31.324,o),
(282.776,20.332,o),
(248.406,68.45,cs),
(203.857,130.818,o),
(82.517,80.541,o),
(106.277,21.143,cs),
(118.415,-9.202,o),
(160.651,-51.224,o),
(220.303,-24.11,cs),
(273.165,-0.082,o),
(237.102,82.385,o),
(183.697,58.11,cs),
(176.64,54.902,o),
(193.639,45.068,o),
(189.723,54.857,cs),
(189.483,55.457,o),
(175.144,16.18,o),
(175.594,15.55,cs)
);
}
);
width = 420;
}
);
unicode = 46;
},
{
glyphname = comma;
lastChange = "2025-11-04 18:30:44 +0000";
layers = (
{
layerId = m002;
shapes = (
{
closed = 1;
nodes = (
(187.194,186.16,o),
(146.541,160.935,o),
(150.636,139.583,cs),
(163.56,72.194,o),
(136.092,-76.315,o),
(102.485,-117.624,cs),
(82.372,-142.347,o),
(109.055,-157.525,o),
(129.515,-132.376,cs),
(191.908,-55.685,o),
(206.44,85.806,o),
(191.364,164.417,cs)
);
}
);
width = 410;
},
{
layerId = m003;
shapes = (
{
closed = 1;
nodes = (
(204.493,216.277,o),
(115.424,202.873,o),
(126.827,143.414,cs),
(137.424,88.156,o),
(108.849,-62.484,o),
(81.028,-96.681,cs),
(44.355,-141.758,o),
(113.974,-198.795,o),
(150.972,-153.319,cs),
(219.151,-69.516,o),
(232.576,69.844,o),
(215.173,160.586,cs)
);
}
);
width = 410;
}
);
unicode = 44;
},
{
glyphname = hyphen;
lastChange = "2025-11-04 18:30:44 +0000";
layers = (
{
layerId = m002;
shapes = (
{
closed = 1;
nodes = (
(103.198,300.922,o),
(98.132,271.297,o),
(118.432,269.082,cs),
(231.544,256.743,o),
(369.543,277.736,o),
(438.432,270.082,cs),
(457.336,267.982,o),
(461.337,297.721,o),
(441.568,299.918,cs),
(366.457,308.264,o),
(228.456,287.257,o),
(121.568,298.918,cs)
);
}
);
width = 530;
},
{
layerId = m003;
shapes = (
{
closed = 1;
nodes = (
(69.593,334.766,o),
(54.395,245.89,o),
(115.296,239.247,cs),
(234.632,226.228,o),
(372.63,247.209,o),
(435.296,240.247,cs),
(492.008,233.945,o),
(504.012,323.164,o),
(444.704,329.753,cs),
(363.37,338.791,o),
(225.368,317.772,o),
(124.704,328.753,cs)
);
}
);
width = 530;
}
);
unicode = 45;
},
{
glyphname = endash;
lastChange = "2025-11-04 18:30:44 +0000";
layers = (
{
layerId = m002;
shapes = (
{
closed = 1;
nodes = (
(103.198,300.922,o),
(98.132,271.297,o),
(118.432,269.082,cs),
(230.77,256.827,o),
(429.93,277.693,o),
(498.432,270.082,cs),
(517.336,267.982,o),
(521.337,297.721,o),
(501.568,299.918,cs),
(426.07,308.307,o),
(229.23,287.173,o),
(121.568,298.918,cs)
);
}
);
width = 600;
},
{
layerId = m003;
shapes = (
{
closed = 1;
nodes = (
(69.593,334.766,o),
(54.395,245.89,o),
(115.296,239.247,cs),
(232.311,226.481,o),
(433.791,247.08,o),
(495.296,240.247,cs),
(552.008,233.945,o),
(564.012,323.164,o),
(504.704,329.753,cs),
(422.209,338.92,o),
(227.689,317.519,o),
(124.704,328.753,cs)
);
}
);
width = 600;
}
);
unicode = 8211;
},
{
glyphname = emdash;
lastChange = "2025-11-04 18:30:44 +0000";
layers = (
{
layerId = m002;
shapes = (
{
closed = 1;
nodes = (
(43.198,300.922,o),
(38.132,271.297,o),
(58.432,269.082,cs),
(171.157,256.785,o),
(489.157,277.779,o),
(558.432,270.082,cs),
(577.336,267.982,o),
(581.337,297.721,o),
(561.568,299.918,cs),
(486.843,308.221,o),
(168.843,287.215,o),
(61.568,298.918,cs)
);
}
);
width = 600;
},
{
layerId = m003;
shapes = (
{
closed = 1;
nodes = (
(9.593,334.766,o),
(-5.605,245.89,o),
(55.296,239.247,cs),
(173.472,226.355,o),
(491.47,247.338,o),
(555.296,240.247,cs),
(612.008,233.945,o),
(624.012,323.164,o),
(564.704,329.753,cs),
(484.53,338.662,o),
(166.528,317.645,o),
(64.704,328.753,cs)
);
}
);
width = 600;
}
);
unicode = 8212;
},
{
glyphname = parenleft;
lastChange = "2025-11-04 18:30:44 +0000";
layers = (
{
layerId = m002;
shapes = (
{
closed = 1;
nodes = (
(307.904,875.79,o),
(283.229,892.879,o),
(272.42,876.17,cs),
(61.617,550.29,o),
(53.517,47.48,o),
(168.881,-162.272,cs),
(178.074,-178.986,o),
(204.678,-165.108,o),
(195.119,-147.728,cs),
(90.483,42.52,o),
(94.383,545.71,o),
(297.58,859.83,cs)
);
}
);
width = 265;
},
{
layerId = m003;
shapes = (
{
closed = 1;
nodes = (
(353.712,891.37,o),
(279.686,942.636,o),
(247.26,892.509,cs),
(28.85,554.87,o),
(16.551,52.441,o),
(142.642,-176.816,cs),
(170.221,-226.959,o),
(250.035,-185.324,o),
(221.358,-133.184,cs),
(127.449,37.559,o),
(127.15,541.13,o),
(322.74,843.491,cs)
);
}
);
width = 265;
}
);
unicode = 40;
},
{
glyphname = parenright;
lastChange = "2025-11-04 18:30:44 +0000";
layers = (
{
layerId = m002;
shapes = (
{
closed = 1;
nodes = (
(151.15,875.514,o),
(123.296,864.341,o),
(131.192,846.139,cs),
(282.472,497.41,o),
(167.21,142.928,o),
(-2.595,-214.661,cs),
(-10.78,-231.897,o),
(16.088,-245.253,o),
(24.595,-227.339,cs),
(194.79,131.072,o),
(315.528,496.59,o),
(158.808,857.861,cs)
);
}
);
width = 308;
},
{
layerId = m003;
shapes = (
{
closed = 1;
nodes = (
(163.449,922.541,o),
(79.889,889.023,o),
(103.577,834.417,cs),
(249.416,498.231,o),
(139.63,154.784,o),
(-29.784,-201.982,cs),
(-54.339,-253.692,o),
(26.265,-293.758,o),
(51.784,-240.018,cs),
(222.37,119.216,o),
(348.584,495.769,o),
(186.423,869.583,cs)
);
}
);
width = 308;
}
);
unicode = 41;
},
{
glyphname = ampersand;
lastChange = "2025-11-04 18:30:44 +0000";
layers = (
{
layerId = m002;
shapes = (
{
closed = 1;
nodes = (
(538.605,263.462,o),
(500.831,260.264,o),
(490.028,233.19,cs),
(422.128,63.01,o),
(168.549,5.269,o),
(145.916,68.069,cs),
(116.498,149.7,o),
(368.279,278.274,o),
(348.566,526.936,cs),
(339.994,635.067,o),
(211.205,634.051,o),
(227.496,514.461,cs),
(242.881,401.528,o),
(392.94,244.858,o),
(332.838,-22.695,cs),
(326.952,-48.895,o),
(367.457,-36.702,o),
(373.162,-11.305,cs),
(437.06,273.142,o),
(282.02,438.323,o),
(268.504,537.539,cs),
(261.925,585.831,o),
(300.465,592.97,o),
(307.434,505.064,cs),
(322.74,311.997,o),
(64.053,156.558,o),
(106.084,39.931,cs),
(133.853,-37.124,o),
(437.872,10.99,o),
(527.972,236.81,cs)
);
}
);
width = 600;
},
{
layerId = m003;
shapes = (
{
closed = 1;
nodes = (
(572.121,271.771,o),
(489.332,307.135,o),
(467.277,251.857,cs),
(390.192,58.658,o),
(169.044,67.287,o),
(168.286,69.391,cs),
(147.928,125.879,o),
(394.375,248.142,o),
(372.829,519.922,cs),
(361.738,659.818,o),
(183.25,667.929,o),
(203.438,519.737,cs),
(221.705,385.644,o),
(366.93,250.322,o),
(309.153,-6.877,cs),
(296.386,-63.714,o),
(384.029,-84.181,o),
(396.847,-27.123,cs),
(463.07,267.678,o),
(303.196,454.206,o),
(292.562,532.263,cs),
(289.88,551.952,o),
(278.721,568.218,o),
(283.171,512.078,cs),
(296.309,346.359,o),
(33.355,178.344,o),
(83.714,38.609,cs),
(137.392,-110.337,o),
(472.513,22.123,o),
(550.723,218.143,cs)
);
}
);
width = 600;
}
);
unicode = 38;
},
